  0
SECTION
  2
HEADER
  9
$ACADVER
  1
AC1024
  9
$ACADMAINTVER
 70
6
  9
$DWGCODEPAGE
  3
ANSI_1252
  9
$LASTSAVEDBY
  1
ezdxf
  9
$INSBASE
 10
0.0
 20
0.0
 30
0.0
  9
$EXTMIN
 10
1e+20
 20
1e+20
 30
1e+20
  9
$EXTMAX
 10
-1e+20
 20
-1e+20
 30
-1e+20
  9
$LIMMIN
 10
0.0
 20
0.0
  9
$LIMMAX
 10
420.0
 20
297.0
  9
$ORTHOMODE
 70
0
  9
$REGENMODE
 70
1
  9
$FILLMODE
 70
1
  9
$QTEXTMODE
 70
0
  9
$MIRRTEXT
 70
1
  9
$LTSCALE
 40
1.0
  9
$ATTMODE
 70
1
  9
$TEXTSIZE
 40
2.5
  9
$TRACEWID
 40
1.0
  9
$TEXTSTYLE
  7
Standard
  9
$CLAYER
  8
0
  9
$CELTYPE
  6
ByLayer
  9
$CECOLOR
 62
256
  9
$CELTSCALE
 40
1.0
  9
$DISPSILH
 70
0
  9
$DIMSCALE
 40
1.0
  9
$DIMASZ
 40
2.5
  9
$DIMEXO
 40
0.625
  9
$DIMDLI
 40
3.75
  9
$DIMRND
 40
0.0
  9
$DIMDLE
 40
0.0
  9
$DIMEXE
 40
1.25
  9
$DIMTP
 40
0.0
  9
$DIMTM
 40
0.0
  9
$DIMTXT
 40
2.5
  9
$DIMCEN
 40
2.5
  9
$DIMTSZ
 40
0.0
  9
$DIMTOL
 70
0
  9
$DIMLIM
 70
0
  9
$DIMTIH
 70
0
  9
$DIMTOH
 70
0
  9
$DIMSE1
 70
0
  9
$DIMSE2
 70
0
  9
$DIMTAD
 70
1
  9
$DIMZIN
 70
8
  9
$DIMBLK
  1

  9
$DIMASO
 70
1
  9
$DIMSHO
 70
1
  9
$DIMPOST
  1

  9
$DIMAPOST
  1

  9
$DIMALT
 70
0
  9
$DIMALTD
 70
3
  9
$DIMALTF
 40
0.03937007874
  9
$DIMLFAC
 40
1.0
  9
$DIMTOFL
 70
1
  9
$DIMTVP
 40
0.0
  9
$DIMTIX
 70
0
  9
$DIMSOXD
 70
0
  9
$DIMSAH
 70
0
  9
$DIMBLK1
  1

  9
$DIMBLK2
  1

  9
$DIMSTYLE
  2
ISO-25
  9
$DIMCLRD
 70
0
  9
$DIMCLRE
 70
0
  9
$DIMCLRT
 70
0
  9
$DIMTFAC
 40
1.0
  9
$DIMGAP
 40
0.625
  9
$DIMJUST
 70
0
  9
$DIMSD1
 70
0
  9
$DIMSD2
 70
0
  9
$DIMTOLJ
 70
0
  9
$DIMTZIN
 70
8
  9
$DIMALTZ
 70
0
  9
$DIMALTTZ
 70
0
  9
$DIMUPT
 70
0
  9
$DIMDEC
 70
2
  9
$DIMTDEC
 70
2
  9
$DIMALTU
 70
2
  9
$DIMALTTD
 70
3
  9
$DIMTXSTY
  7
Standard
  9
$DIMAUNIT
 70
0
  9
$DIMADEC
 70
0
  9
$DIMALTRND
 40
0.0
  9
$DIMAZIN
 70
0
  9
$DIMDSEP
 70
44
  9
$DIMATFIT
 70
3
  9
$DIMFRAC
 70
0
  9
$DIMLDRBLK
  1

  9
$DIMLUNIT
 70
2
  9
$DIMLWD
 70
-2
  9
$DIMLWE
 70
-2
  9
$DIMTMOVE
 70
0
  9
$DIMFXL
 40
1.0
  9
$DIMFXLON
 70
0
  9
$DIMJOGANG
 40
0.785398163397
  9
$DIMTFILL
 70
0
  9
$DIMTFILLCLR
 70
0
  9
$DIMARCSYM
 70
0
  9
$DIMLTYPE
  6

  9
$DIMLTEX1
  6

  9
$DIMLTEX2
  6

  9
$DIMTXTDIRECTION
 70
0
  9
$LUNITS
 70
2
  9
$LUPREC
 70
4
  9
$SKETCHINC
 40
1.0
  9
$FILLETRAD
 40
10.0
  9
$AUNITS
 70
0
  9
$AUPREC
 70
2
  9
$MENU
  1
.
  9
$ELEVATION
 40
0.0
  9
$PELEVATION
 40
0.0
  9
$THICKNESS
 40
0.0
  9
$LIMCHECK
 70
0
  9
$CHAMFERA
 40
0.0
  9
$CHAMFERB
 40
0.0
  9
$CHAMFERC
 40
0.0
  9
$CHAMFERD
 40
0.0
  9
$SKPOLY
 70
0
  9
$TDCREATE
 40
2461089.741273148
  9
$TDUCREATE
 40
2458532.153996898
  9
$TDUPDATE
 40
2461089.741273148
  9
$TDUUPDATE
 40
2458532.1544311
  9
$TDINDWG
 40
0.0
  9
$TDUSRTIMER
 40
0.0
  9
$USRTIMER
 70
1
  9
$ANGBASE
 50
0.0
  9
$ANGDIR
 70
0
  9
$PDMODE
 70
0
  9
$PDSIZE
 40
0.0
  9
$PLINEWID
 40
0.0
  9
$SPLFRAME
 70
0
  9
$SPLINETYPE
 70
6
  9
$SPLINESEGS
 70
8
  9
$HANDSEED
  5
BE
  9
$SURFTAB1
 70
6
  9
$SURFTAB2
 70
6
  9
$SURFTYPE
 70
6
  9
$SURFU
 70
6
  9
$SURFV
 70
6
  9
$UCSBASE
  2

  9
$UCSNAME
  2

  9
$UCSORG
 10
0.0
 20
0.0
 30
0.0
  9
$UCSXDIR
 10
1.0
 20
0.0
 30
0.0
  9
$UCSYDIR
 10
0.0
 20
1.0
 30
0.0
  9
$UCSORTHOREF
  2

  9
$UCSORTHOVIEW
 70
0
  9
$UCSORGTOP
 10
0.0
 20
0.0
 30
0.0
  9
$UCSORGBOTTOM
 10
0.0
 20
0.0
 30
0.0
  9
$UCSORGLEFT
 10
0.0
 20
0.0
 30
0.0
  9
$UCSORGRIGHT
 10
0.0
 20
0.0
 30
0.0
  9
$UCSORGFRONT
 10
0.0
 20
0.0
 30
0.0
  9
$UCSORGBACK
 10
0.0
 20
0.0
 30
0.0
  9
$PUCSBASE
  2

  9
$PUCSNAME
  2

  9
$PUCSORG
 10
0.0
 20
0.0
 30
0.0
  9
$PUCSXDIR
 10
1.0
 20
0.0
 30
0.0
  9
$PUCSYDIR
 10
0.0
 20
1.0
 30
0.0
  9
$PUCSORTHOREF
  2

  9
$PUCSORTHOVIEW
 70
0
  9
$PUCSORGTOP
 10
0.0
 20
0.0
 30
0.0
  9
$PUCSORGBOTTOM
 10
0.0
 20
0.0
 30
0.0
  9
$PUCSORGLEFT
 10
0.0
 20
0.0
 30
0.0
  9
$PUCSORGRIGHT
 10
0.0
 20
0.0
 30
0.0
  9
$PUCSORGFRONT
 10
0.0
 20
0.0
 30
0.0
  9
$PUCSORGBACK
 10
0.0
 20
0.0
 30
0.0
  9
$USERI1
 70
0
  9
$USERI2
 70
0
  9
$USERI3
 70
0
  9
$USERI4
 70
0
  9
$USERI5
 70
0
  9
$USERR1
 40
0.0
  9
$USERR2
 40
0.0
  9
$USERR3
 40
0.0
  9
$USERR4
 40
0.0
  9
$USERR5
 40
0.0
  9
$WORLDVIEW
 70
1
  9
$SHADEDGE
 70
3
  9
$SHADEDIF
 70
70
  9
$TILEMODE
 70
1
  9
$MAXACTVP
 70
64
  9
$PINSBASE
 10
0.0
 20
0.0
 30
0.0
  9
$PLIMCHECK
 70
0
  9
$PEXTMIN
 10
1e+20
 20
1e+20
 30
1e+20
  9
$PEXTMAX
 10
-1e+20
 20
-1e+20
 30
-1e+20
  9
$PLIMMIN
 10
0.0
 20
0.0
  9
$PLIMMAX
 10
420.0
 20
297.0
  9
$UNITMODE
 70
0
  9
$VISRETAIN
 70
1
  9
$PLINEGEN
 70
0
  9
$PSLTSCALE
 70
1
  9
$TREEDEPTH
 70
3020
  9
$CMLSTYLE
  2
Standard
  9
$CMLJUST
 70
0
  9
$CMLSCALE
 40
20.0
  9
$PROXYGRAPHICS
 70
1
  9
$MEASUREMENT
 70
1
  9
$CELWEIGHT
370
-1
  9
$ENDCAPS
280
0
  9
$JOINSTYLE
280
0
  9
$LWDISPLAY
290
0
  9
$INSUNITS
 70
4
  9
$HYPERLINKBASE
  1

  9
$STYLESHEET
  1

  9
$XEDIT
290
1
  9
$CEPSNTYPE
380
0
  9
$PSTYLEMODE
290
1
  9
$FINGERPRINTGUID
  2
{C2A300F1-C4E5-410F-888B-D9028003CD44}
  9
$VERSIONGUID
  2
{12E92B1D-5C18-4519-AC80-3AE00194A39A}
  9
$EXTNAMES
290
1
  9
$PSVPSCALE
 40
0.0
  9
$OLESTARTUP
290
0
  9
$SORTENTS
280
127
  9
$INDEXCTL
280
0
  9
$HIDETEXT
280
1
  9
$XCLIPFRAME
280
1
  9
$HALOGAP
280
0
  9
$OBSCOLOR
 70
257
  9
$OBSLTYPE
280
0
  9
$INTERSECTIONDISPLAY
280
0
  9
$INTERSECTIONCOLOR
 70
257
  9
$DIMASSOC
280
2
  9
$PROJECTNAME
  1

  9
$CAMERADISPLAY
290
0
  9
$LENSLENGTH
 40
50.0
  9
$CAMERAHEIGHT
 40
0.0
  9
$STEPSPERSEC
 40
24.0
  9
$STEPSIZE
 40
100.0
  9
$3DDWFPREC
 40
2.0
  9
$PSOLWIDTH
 40
0.005
  9
$PSOLHEIGHT
 40
0.08
  9
$LOFTANG1
 40
1.570796326795
  9
$LOFTANG2
 40
1.570796326795
  9
$LOFTMAG1
 40
0.0
  9
$LOFTMAG2
 40
0.0
  9
$LOFTPARAM
 70
7
  9
$LOFTNORMALS
280
1
  9
$LATITUDE
 40
37.795
  9
$LONGITUDE
 40
-122.394
  9
$NORTHDIRECTION
 40
0.0
  9
$TIMEZONE
 70
-8000
  9
$LIGHTGLYPHDISPLAY
280
1
  9
$TILEMODELIGHTSYNCH
280
1
  9
$CMATERIAL
347
20
  9
$SOLIDHIST
280
0
  9
$SHOWHIST
280
1
  9
$DWFFRAME
280
2
  9
$DGNFRAME
280
2
  9
$REALWORLDSCALE
290
1
  9
$INTERFERECOLOR
 62
256
  9
$CSHADOW
280
0
  9
$SHADOWPLANELOCATION
 40
0.0
  0
ENDSEC
  0
SECTION
  2
CLASSES
  0
CLASS
  1
ACDBDICTIONARYWDFLT
  2
AcDbDictionaryWithDefault
  3
ObjectDBX Classes
 90
0
 91
0
280
0
281
0
  0
CLASS
  1
SUN
  2
AcDbSun
  3
SCENEOE
 90
1153
 91
0
280
0
281
0
  0
CLASS
  1
VISUALSTYLE
  2
AcDbVisualStyle
  3
ObjectDBX Classes
 90
4095
 91
0
280
0
281
0
  0
CLASS
  1
MATERIAL
  2
AcDbMaterial
  3
ObjectDBX Classes
 90
1153
 91
0
280
0
281
0
  0
CLASS
  1
SCALE
  2
AcDbScale
  3
ObjectDBX Classes
 90
1153
 91
0
280
0
281
0
  0
CLASS
  1
TABLESTYLE
  2
AcDbTableStyle
  3
ObjectDBX Classes
 90
4095
 91
0
280
0
281
0
  0
CLASS
  1
MLEADERSTYLE
  2
AcDbMLeaderStyle
  3
ACDB_MLEADERSTYLE_CLASS
 90
4095
 91
0
280
0
281
0
  0
CLASS
  1
DICTIONARYVAR
  2
AcDbDictionaryVar
  3
ObjectDBX Classes
 90
0
 91
0
280
0
281
0
  0
CLASS
  1
CELLSTYLEMAP
  2
AcDbCellStyleMap
  3
ObjectDBX Classes
 90
1152
 91
0
280
0
281
0
  0
CLASS
  1
MENTALRAYRENDERSETTINGS
  2
AcDbMentalRayRenderSettings
  3
SCENEOE
 90
1024
 91
0
280
0
281
0
  0
CLASS
  1
ACDBDETAILVIEWSTYLE
  2
AcDbDetailViewStyle
  3
ObjectDBX Classes
 90
1025
 91
0
280
0
281
0
  0
CLASS
  1
ACDBSECTIONVIEWSTYLE
  2
AcDbSectionViewStyle
  3
ObjectDBX Classes
 90
1025
 91
0
280
0
281
0
  0
CLASS
  1
RASTERVARIABLES
  2
AcDbRasterVariables
  3
ISM
 90
0
 91
0
280
0
281
0
  0
CLASS
  1
LAYOUT
  2
AcDbLayout
  3
ObjectDBX Classes
 90
0
 91
0
280
0
281
0
  0
CLASS
  1
ACDBPLACEHOLDER
  2
AcDbPlaceHolder
  3
ObjectDBX Classes
 90
0
 91
0
280
0
281
0
  0
ENDSEC
  0
SECTION
  2
TABLES
  0
TABLE
  2
VPORT
  5
8
330
0
100
AcDbSymbolTable
 70
1
  0
VPORT
  5
23
330
8
100
AcDbSymbolTableRecord
100
AcDbViewportTableRecord
  2
*Active
 70
0
 10
0.0
 20
0.0
 11
1.0
 21
1.0
 12
0.0
 22
0.0
 13
0.0
 23
0.0
 14
0.5
 24
0.5
 15
0.5
 25
0.5
 16
0.0
 26
0.0
 36
1.0
 17
0.0
 27
0.0
 37
0.0
 40
1000.0
 41
1.34
 42
50.0
 43
0.0
 44
0.0
 50
0.0
 51
0.0
 71
0
 72
1000
 73
1
 74
3
 75
0
 76
0
 77
0
 78
0
281
0
 65
0
146
0.0
  0
ENDTAB
  0
TABLE
  2
LTYPE
  5
2
330
0
100
AcDbSymbolTable
 70
3
  0
LTYPE
  5
24
330
2
100
AcDbSymbolTableRecord
100
AcDbLinetypeTableRecord
  2
ByBlock
 70
0
  3

 72
65
 73
0
 40
0.0
  0
LTYPE
  5
25
330
2
100
AcDbSymbolTableRecord
100
AcDbLinetypeTableRecord
  2
ByLayer
 70
0
  3

 72
65
 73
0
 40
0.0
  0
LTYPE
  5
26
330
2
100
AcDbSymbolTableRecord
100
AcDbLinetypeTableRecord
  2
Continuous
 70
0
  3

 72
65
 73
0
 40
0.0
  0
ENDTAB
  0
TABLE
  2
LAYER
  5
1
330
0
100
AcDbSymbolTable
 70
9
  0
LAYER
  5
27
330
1
100
AcDbSymbolTableRecord
100
AcDbLayerTableRecord
  2
0
 70
0
 62
7
  6
Continuous
370
-3
390
13
347
21
  0
LAYER
  5
28
330
1
100
AcDbSymbolTableRecord
100
AcDbLayerTableRecord
  2
Defpoints
 70
0
 62
7
  6
Continuous
290
0
370
-3
390
13
347
21
  0
LAYER
  5
2F
330
1
100
AcDbSymbolTableRecord
100
AcDbLayerTableRecord
  2
ZONES
 70
0
 62
8
  6
Continuous
370
-3
390
13
347
21
  0
LAYER
  5
30
330
1
100
AcDbSymbolTableRecord
100
AcDbLayerTableRecord
  2
BLOCKS
 70
0
 62
7
  6
Continuous
370
-3
390
13
347
21
  0
LAYER
  5
31
330
1
100
AcDbSymbolTableRecord
100
AcDbLayerTableRecord
  2
WIRES
 70
0
 62
7
  6
Continuous
370
-3
390
13
347
21
  0
LAYER
  5
32
330
1
100
AcDbSymbolTableRecord
100
AcDbLayerTableRecord
  2
TEXT
 70
0
 62
7
  6
Continuous
370
-3
390
13
347
21
  0
LAYER
  5
33
330
1
100
AcDbSymbolTableRecord
100
AcDbLayerTableRecord
  2
WIRE_NUM
 70
0
 62
7
  6
Continuous
370
-3
390
13
347
21
  0
LAYER
  5
34
330
1
100
AcDbSymbolTableRecord
100
AcDbLayerTableRecord
  2
GND
 70
0
 62
7
  6
Continuous
370
-3
390
13
347
21
  0
LAYER
  5
35
330
1
100
AcDbSymbolTableRecord
100
AcDbLayerTableRecord
  2
TITLE
 70
0
 62
7
  6
Continuous
370
-3
390
13
347
21
  0
ENDTAB
  0
TABLE
  2
STYLE
  5
5
330
0
100
AcDbSymbolTable
 70
1
  0
STYLE
  5
29
330
5
100
AcDbSymbolTableRecord
100
AcDbTextStyleTableRecord
  2
Standard
 70
0
 40
0.0
 41
1.0
 50
0.0
 71
0
 42
2.5
  3
txt
  4

  0
ENDTAB
  0
TABLE
  2
VIEW
  5
7
330
0
100
AcDbSymbolTable
 70
0
  0
ENDTAB
  0
TABLE
  2
UCS
  5
6
330
0
100
AcDbSymbolTable
 70
0
  0
ENDTAB
  0
TABLE
  2
APPID
  5
3
330
0
100
AcDbSymbolTable
 70
3
  0
APPID
  5
2A
330
3
100
AcDbSymbolTableRecord
100
AcDbRegAppTableRecord
  2
ACAD
 70
0
  0
APPID
  5
BB
330
3
100
AcDbSymbolTableRecord
100
AcDbRegAppTableRecord
  2
HATCHBACKGROUNDCOLOR
 70
0
  0
APPID
  5
BC
330
3
100
AcDbSymbolTableRecord
100
AcDbRegAppTableRecord
  2
EZDXF
 70
0
  0
ENDTAB
  0
TABLE
  2
DIMSTYLE
  5
4
330
0
100
AcDbSymbolTable
 70
1
100
AcDbDimStyleTable
  0
DIMSTYLE
105
2B
330
4
100
AcDbSymbolTableRecord
100
AcDbDimStyleTableRecord
  2
Standard
 70
0
 40
1.0
 41
2.5
 42
0.625
 43
3.75
 44
1.25
 45
0.0
 46
0.0
 47
0.0
 48
0.0
 49
2.5
140
2.5
141
2.5
142
0.0
143
0.03937007874
144
1.0
145
0.0
146
1.0
147
0.625
148
0.0
 69
0
 70
0
 71
0
 72
0
 73
0
 74
0
 75
0
 76
0
 77
1
 78
8
 79
3
170
0
171
3
172
1
173
0
174
0
175
0
176
0
177
0
178
0
179
2
271
2
272
2
273
2
274
3
275
0
276
0
277
2
278
44
279
0
280
0
281
0
282
0
283
0
284
8
285
0
286
0
288
0
289
3
290
0
371
-2
372
-2
  0
ENDTAB
  0
TABLE
  2
BLOCK_RECORD
  5
9
330
0
100
AcDbSymbolTable
 70
2
  0
BLOCK_RECORD
  5
17
330
9
100
AcDbSymbolTableRecord
100
AcDbBlockTableRecord
  2
*Model_Space
340
1A
 70
0
280
1
281
0
  0
BLOCK_RECORD
  5
1B
330
9
100
AcDbSymbolTableRecord
100
AcDbBlockTableRecord
  2
*Paper_Space
340
1E
 70
0
280
1
281
0
  0
ENDTAB
  0
ENDSEC
  0
SECTION
  2
BLOCKS
  0
BLOCK
  5
18
330
17
100
AcDbEntity
  8
0
100
AcDbBlockBegin
  2
*Model_Space
 70
0
 10
0.0
 20
0.0
 30
0.0
  3
*Model_Space
  1

  0
ENDBLK
  5
19
330
17
100
AcDbEntity
  8
0
100
AcDbBlockEnd
  0
BLOCK
  5
1C
330
1B
100
AcDbEntity
  8
0
100
AcDbBlockBegin
  2
*Paper_Space
 70
0
 10
0.0
 20
0.0
 30
0.0
  3
*Paper_Space
  1

  0
ENDBLK
  5
1D
330
1B
100
AcDbEntity
  8
0
100
AcDbBlockEnd
  0
ENDSEC
  0
SECTION
  2
ENTITIES
  0
TEXT
  5
36
330
17
100
AcDbEntity
  8
TITLE
100
AcDbText
 10
450.0
 20
1280.0
 30
0.0
 40
18.0
  1
Fig.5  Structural scheme of the system
 72
1
 11
450.0
 21
1280.0
 31
0.0
100
AcDbText
  0
TEXT
  5
37
330
17
100
AcDbEntity
  8
TITLE
100
AcDbText
 10
450.0
 20
1260.0
 30
0.0
 40
10.0
  1
DEEPAK K1 - GP Plant, India  |  421457.103E1
 72
1
 11
450.0
 21
1260.0
 31
0.0
100
AcDbText
  0
LWPOLYLINE
  5
38
330
17
100
AcDbEntity
  8
ZONES
  6
DASHED
100
AcDbPolyline
 90
5
 70
1
 10
20.0
 20
620.0
 10
880.0
 20
620.0
 10
880.0
 20
1240.0
 10
20.0
 20
1240.0
 10
20.0
 20
620.0
  0
TEXT
  5
39
330
17
100
AcDbEntity
  8
ZONES
100
AcDbText
 10
60.0
 20
1225.0
 30
0.0
 40
11.0
  1
Technological area
 11
60.0
 21
1225.0
 31
0.0
100
AcDbText
  0
LWPOLYLINE
  5
3A
330
17
100
AcDbEntity
  8
ZONES
  6
DASHED
100
AcDbPolyline
 90
5
 70
1
 10
20.0
 20
20.0
 10
880.0
 20
20.0
 10
880.0
 20
600.0
 10
20.0
 20
600.0
 10
20.0
 20
20.0
  0
TEXT
  5
3B
330
17
100
AcDbEntity
  8
ZONES
100
AcDbText
 10
60.0
 20
30.0
 30
0.0
 40
11.0
  1
Central control room
 11
60.0
 21
30.0
 31
0.0
100
AcDbText
  0
LWPOLYLINE
  5
3C
330
17
100
AcDbEntity
  8
BLOCKS
100
AcDbPolyline
 90
5
 70
1
 10
150.0
 20
1140.0
 10
330.0
 20
1140.0
 10
330.0
 20
1200.0
 10
150.0
 20
1200.0
 10
150.0
 20
1140.0
  0
TEXT
  5
3D
330
17
100
AcDbEntity
  8
TEXT
100
AcDbText
 10
240.0
 20
1170.0
 30
0.0
 40
14.0
  1
S1  Sensor1
 72
1
 11
240.0
 21
1170.0
 31
0.0
100
AcDbText
  0
LWPOLYLINE
  5
3E
330
17
100
AcDbEntity
  8
BLOCKS
100
AcDbPolyline
 90
5
 70
1
 10
570.0
 20
1140.0
 10
750.0
 20
1140.0
 10
750.0
 20
1200.0
 10
570.0
 20
1200.0
 10
570.0
 20
1140.0
  0
TEXT
  5
3F
330
17
100
AcDbEntity
  8
TEXT
100
AcDbText
 10
660.0
 20
1170.0
 30
0.0
 40
14.0
  1
S2  Sensor2
 72
1
 11
660.0
 21
1170.0
 31
0.0
100
AcDbText
  0
LWPOLYLINE
  5
40
330
17
100
AcDbEntity
  8
BLOCKS
100
AcDbPolyline
 90
5
 70
1
 10
150.0
 20
1020.0
 10
330.0
 20
1020.0
 10
330.0
 20
1090.0
 10
150.0
 20
1090.0
 10
150.0
 20
1020.0
  0
TEXT
  5
41
330
17
100
AcDbEntity
  8
TEXT
100
AcDbText
 10
240.0
 20
1065.0
 30
0.0
 40
14.0
  1
Transmitter
 72
1
 11
240.0
 21
1065.0
 31
0.0
100
AcDbText
  0
TEXT
  5
42
330
17
100
AcDbEntity
  8
TEXT
100
AcDbText
 10
240.0
 20
1040.0
 30
0.0
 40
14.0
  1
T1
 72
1
 11
240.0
 21
1040.0
 31
0.0
100
AcDbText
  0
LWPOLYLINE
  5
43
330
17
100
AcDbEntity
  8
BLOCKS
100
AcDbPolyline
 90
5
 70
1
 10
570.0
 20
1020.0
 10
750.0
 20
1020.0
 10
750.0
 20
1090.0
 10
570.0
 20
1090.0
 10
570.0
 20
1020.0
  0
TEXT
  5
44
330
17
100
AcDbEntity
  8
TEXT
100
AcDbText
 10
660.0
 20
1065.0
 30
0.0
 40
14.0
  1
Transmitter
 72
1
 11
660.0
 21
1065.0
 31
0.0
100
AcDbText
  0
TEXT
  5
45
330
17
100
AcDbEntity
  8
TEXT
100
AcDbText
 10
660.0
 20
1040.0
 30
0.0
 40
14.0
  1
T2
 72
1
 11
660.0
 21
1040.0
 31
0.0
100
AcDbText
  0
LINE
  5
46
330
17
100
AcDbEntity
  8
WIRES
100
AcDbLine
 10
240.0
 20
1140.0
 30
0.0
 11
240.0
 21
1090.0
 31
0.0
  0
LWPOLYLINE
  5
47
330
17
100
AcDbEntity
  8
WIRE_NUM
100
AcDbPolyline
 90
5
 70
1
 10
233.0
 20
1110.0
 10
247.0
 20
1110.0
 10
247.0
 20
1120.0
 10
233.0
 20
1120.0
 10
233.0
 20
1110.0
  0
TEXT
  5
48
330
17
100
AcDbEntity
  8
WIRE_NUM
100
AcDbText
 10
240.0
 20
1115.0
 30
0.0
 40
8.0
  1
1
 72
1
 11
240.0
 21
1115.0
 31
0.0
100
AcDbText
  0
TEXT
  5
49
330
17
100
AcDbEntity
  8
WIRE_NUM
100
AcDbText
 10
240.0
 20
1124.0
 30
0.0
 40
7.0
  1
15m
 72
1
 11
240.0
 21
1124.0
 31
0.0
100
AcDbText
  0
LINE
  5
4A
330
17
100
AcDbEntity
  8
WIRES
100
AcDbLine
 10
660.0
 20
1140.0
 30
0.0
 11
660.0
 21
1090.0
 31
0.0
  0
LWPOLYLINE
  5
4B
330
17
100
AcDbEntity
  8
WIRE_NUM
100
AcDbPolyline
 90
5
 70
1
 10
653.0
 20
1110.0
 10
667.0
 20
1110.0
 10
667.0
 20
1120.0
 10
653.0
 20
1120.0
 10
653.0
 20
1110.0
  0
TEXT
  5
4C
330
17
100
AcDbEntity
  8
WIRE_NUM
100
AcDbText
 10
660.0
 20
1115.0
 30
0.0
 40
8.0
  1
2
 72
1
 11
660.0
 21
1115.0
 31
0.0
100
AcDbText
  0
TEXT
  5
4D
330
17
100
AcDbEntity
  8
WIRE_NUM
100
AcDbText
 10
660.0
 20
1124.0
 30
0.0
 40
7.0
  1
15m
 72
1
 11
660.0
 21
1124.0
 31
0.0
100
AcDbText
  0
LINE
  5
4E
330
17
100
AcDbEntity
  8
WIRES
100
AcDbLine
 10
330.0
 20
1055.0
 30
0.0
 11
410.0
 21
1055.0
 31
0.0
  0
LWPOLYLINE
  5
4F
330
17
100
AcDbEntity
  8
WIRE_NUM
100
AcDbPolyline
 90
5
 70
1
 10
363.0
 20
1050.0
 10
377.0
 20
1050.0
 10
377.0
 20
1060.0
 10
363.0
 20
1060.0
 10
363.0
 20
1050.0
  0
TEXT
  5
50
330
17
100
AcDbEntity
  8
WIRE_NUM
100
AcDbText
 10
370.0
 20
1055.0
 30
0.0
 40
8.0
  1
7
 72
1
 11
370.0
 21
1055.0
 31
0.0
100
AcDbText
  0
TEXT
  5
51
330
17
100
AcDbEntity
  8
WIRE_NUM
100
AcDbText
 10
370.0
 20
1064.0
 30
0.0
 40
7.0
  1
50m
 72
1
 11
370.0
 21
1064.0
 31
0.0
100
AcDbText
  0
LINE
  5
52
330
17
100
AcDbEntity
  8
GND
100
AcDbLine
 10
410.0
 20
1050.0
 30
0.0
 11
410.0
 21
1060.0
 31
0.0
  0
LINE
  5
53
330
17
100
AcDbEntity
  8
GND
100
AcDbLine
 10
413.0
 20
1051.5
 30
0.0
 11
413.0
 21
1058.5
 31
0.0
  0
LINE
  5
54
330
17
100
AcDbEntity
  8
GND
100
AcDbLine
 10
416.0
 20
1053.0
 30
0.0
 11
416.0
 21
1057.0
 31
0.0
  0
LINE
  5
55
330
17
100
AcDbEntity
  8
WIRES
100
AcDbLine
 10
750.0
 20
1055.0
 30
0.0
 11
830.0
 21
1055.0
 31
0.0
  0
LWPOLYLINE
  5
56
330
17
100
AcDbEntity
  8
WIRE_NUM
100
AcDbPolyline
 90
5
 70
1
 10
783.0
 20
1050.0
 10
797.0
 20
1050.0
 10
797.0
 20
1060.0
 10
783.0
 20
1060.0
 10
783.0
 20
1050.0
  0
TEXT
  5
57
330
17
100
AcDbEntity
  8
WIRE_NUM
100
AcDbText
 10
790.0
 20
1055.0
 30
0.0
 40
8.0
  1
8
 72
1
 11
790.0
 21
1055.0
 31
0.0
100
AcDbText
  0
TEXT
  5
58
330
17
100
AcDbEntity
  8
WIRE_NUM
100
AcDbText
 10
790.0
 20
1064.0
 30
0.0
 40
7.0
  1
50m
 72
1
 11
790.0
 21
1064.0
 31
0.0
100
AcDbText
  0
LINE
  5
59
330
17
100
AcDbEntity
  8
GND
100
AcDbLine
 10
830.0
 20
1050.0
 30
0.0
 11
830.0
 21
1060.0
 31
0.0
  0
LINE
  5
5A
330
17
100
AcDbEntity
  8
GND
100
AcDbLine
 10
833.0
 20
1051.5
 30
0.0
 11
833.0
 21
1058.5
 31
0.0
  0
LINE
  5
5B
330
17
100
AcDbEntity
  8
GND
100
AcDbLine
 10
836.0
 20
1053.0
 30
0.0
 11
836.0
 21
1057.0
 31
0.0
  0
LWPOLYLINE
  5
5C
330
17
100
AcDbEntity
  8
BLOCKS
100
AcDbPolyline
 90
5
 70
1
 10
120.0
 20
780.0
 10
500.0
 20
780.0
 10
500.0
 20
980.0
 10
120.0
 20
980.0
 10
120.0
 20
780.0
  0
TEXT
  5
5D
330
17
100
AcDbEntity
  8
TEXT
100
AcDbText
 10
310.0
 20
960.0
 30
0.0
 40
14.0
  1
Connection box
 72
1
 11
310.0
 21
960.0
 31
0.0
100
AcDbText
  0
LINE
  5
5E
330
17
100
AcDbEntity
  8
WIRES
100
AcDbLine
 10
310.0
 20
800.0
 30
0.0
 11
310.0
 21
945.0
 31
0.0
  0
TEXT
  5
5F
330
17
100
AcDbEntity
  8
TEXT
100
AcDbText
 10
215.0
 20
930.0
 30
0.0
 40
9.0
  1
POWER
 72
1
 11
215.0
 21
930.0
 31
0.0
100
AcDbText
  0
TEXT
  5
60
330
17
100
AcDbEntity
  8
TEXT
100
AcDbText
 10
215.0
 20
912.0
 30
0.0
 40
7.0
  1
1  24VDC+
 72
1
 11
215.0
 21
912.0
 31
0.0
100
AcDbText
  0
TEXT
  5
61
330
17
100
AcDbEntity
  8
TEXT
100
AcDbText
 10
215.0
 20
898.0
 30
0.0
 40
7.0
  1
2  24VDC-
 72
1
 11
215.0
 21
898.0
 31
0.0
100
AcDbText
  0
TEXT
  5
62
330
17
100
AcDbEntity
  8
TEXT
100
AcDbText
 10
215.0
 20
884.0
 30
0.0
 40
7.0
  1
3  24VDC+
 72
1
 11
215.0
 21
884.0
 31
0.0
100
AcDbText
  0
TEXT
  5
63
330
17
100
AcDbEntity
  8
TEXT
100
AcDbText
 10
215.0
 20
870.0
 30
0.0
 40
7.0
  1
4  24VDC-
 72
1
 11
215.0
 21
870.0
 31
0.0
100
AcDbText
  0
TEXT
  5
64
330
17
100
AcDbEntity
  8
TEXT
100
AcDbText
 10
405.0
 20
930.0
 30
0.0
 40
9.0
  1
RS-485
 72
1
 11
405.0
 21
930.0
 31
0.0
100
AcDbText
  0
TEXT
  5
65
330
17
100
AcDbEntity
  8
TEXT
100
AcDbText
 10
405.0
 20
912.0
 30
0.0
 40
7.0
  1
5  Data+
 72
1
 11
405.0
 21
912.0
 31
0.0
100
AcDbText
  0
TEXT
  5
66
330
17
100
AcDbEntity
  8
TEXT
100
AcDbText
 10
405.0
 20
898.0
 30
0.0
 40
7.0
  1
6  Data-
 72
1
 11
405.0
 21
898.0
 31
0.0
100
AcDbText
  0
TEXT
  5
67
330
17
100
AcDbEntity
  8
TEXT
100
AcDbText
 10
405.0
 20
884.0
 30
0.0
 40
7.0
  1
7  Data+
 72
1
 11
405.0
 21
884.0
 31
0.0
100
AcDbText
  0
TEXT
  5
68
330
17
100
AcDbEntity
  8
TEXT
100
AcDbText
 10
405.0
 20
870.0
 30
0.0
 40
7.0
  1
8  Data-
 72
1
 11
405.0
 21
870.0
 31
0.0
100
AcDbText
  0
LINE
  5
69
330
17
100
AcDbEntity
  8
WIRES
100
AcDbLine
 10
200.0
 20
980.0
 30
0.0
 11
200.0
 21
1020.0
 31
0.0
  0
LWPOLYLINE
  5
6A
330
17
100
AcDbEntity
  8
WIRE_NUM
100
AcDbPolyline
 90
5
 70
1
 10
193.0
 20
995.0
 10
207.0
 20
995.0
 10
207.0
 20
1005.0
 10
193.0
 20
1005.0
 10
193.0
 20
995.0
  0
TEXT
  5
6B
330
17
100
AcDbEntity
  8
WIRE_NUM
100
AcDbText
 10
200.0
 20
1000.0
 30
0.0
 40
8.0
  1
3
 72
1
 11
200.0
 21
1000.0
 31
0.0
100
AcDbText
  0
TEXT
  5
6C
330
17
100
AcDbEntity
  8
TEXT
100
AcDbText
 10
165.0
 20
1005.0
 30
0.0
 40
7.0
  1
15m
 72
1
 11
165.0
 21
1005.0
 31
0.0
100
AcDbText
  0
TEXT
  5
6D
330
17
100
AcDbEntity
  8
TEXT
100
AcDbText
 10
145.0
 20
1015.0
 30
0.0
 40
7.0
  1
24VDC/
 72
1
 11
145.0
 21
1015.0
 31
0.0
100
AcDbText
  0
TEXT
  5
6E
330
17
100
AcDbEntity
  8
TEXT
100
AcDbText
 10
145.0
 20
1003.0
 30
0.0
 40
7.0
  1
RS485
 72
1
 11
145.0
 21
1003.0
 31
0.0
100
AcDbText
  0
LWPOLYLINE
  5
6F
330
17
100
AcDbEntity
  8
WIRES
100
AcDbPolyline
 90
4
 70
0
 10
500.0
 20
860.0
 10
540.0
 20
860.0
 10
600.0
 20
860.0
 10
600.0
 20
1020.0
  0
LWPOLYLINE
  5
70
330
17
100
AcDbEntity
  8
WIRE_NUM
100
AcDbPolyline
 90
5
 70
1
 10
533.0
 20
855.0
 10
547.0
 20
855.0
 10
547.0
 20
865.0
 10
533.0
 20
865.0
 10
533.0
 20
855.0
  0
TEXT
  5
71
330
17
100
AcDbEntity
  8
WIRE_NUM
100
AcDbText
 10
540.0
 20
860.0
 30
0.0
 40
8.0
  1
4
 72
1
 11
540.0
 21
860.0
 31
0.0
100
AcDbText
  0
TEXT
  5
72
330
17
100
AcDbEntity
  8
WIRE_NUM
100
AcDbText
 10
540.0
 20
869.0
 30
0.0
 40
7.0
  1
15m
 72
1
 11
540.0
 21
869.0
 31
0.0
100
AcDbText
  0
TEXT
  5
73
330
17
100
AcDbEntity
  8
TEXT
100
AcDbText
 10
620.0
 20
940.0
 30
0.0
 40
7.0
  1
24VDC/
 72
1
 11
620.0
 21
940.0
 31
0.0
100
AcDbText
  0
TEXT
  5
74
330
17
100
AcDbEntity
  8
TEXT
100
AcDbText
 10
620.0
 20
928.0
 30
0.0
 40
7.0
  1
RS485
 72
1
 11
620.0
 21
928.0
 31
0.0
100
AcDbText
  0
LINE
  5
75
330
17
100
AcDbEntity
  8
WIRES
100
AcDbLine
 10
275.0
 20
1020.0
 30
0.0
 11
275.0
 21
620.0
 31
0.0
  0
LINE
  5
76
330
17
100
AcDbEntity
  8
WIRES
100
AcDbLine
 10
275.0
 20
600.0
 30
0.0
 11
275.0
 21
440.0
 31
0.0
  0
LWPOLYLINE
  5
77
330
17
100
AcDbEntity
  8
WIRE_NUM
100
AcDbPolyline
 90
5
 70
1
 10
268.0
 20
525.0
 10
282.0
 20
525.0
 10
282.0
 20
535.0
 10
268.0
 20
535.0
 10
268.0
 20
525.0
  0
TEXT
  5
78
330
17
100
AcDbEntity
  8
WIRE_NUM
100
AcDbText
 10
275.0
 20
530.0
 30
0.0
 40
8.0
  1
5
 72
1
 11
275.0
 21
530.0
 31
0.0
100
AcDbText
  0
TEXT
  5
79
330
17
100
AcDbEntity
  8
WIRE_NUM
100
AcDbText
 10
275.0
 20
539.0
 30
0.0
 40
7.0
  1
200m
 72
1
 11
275.0
 21
539.0
 31
0.0
100
AcDbText
  0
TEXT
  5
7A
330
17
100
AcDbEntity
  8
TEXT
100
AcDbText
 10
295.0
 20
1000.0
 30
0.0
 40
7.0
  1
4-20mA
 11
295.0
 21
1000.0
 31
0.0
100
AcDbText
  0
LWPOLYLINE
  5
7B
330
17
100
AcDbEntity
  8
WIRES
100
AcDbPolyline
 90
4
 70
0
 10
700.0
 20
1020.0
 10
700.0
 20
1005.0
 10
320.0
 20
1005.0
 10
320.0
 20
620.0
  0
LINE
  5
7C
330
17
100
AcDbEntity
  8
WIRES
100
AcDbLine
 10
320.0
 20
600.0
 30
0.0
 11
320.0
 21
440.0
 31
0.0
  0
LWPOLYLINE
  5
7D
330
17
100
AcDbEntity
  8
WIRE_NUM
100
AcDbPolyline
 90
5
 70
1
 10
313.0
 20
525.0
 10
327.0
 20
525.0
 10
327.0
 20
535.0
 10
313.0
 20
535.0
 10
313.0
 20
525.0
  0
TEXT
  5
7E
330
17
100
AcDbEntity
  8
WIRE_NUM
100
AcDbText
 10
320.0
 20
530.0
 30
0.0
 40
8.0
  1
6
 72
1
 11
320.0
 21
530.0
 31
0.0
100
AcDbText
  0
TEXT
  5
7F
330
17
100
AcDbEntity
  8
WIRE_NUM
100
AcDbText
 10
320.0
 20
539.0
 30
0.0
 40
7.0
  1
200m
 72
1
 11
320.0
 21
539.0
 31
0.0
100
AcDbText
  0
TEXT
  5
80
330
17
100
AcDbEntity
  8
TEXT
100
AcDbText
 10
510.0
 20
1012.0
 30
0.0
 40
7.0
  1
4-20mA
 72
1
 11
510.0
 21
1012.0
 31
0.0
100
AcDbText
  0
LWPOLYLINE
  5
81
330
17
100
AcDbEntity
  8
WIRES
100
AcDbPolyline
 90
2
 70
0
 10
380.0
 20
780.0
 10
380.0
 20
620.0
  0
LWPOLYLINE
  5
82
330
17
100
AcDbEntity
  8
WIRES
100
AcDbPolyline
 90
4
 70
0
 10
380.0
 20
600.0
 10
380.0
 20
460.0
 10
520.0
 20
460.0
 10
520.0
 20
430.0
  0
LWPOLYLINE
  5
83
330
17
100
AcDbEntity
  8
WIRE_NUM
100
AcDbPolyline
 90
5
 70
1
 10
373.0
 20
525.0
 10
387.0
 20
525.0
 10
387.0
 20
535.0
 10
373.0
 20
535.0
 10
373.0
 20
525.0
  0
TEXT
  5
84
330
17
100
AcDbEntity
  8
WIRE_NUM
100
AcDbText
 10
380.0
 20
530.0
 30
0.0
 40
8.0
  1
9
 72
1
 11
380.0
 21
530.0
 31
0.0
100
AcDbText
  0
TEXT
  5
85
330
17
100
AcDbEntity
  8
WIRE_NUM
100
AcDbText
 10
380.0
 20
539.0
 30
0.0
 40
7.0
  1
250m
 72
1
 11
380.0
 21
539.0
 31
0.0
100
AcDbText
  0
TEXT
  5
86
330
17
100
AcDbEntity
  8
TEXT
100
AcDbText
 10
360.0
 20
490.0
 30
0.0
 40
7.0
  1
24VDC/RS485
 72
2
 11
360.0
 21
490.0
 31
0.0
100
AcDbText
  0
LWPOLYLINE
  5
87
330
17
100
AcDbEntity
  8
BLOCKS
100
AcDbPolyline
 90
5
 70
1
 10
80.0
 20
390.0
 10
460.0
 20
390.0
 10
460.0
 20
440.0
 10
80.0
 20
440.0
 10
80.0
 20
390.0
  0
TEXT
  5
88
330
17
100
AcDbEntity
  8
TEXT
100
AcDbText
 10
110.0
 20
415.0
 30
0.0
 40
5.5
  1
4-20mA
 72
1
 11
110.0
 21
415.0
 31
0.0
100
AcDbText
  0
TEXT
  5
89
330
17
100
AcDbEntity
  8
TEXT
100
AcDbText
 10
148.0
 20
415.0
 30
0.0
 40
5.5
  1
T1 Pot+
 72
1
 11
148.0
 21
415.0
 31
0.0
100
AcDbText
  0
TEXT
  5
8A
330
17
100
AcDbEntity
  8
TEXT
100
AcDbText
 10
186.0
 20
415.0
 30
0.0
 40
5.5
  1
T1 Pot-
 72
1
 11
186.0
 21
415.0
 31
0.0
100
AcDbText
  0
TEXT
  5
8B
330
17
100
AcDbEntity
  8
TEXT
100
AcDbText
 10
224.0
 20
415.0
 30
0.0
 40
5.5
  1
T1 pH+
 72
1
 11
224.0
 21
415.0
 31
0.0
100
AcDbText
  0
TEXT
  5
8C
330
17
100
AcDbEntity
  8
TEXT
100
AcDbText
 10
262.0
 20
415.0
 30
0.0
 40
5.5
  1
T1 pH-
 72
1
 11
262.0
 21
415.0
 31
0.0
100
AcDbText
  0
TEXT
  5
8D
330
17
100
AcDbEntity
  8
TEXT
100
AcDbText
 10
300.0
 20
415.0
 30
0.0
 40
5.5
  1
T2 Pot+
 72
1
 11
300.0
 21
415.0
 31
0.0
100
AcDbText
  0
TEXT
  5
8E
330
17
100
AcDbEntity
  8
TEXT
100
AcDbText
 10
338.0
 20
415.0
 30
0.0
 40
5.5
  1
T2 Pot-
 72
1
 11
338.0
 21
415.0
 31
0.0
100
AcDbText
  0
TEXT
  5
8F
330
17
100
AcDbEntity
  8
TEXT
100
AcDbText
 10
376.0
 20
415.0
 30
0.0
 40
5.5
  1
T2 pH+
 72
1
 11
376.0
 21
415.0
 31
0.0
100
AcDbText
  0
TEXT
  5
90
330
17
100
AcDbEntity
  8
TEXT
100
AcDbText
 10
414.0
 20
415.0
 30
0.0
 40
5.5
  1
T2 pH-
 72
1
 11
414.0
 21
415.0
 31
0.0
100
AcDbText
  0
LWPOLYLINE
  5
91
330
17
100
AcDbEntity
  8
BLOCKS
100
AcDbPolyline
 90
5
 70
1
 10
80.0
 20
250.0
 10
360.0
 20
250.0
 10
360.0
 20
350.0
 10
80.0
 20
350.0
 10
80.0
 20
250.0
  0
TEXT
  5
92
330
17
100
AcDbEntity
  8
TEXT
100
AcDbText
 10
220.0
 20
315.0
 30
0.0
 40
14.0
  1
DCS
 72
1
 11
220.0
 21
315.0
 31
0.0
100
AcDbText
  0
TEXT
  5
93
330
17
100
AcDbEntity
  8
TEXT
100
AcDbText
 10
220.0
 20
290.0
 30
0.0
 40
14.0
  1
K-1 GP Plant
 72
1
 11
220.0
 21
290.0
 31
0.0
100
AcDbText
  0
LINE
  5
94
330
17
100
AcDbEntity
  8
WIRES
100
AcDbLine
 10
220.0
 20
390.0
 30
0.0
 11
220.0
 21
350.0
 31
0.0
  0
TEXT
  5
95
330
17
100
AcDbEntity
  8
TEXT
100
AcDbText
 10
385.0
 20
310.0
 30
0.0
 40
7.0
  1
230VAC
 72
1
 11
385.0
 21
310.0
 31
0.0
100
AcDbText
  0
TEXT
  5
96
330
17
100
AcDbEntity
  8
TEXT
100
AcDbText
 10
385.0
 20
295.0
 30
0.0
 40
7.0
  1
1.5A
 72
1
 11
385.0
 21
295.0
 31
0.0
100
AcDbText
  0
LWPOLYLINE
  5
97
330
17
100
AcDbEntity
  8
BLOCKS
100
AcDbPolyline
 90
5
 70
1
 10
500.0
 20
340.0
 10
700.0
 20
340.0
 10
700.0
 20
430.0
 10
500.0
 20
430.0
 10
500.0
 20
340.0
  0
TEXT
  5
98
330
17
100
AcDbEntity
  8
TEXT
100
AcDbText
 10
600.0
 20
395.0
 30
0.0
 40
14.0
  1
SCADA Ekor Box
 72
1
 11
600.0
 21
395.0
 31
0.0
100
AcDbText
  0
TEXT
  5
99
330
17
100
AcDbEntity
  8
TEXT
100
AcDbText
 10
600.0
 20
370.0
 30
0.0
 40
9.0
  1
24VDC output
 72
1
 11
600.0
 21
370.0
 31
0.0
100
AcDbText
  0
LWPOLYLINE
  5
9A
330
17
100
AcDbEntity
  8
BLOCKS
100
AcDbPolyline
 90
5
 70
1
 10
510.0
 20
220.0
 10
620.0
 20
220.0
 10
620.0
 20
265.0
 10
510.0
 20
265.0
 10
510.0
 20
220.0
  0
TEXT
  5
9B
330
17
100
AcDbEntity
  8
TEXT
100
AcDbText
 10
565.0
 20
242.0
 30
0.0
 40
9.0
  1
Socket
 72
1
 11
565.0
 21
242.0
 31
0.0
100
AcDbText
  0
LINE
  5
9C
330
17
100
AcDbEntity
  8
WIRES
100
AcDbLine
 10
565.0
 20
265.0
 30
0.0
 11
565.0
 21
340.0
 31
0.0
  0
LWPOLYLINE
  5
9D
330
17
100
AcDbEntity
  8
WIRE_NUM
100
AcDbPolyline
 90
5
 70
1
 10
535.0
 20
295.0
 10
549.0
 20
295.0
 10
549.0
 20
305.0
 10
535.0
 20
305.0
 10
535.0
 20
295.0
  0
TEXT
  5
9E
330
17
100
AcDbEntity
  8
WIRE_NUM
100
AcDbText
 10
542.0
 20
300.0
 30
0.0
 40
8.0
  1
10
 72
1
 11
542.0
 21
300.0
 31
0.0
100
AcDbText
  0
TEXT
  5
9F
330
17
100
AcDbEntity
  8
TEXT
100
AcDbText
 10
520.0
 20
310.0
 30
0.0
 40
7.0
  1
100m
 72
2
 11
520.0
 21
310.0
 31
0.0
100
AcDbText
  0
TEXT
  5
A0
330
17
100
AcDbEntity
  8
TEXT
100
AcDbText
 10
520.0
 20
295.0
 30
0.0
 40
7.0
  1
230VAC
 72
2
 11
520.0
 21
295.0
 31
0.0
100
AcDbText
  0
LINE
  5
A1
330
17
100
AcDbEntity
  8
WIRES
100
AcDbLine
 10
700.0
 20
385.0
 30
0.0
 11
770.0
 21
385.0
 31
0.0
  0
LWPOLYLINE
  5
A2
330
17
100
AcDbEntity
  8
WIRE_NUM
100
AcDbPolyline
 90
5
 70
1
 10
728.0
 20
380.0
 10
742.0
 20
380.0
 10
742.0
 20
390.0
 10
728.0
 20
390.0
 10
728.0
 20
380.0
  0
TEXT
  5
A3
330
17
100
AcDbEntity
  8
WIRE_NUM
100
AcDbText
 10
735.0
 20
385.0
 30
0.0
 40
8.0
  1
11
 72
1
 11
735.0
 21
385.0
 31
0.0
100
AcDbText
  0
TEXT
  5
A4
330
17
100
AcDbEntity
  8
WIRE_NUM
100
AcDbText
 10
735.0
 20
394.0
 30
0.0
 40
7.0
  1
3m
 72
1
 11
735.0
 21
394.0
 31
0.0
100
AcDbText
  0
TEXT
  5
A5
330
17
100
AcDbEntity
  8
TEXT
100
AcDbText
 10
780.0
 20
385.0
 30
0.0
 40
7.0
  1
24VDC
 11
780.0
 21
385.0
 31
0.0
100
AcDbText
  0
LWPOLYLINE
  5
A6
330
17
100
AcDbEntity
  8
BLOCKS
100
AcDbPolyline
 90
5
 70
1
 10
500.0
 20
140.0
 10
700.0
 20
140.0
 10
700.0
 20
210.0
 10
500.0
 20
210.0
 10
500.0
 20
140.0
  0
TEXT
  5
A7
330
17
100
AcDbEntity
  8
TEXT
100
AcDbText
 10
600.0
 20
185.0
 30
0.0
 40
14.0
  1
Oper. panel
 72
1
 11
600.0
 21
185.0
 31
0.0
100
AcDbText
  0
TEXT
  5
A8
330
17
100
AcDbEntity
  8
TEXT
100
AcDbText
 10
600.0
 20
160.0
 30
0.0
 40
9.0
  1
(display)
 72
1
 11
600.0
 21
160.0
 31
0.0
100
AcDbText
  0
LINE
  5
A9
330
17
100
AcDbEntity
  8
WIRES
100
AcDbLine
 10
600.0
 20
340.0
 30
0.0
 11
600.0
 21
210.0
 31
0.0
  0
TEXT
  5
AA
330
17
100
AcDbEntity
  8
TEXT
100
AcDbText
 10
615.0
 20
275.0
 30
0.0
 40
7.0
  1
RS485
 11
615.0
 21
275.0
 31
0.0
100
AcDbText
  0
LWPOLYLINE
  5
AB
330
17
100
AcDbEntity
  8
BLOCKS
100
AcDbPolyline
 90
5
 70
1
 10
540.0
 20
55.0
 10
650.0
 20
55.0
 10
650.0
 20
95.0
 10
540.0
 20
95.0
 10
540.0
 20
55.0
  0
TEXT
  5
AC
330
17
100
AcDbEntity
  8
TEXT
100
AcDbText
 10
595.0
 20
75.0
 30
0.0
 40
9.0
  1
Mouse
 72
1
 11
595.0
 21
75.0
 31
0.0
100
AcDbText
  0
LINE
  5
AD
330
17
100
AcDbEntity
  8
WIRES
100
AcDbLine
 10
595.0
 20
140.0
 30
0.0
 11
595.0
 21
95.0
 31
0.0
  0
LWPOLYLINE
  5
AE
330
17
100
AcDbEntity
  8
BLOCKS
100
AcDbPolyline
 90
5
 70
1
 10
740.0
 20
250.0
 10
860.0
 20
250.0
 10
860.0
 20
320.0
 10
740.0
 20
320.0
 10
740.0
 20
250.0
  0
TEXT
  5
AF
330
17
100
AcDbEntity
  8
TEXT
100
AcDbText
 10
800.0
 20
298.0
 30
0.0
 40
14.0
  1
LCD
 72
1
 11
800.0
 21
298.0
 31
0.0
100
AcDbText
  0
TEXT
  5
B0
330
17
100
AcDbEntity
  8
TEXT
100
AcDbText
 10
800.0
 20
275.0
 30
0.0
 40
14.0
  1
Monitor
 72
1
 11
800.0
 21
275.0
 31
0.0
100
AcDbText
  0
LWPOLYLINE
  5
B1
330
17
100
AcDbEntity
  8
WIRES
100
AcDbPolyline
 90
3
 70
0
 10
700.0
 20
175.0
 10
800.0
 20
175.0
 10
800.0
 20
250.0
  0
LWPOLYLINE
  5
B2
330
17
100
AcDbEntity
  8
WIRE_NUM
100
AcDbPolyline
 90
5
 70
1
 10
793.0
 20
205.0
 10
807.0
 20
205.0
 10
807.0
 20
215.0
 10
793.0
 20
215.0
 10
793.0
 20
205.0
  0
TEXT
  5
B3
330
17
100
AcDbEntity
  8
WIRE_NUM
100
AcDbText
 10
800.0
 20
210.0
 30
0.0
 40
8.0
  1
12
 72
1
 11
800.0
 21
210.0
 31
0.0
100
AcDbText
  0
TEXT
  5
B4
330
17
100
AcDbEntity
  8
WIRE_NUM
100
AcDbText
 10
800.0
 20
219.0
 30
0.0
 40
7.0
  1
3m
 72
1
 11
800.0
 21
219.0
 31
0.0
100
AcDbText
  0
TEXT
  5
B5
330
17
100
AcDbEntity
  8
TEXT
100
AcDbText
 10
760.0
 20
165.0
 30
0.0
 40
7.0
  1
HDMI
 72
1
 11
760.0
 21
165.0
 31
0.0
100
AcDbText
  0
TEXT
  5
B6
330
17
100
AcDbEntity
  8
TEXT
100
AcDbText
 10
30.0
 20
-10.0
 30
0.0
 40
7.0
  1
Wires 1,2 - type 4x1.0 mm2 with shield (Ekor)
 11
30.0
 21
-10.0
 31
0.0
100
AcDbText
  0
TEXT
  5
B7
330
17
100
AcDbEntity
  8
TEXT
100
AcDbText
 10
30.0
 20
-22.0
 30
0.0
 40
7.0
  1
Wires 5,6 - type 2pair x1.5 mm2 with shield (K-1 GP Plant)
 11
30.0
 21
-22.0
 31
0.0
100
AcDbText
  0
TEXT
  5
B8
330
17
100
AcDbEntity
  8
TEXT
100
AcDbText
 10
30.0
 20
-34.0
 30
0.0
 40
7.0
  1
Wires 3,4,9 - type 2pair x1.5 mm2 twisted pair (K-1 GP Plant)
 11
30.0
 21
-34.0
 31
0.0
100
AcDbText
  0
TEXT
  5
B9
330
17
100
AcDbEntity
  8
TEXT
100
AcDbText
 10
30.0
 20
-46.0
 30
0.0
 40
7.0
  1
Wires 7,8 - type 1Cx2.5 mm2 grounding wire YG (K-1 GP Plant)
 11
30.0
 21
-46.0
 31
0.0
100
AcDbText
  0
TEXT
  5
BA
330
17
100
AcDbEntity
  8
TEXT
100
AcDbText
 10
30.0
 20
-58.0
 30
0.0
 40
7.0
  1
Wire 10 - 3Corex2.5 mm2 (K-1)   Wire 11 - 3x0.75 mm2 (Ekor)   Wire 12 - HDMI (Ekor)
 11
30.0
 21
-58.0
 31
0.0
100
AcDbText
  0
ENDSEC
  0
SECTION
  2
OBJECTS
  0
DICTIONARY
  5
A
330
0
100
AcDbDictionary
281
1
  3
ACAD_COLOR
350
B
  3
ACAD_GROUP
350
C
  3
ACAD_LAYOUT
350
D
  3
ACAD_MATERIAL
350
E
  3
ACAD_MLEADERSTYLE
350
F
  3
ACAD_MLINESTYLE
350
10
  3
ACAD_PLOTSETTINGS
350
11
  3
ACAD_PLOTSTYLENAME
350
12
  3
ACAD_SCALELIST
350
14
  3
ACAD_TABLESTYLE
350
15
  3
ACAD_VISUALSTYLE
350
16
  3
EZDXF_META
350
2D
  0
DICTIONARY
  5
B
330
A
100
AcDbDictionary
281
1
  0
DICTIONARY
  5
C
330
A
100
AcDbDictionary
281
1
  0
DICTIONARY
  5
D
330
A
100
AcDbDictionary
281
1
  3
Model
350
1A
  3
Layout1
350
1E
  0
DICTIONARY
  5
E
330
A
100
AcDbDictionary
281
1
  3
ByBlock
350
1F
  3
ByLayer
350
20
  3
Global
350
21
  0
DICTIONARY
  5
F
330
A
100
AcDbDictionary
281
1
  3
Standard
350
2C
  0
DICTIONARY
  5
10
330
A
100
AcDbDictionary
281
1
  3
Standard
350
22
  0
DICTIONARY
  5
11
330
A
100
AcDbDictionary
281
1
  0
ACDBDICTIONARYWDFLT
  5
12
330
A
100
AcDbDictionary
281
1
  3
Normal
350
13
100
AcDbDictionaryWithDefault
340
13
  0
ACDBPLACEHOLDER
  5
13
330
12
  0
DICTIONARY
  5
14
330
A
100
AcDbDictionary
281
1
  0
DICTIONARY
  5
15
330
A
100
AcDbDictionary
281
1
  0
DICTIONARY
  5
16
330
A
100
AcDbDictionary
281
1
  0
LAYOUT
  5
1A
330
D
100
AcDbPlotSettings
  1

  4
A3
  6

 40
7.5
 41
20.0
 42
7.5
 43
20.0
 44
420.0
 45
297.0
 46
0.0
 47
0.0
 48
0.0
 49
0.0
140
0.0
141
0.0
142
1.0
143
1.0
 70
1024
 72
1
 73
0
 74
5
  7

 75
16
 76
0
 77
2
 78
300
147
1.0
148
0.0
149
0.0
100
AcDbLayout
  1
Model
 70
1
 71
0
 10
0.0
 20
0.0
 11
420.0
 21
297.0
 12
0.0
 22
0.0
 32
0.0
 14
1e+20
 24
1e+20
 34
1e+20
 15
-1e+20
 25
-1e+20
 35
-1e+20
146
0.0
 13
0.0
 23
0.0
 33
0.0
 16
1.0
 26
0.0
 36
0.0
 17
0.0
 27
1.0
 37
0.0
 76
1
330
17
  0
LAYOUT
  5
1E
330
D
100
AcDbPlotSettings
  1

  4
A3
  6

 40
7.5
 41
20.0
 42
7.5
 43
20.0
 44
420.0
 45
297.0
 46
0.0
 47
0.0
 48
0.0
 49
0.0
140
0.0
141
0.0
142
1.0
143
1.0
 70
0
 72
1
 73
0
 74
5
  7

 75
16
 76
0
 77
2
 78
300
147
1.0
148
0.0
149
0.0
100
AcDbLayout
  1
Layout1
 70
1
 71
1
 10
0.0
 20
0.0
 11
420.0
 21
297.0
 12
0.0
 22
0.0
 32
0.0
 14
1e+20
 24
1e+20
 34
1e+20
 15
-1e+20
 25
-1e+20
 35
-1e+20
146
0.0
 13
0.0
 23
0.0
 33
0.0
 16
1.0
 26
0.0
 36
0.0
 17
0.0
 27
1.0
 37
0.0
 76
1
330
1B
  0
MATERIAL
  5
1F
102
{ACAD_REACTORS
330
E
102
}
330
E
100
AcDbMaterial
  1
ByBlock
  2

 70
0
 40
1.0
 71
1
 41
1.0
 91
-1023410177
 42
1.0
 72
1
  3

 73
1
 74
1
 75
1
 44
0.5
 73
0
 45
1.0
 46
1.0
 77
1
  4

 78
1
 79
1
170
1
 48
1.0
171
1
  6

172
1
173
1
174
1
140
1.0
141
1.0
175
1
  7

176
1
177
1
178
1
143
1.0
179
1
  8

270
1
271
1
272
1
145
1.0
146
1.0
273
1
  9

274
1
275
1
276
1
 42
1.0
 72
1
  3

 73
1
 74
1
 75
1
 94
63
  0
MATERIAL
  5
20
102
{ACAD_REACTORS
330
E
102
}
330
E
100
AcDbMaterial
  1
ByLayer
  2

 70
0
 40
1.0
 71
1
 41
1.0
 91
-1023410177
 42
1.0
 72
1
  3

 73
1
 74
1
 75
1
 44
0.5
 73
0
 45
1.0
 46
1.0
 77
1
  4

 78
1
 79
1
170
1
 48
1.0
171
1
  6

172
1
173
1
174
1
140
1.0
141
1.0
175
1
  7

176
1
177
1
178
1
143
1.0
179
1
  8

270
1
271
1
272
1
145
1.0
146
1.0
273
1
  9

274
1
275
1
276
1
 42
1.0
 72
1
  3

 73
1
 74
1
 75
1
 94
63
  0
MATERIAL
  5
21
102
{ACAD_REACTORS
330
E
102
}
330
E
100
AcDbMaterial
  1
Global
  2

 70
0
 40
1.0
 71
1
 41
1.0
 91
-1023410177
 42
1.0
 72
1
  3

 73
1
 74
1
 75
1
 44
0.5
 73
0
 45
1.0
 46
1.0
 77
1
  4

 78
1
 79
1
170
1
 48
1.0
171
1
  6

172
1
173
1
174
1
140
1.0
141
1.0
175
1
  7

176
1
177
1
178
1
143
1.0
179
1
  8

270
1
271
1
272
1
145
1.0
146
1.0
273
1
  9

274
1
275
1
276
1
 42
1.0
 72
1
  3

 73
1
 74
1
 75
1
 94
63
  0
MLINESTYLE
  5
22
102
{ACAD_REACTORS
330
10
102
}
330
10
100
AcDbMlineStyle
  2
Standard
 70
0
  3

 62
256
 51
90.0
 52
90.0
 71
2
 49
0.5
 62
256
  6
BYLAYER
 49
-0.5
 62
256
  6
BYLAYER
  0
MLEADERSTYLE
  5
2C
102
{ACAD_REACTORS
330
F
102
}
330
F
100
AcDbMLeaderStyle
179
2
170
2
171
1
172
0
 90
2
 40
0.0
 41
0.0
173
1
 91
-1056964608
 92
-2
290
1
 42
2.0
291
1
 43
8.0
  3
Standard
 44
4.0
300

342
29
174
1
175
1
176
0
178
1
 93
-1056964608
 45
4.0
292
0
297
0
 46
4.0
 94
-1056964608
 47
1.0
 49
1.0
140
1.0
294
1
141
0.0
177
0
142
1.0
295
0
296
0
143
3.75
271
0
272
9
273
9
  0
DICTIONARY
  5
2D
330
A
100
AcDbDictionary
280
1
281
1
  3
CREATED_BY_EZDXF
350
2E
  3
WRITTEN_BY_EZDXF
350
BD
  0
DICTIONARYVAR
  5
2E
330
2D
100
DictionaryVariables
280
0
  1
1.4.3 @ 2026-02-17T17:47:26.629251+00:00
  0
DICTIONARYVAR
  5
BD
330
2D
100
DictionaryVariables
280
0
  1
1.4.3 @ 2026-02-17T17:47:26.636378+00:00
  0
ENDSEC
  0
EOF
