  0
SECTION
  2
HEADER
  9
$ACADVER
  1
AC1024
  9
$ACADMAINTVER
 70
6
  9
$DWGCODEPAGE
  3
ANSI_1252
  9
$LASTSAVEDBY
  1
ezdxf
  9
$INSBASE
 10
0.0
 20
0.0
 30
0.0
  9
$EXTMIN
 10
1e+20
 20
1e+20
 30
1e+20
  9
$EXTMAX
 10
-1e+20
 20
-1e+20
 30
-1e+20
  9
$LIMMIN
 10
0.0
 20
0.0
  9
$LIMMAX
 10
420.0
 20
297.0
  9
$ORTHOMODE
 70
0
  9
$REGENMODE
 70
1
  9
$FILLMODE
 70
1
  9
$QTEXTMODE
 70
0
  9
$MIRRTEXT
 70
1
  9
$LTSCALE
 40
1.0
  9
$ATTMODE
 70
1
  9
$TEXTSIZE
 40
2.5
  9
$TRACEWID
 40
1.0
  9
$TEXTSTYLE
  7
OpenSans
  9
$CLAYER
  8
0
  9
$CELTYPE
  6
ByLayer
  9
$CECOLOR
 62
256
  9
$CELTSCALE
 40
1.0
  9
$DISPSILH
 70
0
  9
$DIMSCALE
 40
1.0
  9
$DIMASZ
 40
0.175
  9
$DIMEXO
 40
0.125
  9
$DIMDLI
 40
3.75
  9
$DIMRND
 40
0.0
  9
$DIMDLE
 40
0.0
  9
$DIMEXE
 40
0.375
  9
$DIMTP
 40
0.0
  9
$DIMTM
 40
0.0
  9
$DIMTXT
 40
0.25
  9
$DIMCEN
 40
2.5
  9
$DIMTSZ
 40
0.0
  9
$DIMTOL
 70
0
  9
$DIMLIM
 70
0
  9
$DIMTIH
 70
0
  9
$DIMTOH
 70
0
  9
$DIMSE1
 70
0
  9
$DIMSE2
 70
0
  9
$DIMTAD
 70
1
  9
$DIMZIN
 70
12
  9
$DIMBLK
  1
ARCHTICK
  9
$DIMASO
 70
1
  9
$DIMSHO
 70
1
  9
$DIMPOST
  1

  9
$DIMAPOST
  1

  9
$DIMALT
 70
0
  9
$DIMALTD
 70
3
  9
$DIMALTF
 40
0.03937007874
  9
$DIMLFAC
 40
100.0
  9
$DIMTOFL
 70
1
  9
$DIMTVP
 40
0.0
  9
$DIMTIX
 70
0
  9
$DIMSOXD
 70
0
  9
$DIMSAH
 70
0
  9
$DIMBLK1
  1

  9
$DIMBLK2
  1

  9
$DIMSTYLE
  2
EZDXF
  9
$DIMCLRD
 70
0
  9
$DIMCLRE
 70
0
  9
$DIMCLRT
 70
0
  9
$DIMTFAC
 40
0.5
  9
$DIMGAP
 40
0.1
  9
$DIMJUST
 70
0
  9
$DIMSD1
 70
0
  9
$DIMSD2
 70
0
  9
$DIMTOLJ
 70
0
  9
$DIMTZIN
 70
8
  9
$DIMALTZ
 70
0
  9
$DIMALTTZ
 70
0
  9
$DIMUPT
 70
1
  9
$DIMDEC
 70
2
  9
$DIMTDEC
 70
2
  9
$DIMALTU
 70
2
  9
$DIMALTTD
 70
3
  9
$DIMTXSTY
  7
OpenSansCondensed-Light
  9
$DIMAUNIT
 70
0
  9
$DIMADEC
 70
2
  9
$DIMALTRND
 40
0.0
  9
$DIMAZIN
 70
3
  9
$DIMDSEP
 70
46
  9
$DIMATFIT
 70
3
  9
$DIMFRAC
 70
0
  9
$DIMLDRBLK
  1

  9
$DIMLUNIT
 70
2
  9
$DIMLWD
 70
-2
  9
$DIMLWE
 70
-2
  9
$DIMTMOVE
 70
2
  9
$DIMFXL
 40
1.0
  9
$DIMFXLON
 70
0
  9
$DIMJOGANG
 40
0.785398163397
  9
$DIMTFILL
 70
0
  9
$DIMTFILLCLR
 70
0
  9
$DIMARCSYM
 70
0
  9
$DIMLTYPE
  6

  9
$DIMLTEX1
  6

  9
$DIMLTEX2
  6

  9
$DIMTXTDIRECTION
 70
0
  9
$LUNITS
 70
2
  9
$LUPREC
 70
4
  9
$SKETCHINC
 40
1.0
  9
$FILLETRAD
 40
10.0
  9
$AUNITS
 70
0
  9
$AUPREC
 70
2
  9
$MENU
  1
.
  9
$ELEVATION
 40
0.0
  9
$PELEVATION
 40
0.0
  9
$THICKNESS
 40
0.0
  9
$LIMCHECK
 70
0
  9
$CHAMFERA
 40
0.0
  9
$CHAMFERB
 40
0.0
  9
$CHAMFERC
 40
0.0
  9
$CHAMFERD
 40
0.0
  9
$SKPOLY
 70
0
  9
$TDCREATE
 40
2461303.5222685183
  9
$TDUCREATE
 40
2458532.153996898
  9
$TDUPDATE
 40
2461303.5222685183
  9
$TDUUPDATE
 40
2458532.1544311
  9
$TDINDWG
 40
0.0
  9
$TDUSRTIMER
 40
0.0
  9
$USRTIMER
 70
1
  9
$ANGBASE
 50
0.0
  9
$ANGDIR
 70
0
  9
$PDMODE
 70
0
  9
$PDSIZE
 40
0.0
  9
$PLINEWID
 40
0.0
  9
$SPLFRAME
 70
0
  9
$SPLINETYPE
 70
6
  9
$SPLINESEGS
 70
8
  9
$HANDSEED
  5
3E6
  9
$SURFTAB1
 70
6
  9
$SURFTAB2
 70
6
  9
$SURFTYPE
 70
6
  9
$SURFU
 70
6
  9
$SURFV
 70
6
  9
$UCSBASE
  2

  9
$UCSNAME
  2

  9
$UCSORG
 10
0.0
 20
0.0
 30
0.0
  9
$UCSXDIR
 10
1.0
 20
0.0
 30
0.0
  9
$UCSYDIR
 10
0.0
 20
1.0
 30
0.0
  9
$UCSORTHOREF
  2

  9
$UCSORTHOVIEW
 70
0
  9
$UCSORGTOP
 10
0.0
 20
0.0
 30
0.0
  9
$UCSORGBOTTOM
 10
0.0
 20
0.0
 30
0.0
  9
$UCSORGLEFT
 10
0.0
 20
0.0
 30
0.0
  9
$UCSORGRIGHT
 10
0.0
 20
0.0
 30
0.0
  9
$UCSORGFRONT
 10
0.0
 20
0.0
 30
0.0
  9
$UCSORGBACK
 10
0.0
 20
0.0
 30
0.0
  9
$PUCSBASE
  2

  9
$PUCSNAME
  2

  9
$PUCSORG
 10
0.0
 20
0.0
 30
0.0
  9
$PUCSXDIR
 10
1.0
 20
0.0
 30
0.0
  9
$PUCSYDIR
 10
0.0
 20
1.0
 30
0.0
  9
$PUCSORTHOREF
  2

  9
$PUCSORTHOVIEW
 70
0
  9
$PUCSORGTOP
 10
0.0
 20
0.0
 30
0.0
  9
$PUCSORGBOTTOM
 10
0.0
 20
0.0
 30
0.0
  9
$PUCSORGLEFT
 10
0.0
 20
0.0
 30
0.0
  9
$PUCSORGRIGHT
 10
0.0
 20
0.0
 30
0.0
  9
$PUCSORGFRONT
 10
0.0
 20
0.0
 30
0.0
  9
$PUCSORGBACK
 10
0.0
 20
0.0
 30
0.0
  9
$USERI1
 70
0
  9
$USERI2
 70
0
  9
$USERI3
 70
0
  9
$USERI4
 70
0
  9
$USERI5
 70
0
  9
$USERR1
 40
0.0
  9
$USERR2
 40
0.0
  9
$USERR3
 40
0.0
  9
$USERR4
 40
0.0
  9
$USERR5
 40
0.0
  9
$WORLDVIEW
 70
1
  9
$SHADEDGE
 70
3
  9
$SHADEDIF
 70
70
  9
$TILEMODE
 70
1
  9
$MAXACTVP
 70
64
  9
$PINSBASE
 10
0.0
 20
0.0
 30
0.0
  9
$PLIMCHECK
 70
0
  9
$PEXTMIN
 10
1e+20
 20
1e+20
 30
1e+20
  9
$PEXTMAX
 10
-1e+20
 20
-1e+20
 30
-1e+20
  9
$PLIMMIN
 10
0.0
 20
0.0
  9
$PLIMMAX
 10
420.0
 20
297.0
  9
$UNITMODE
 70
0
  9
$VISRETAIN
 70
1
  9
$PLINEGEN
 70
0
  9
$PSLTSCALE
 70
1
  9
$TREEDEPTH
 70
3020
  9
$CMLSTYLE
  2
Standard
  9
$CMLJUST
 70
0
  9
$CMLSCALE
 40
20.0
  9
$PROXYGRAPHICS
 70
1
  9
$MEASUREMENT
 70
1
  9
$CELWEIGHT
370
-1
  9
$ENDCAPS
280
0
  9
$JOINSTYLE
280
0
  9
$LWDISPLAY
290
0
  9
$INSUNITS
 70
6
  9
$HYPERLINKBASE
  1

  9
$STYLESHEET
  1

  9
$XEDIT
290
1
  9
$CEPSNTYPE
380
0
  9
$PSTYLEMODE
290
1
  9
$FINGERPRINTGUID
  2
{BB498FDE-E2F7-4F51-BCAC-195A9786D4F4}
  9
$VERSIONGUID
  2
{ABDB87B6-3D91-455C-B5A9-3CB09C643C80}
  9
$EXTNAMES
290
1
  9
$PSVPSCALE
 40
0.0
  9
$OLESTARTUP
290
0
  9
$SORTENTS
280
127
  9
$INDEXCTL
280
0
  9
$HIDETEXT
280
1
  9
$XCLIPFRAME
280
1
  9
$HALOGAP
280
0
  9
$OBSCOLOR
 70
257
  9
$OBSLTYPE
280
0
  9
$INTERSECTIONDISPLAY
280
0
  9
$INTERSECTIONCOLOR
 70
257
  9
$DIMASSOC
280
2
  9
$PROJECTNAME
  1

  9
$CAMERADISPLAY
290
0
  9
$LENSLENGTH
 40
50.0
  9
$CAMERAHEIGHT
 40
0.0
  9
$STEPSPERSEC
 40
24.0
  9
$STEPSIZE
 40
100.0
  9
$3DDWFPREC
 40
2.0
  9
$PSOLWIDTH
 40
0.005
  9
$PSOLHEIGHT
 40
0.08
  9
$LOFTANG1
 40
1.570796326795
  9
$LOFTANG2
 40
1.570796326795
  9
$LOFTMAG1
 40
0.0
  9
$LOFTMAG2
 40
0.0
  9
$LOFTPARAM
 70
7
  9
$LOFTNORMALS
280
1
  9
$LATITUDE
 40
37.795
  9
$LONGITUDE
 40
-122.394
  9
$NORTHDIRECTION
 40
0.0
  9
$TIMEZONE
 70
-8000
  9
$LIGHTGLYPHDISPLAY
280
1
  9
$TILEMODELIGHTSYNCH
280
1
  9
$CMATERIAL
347
20
  9
$SOLIDHIST
280
0
  9
$SHOWHIST
280
1
  9
$DWFFRAME
280
2
  9
$DGNFRAME
280
2
  9
$REALWORLDSCALE
290
1
  9
$INTERFERECOLOR
 62
256
  9
$CSHADOW
280
0
  9
$SHADOWPLANELOCATION
 40
0.0
  0
ENDSEC
  0
SECTION
  2
CLASSES
  0
CLASS
  1
ACDBDICTIONARYWDFLT
  2
AcDbDictionaryWithDefault
  3
ObjectDBX Classes
 90
0
 91
0
280
0
281
0
  0
CLASS
  1
SUN
  2
AcDbSun
  3
SCENEOE
 90
1153
 91
0
280
0
281
0
  0
CLASS
  1
VISUALSTYLE
  2
AcDbVisualStyle
  3
ObjectDBX Classes
 90
4095
 91
0
280
0
281
0
  0
CLASS
  1
MATERIAL
  2
AcDbMaterial
  3
ObjectDBX Classes
 90
1153
 91
0
280
0
281
0
  0
CLASS
  1
SCALE
  2
AcDbScale
  3
ObjectDBX Classes
 90
1153
 91
0
280
0
281
0
  0
CLASS
  1
TABLESTYLE
  2
AcDbTableStyle
  3
ObjectDBX Classes
 90
4095
 91
0
280
0
281
0
  0
CLASS
  1
MLEADERSTYLE
  2
AcDbMLeaderStyle
  3
ACDB_MLEADERSTYLE_CLASS
 90
4095
 91
0
280
0
281
0
  0
CLASS
  1
DICTIONARYVAR
  2
AcDbDictionaryVar
  3
ObjectDBX Classes
 90
0
 91
0
280
0
281
0
  0
CLASS
  1
CELLSTYLEMAP
  2
AcDbCellStyleMap
  3
ObjectDBX Classes
 90
1152
 91
0
280
0
281
0
  0
CLASS
  1
MENTALRAYRENDERSETTINGS
  2
AcDbMentalRayRenderSettings
  3
SCENEOE
 90
1024
 91
0
280
0
281
0
  0
CLASS
  1
ACDBDETAILVIEWSTYLE
  2
AcDbDetailViewStyle
  3
ObjectDBX Classes
 90
1025
 91
0
280
0
281
0
  0
CLASS
  1
ACDBSECTIONVIEWSTYLE
  2
AcDbSectionViewStyle
  3
ObjectDBX Classes
 90
1025
 91
0
280
0
281
0
  0
CLASS
  1
RASTERVARIABLES
  2
AcDbRasterVariables
  3
ISM
 90
0
 91
0
280
0
281
0
  0
CLASS
  1
ACDBPLACEHOLDER
  2
AcDbPlaceHolder
  3
ObjectDBX Classes
 90
0
 91
0
280
0
281
0
  0
CLASS
  1
LAYOUT
  2
AcDbLayout
  3
ObjectDBX Classes
 90
0
 91
0
280
0
281
0
  0
ENDSEC
  0
SECTION
  2
TABLES
  0
TABLE
  2
VPORT
  5
8
330
0
100
AcDbSymbolTable
 70
1
  0
VPORT
  5
23
330
8
100
AcDbSymbolTableRecord
100
AcDbViewportTableRecord
  2
*Active
 70
0
 10
0.0
 20
0.0
 11
1.0
 21
1.0
 12
0.0
 22
0.0
 13
0.0
 23
0.0
 14
0.5
 24
0.5
 15
0.5
 25
0.5
 16
0.0
 26
0.0
 36
1.0
 17
0.0
 27
0.0
 37
0.0
 40
1000.0
 41
1.34
 42
50.0
 43
0.0
 44
0.0
 50
0.0
 51
0.0
 71
0
 72
1000
 73
1
 74
3
 75
0
 76
0
 77
0
 78
0
281
0
 65
0
146
0.0
  0
ENDTAB
  0
TABLE
  2
LTYPE
  5
2
330
0
100
AcDbSymbolTable
 70
22
  0
LTYPE
  5
24
330
2
100
AcDbSymbolTableRecord
100
AcDbLinetypeTableRecord
  2
ByBlock
 70
0
  3

 72
65
 73
0
 40
0.0
  0
LTYPE
  5
25
330
2
100
AcDbSymbolTableRecord
100
AcDbLinetypeTableRecord
  2
ByLayer
 70
0
  3

 72
65
 73
0
 40
0.0
  0
LTYPE
  5
26
330
2
100
AcDbSymbolTableRecord
100
AcDbLinetypeTableRecord
  2
Continuous
 70
0
  3

 72
65
 73
0
 40
0.0
  0
LTYPE
  5
2F
330
2
100
AcDbSymbolTableRecord
100
AcDbLinetypeTableRecord
  2
CENTER
 70
0
  3
Center ____ _ ____ _ ____ _ ____ _ ____ _ ____
 72
65
 73
4
 40
5.08
 49
3.175
 74
0
 49
-0.635
 74
0
 49
0.635
 74
0
 49
-0.635
 74
0
  0
LTYPE
  5
30
330
2
100
AcDbSymbolTableRecord
100
AcDbLinetypeTableRecord
  2
CENTERX2
 70
0
  3
Center (2x) ________  __  ________  __  ________
 72
65
 73
4
 40
8.89
 49
6.35
 74
0
 49
-0.635
 74
0
 49
1.27
 74
0
 49
-0.635
 74
0
  0
LTYPE
  5
31
330
2
100
AcDbSymbolTableRecord
100
AcDbLinetypeTableRecord
  2
CENTER2
 70
0
  3
Center (.5x) ____ _ ____ _ ____ _ ____ _ ____
 72
65
 73
4
 40
2.54
 49
1.587
 74
0
 49
-0.318
 74
0
 49
0.318
 74
0
 49
-0.318
 74
0
  0
LTYPE
  5
32
330
2
100
AcDbSymbolTableRecord
100
AcDbLinetypeTableRecord
  2
DASHED
 70
0
  3
Dashed __ __ __ __ __ __ __ __ __ __ __ __ __ _
 72
65
 73
2
 40
1.524
 49
1.27
 74
0
 49
-0.254
 74
0
  0
LTYPE
  5
33
330
2
100
AcDbSymbolTableRecord
100
AcDbLinetypeTableRecord
  2
DASHEDX2
 70
0
  3
Dashed (2x) ____  ____  ____  ____  ____  ____
 72
65
 73
2
 40
3.048
 49
2.54
 74
0
 49
-0.508
 74
0
  0
LTYPE
  5
34
330
2
100
AcDbSymbolTableRecord
100
AcDbLinetypeTableRecord
  2
DASHED2
 70
0
  3
Dashed (.5x) _ _ _ _ _ _ _ _ _ _ _ _ _ _
 72
65
 73
2
 40
0.762
 49
0.635
 74
0
 49
-0.127
 74
0
  0
LTYPE
  5
35
330
2
100
AcDbSymbolTableRecord
100
AcDbLinetypeTableRecord
  2
PHANTOM
 70
0
  3
Phantom ______  __  __  ______  __  __  ______
 72
65
 73
6
 40
6.35
 49
3.175
 74
0
 49
-0.635
 74
0
 49
0.635
 74
0
 49
-0.635
 74
0
 49
0.635
 74
0
 49
-0.635
 74
0
  0
LTYPE
  5
36
330
2
100
AcDbSymbolTableRecord
100
AcDbLinetypeTableRecord
  2
PHANTOMX2
 70
0
  3
Phantom (2x)____________    ____    ____    ____________
 72
65
 73
6
 40
10.795
 49
6.35
 74
0
 49
-0.635
 74
0
 49
1.27
 74
0
 49
-0.635
 74
0
 49
1.27
 74
0
 49
-0.635
 74
0
  0
LTYPE
  5
37
330
2
100
AcDbSymbolTableRecord
100
AcDbLinetypeTableRecord
  2
PHANTOM2
 70
0
  3
Phantom (.5x) ___ _ _ ___ _ _ ___ _ _ ___ _ _ ___
 72
65
 73
6
 40
3.175
 49
1.587
 74
0
 49
-0.318
 74
0
 49
0.318
 74
0
 49
-0.318
 74
0
 49
0.318
 74
0
 49
-0.318
 74
0
  0
LTYPE
  5
38
330
2
100
AcDbSymbolTableRecord
100
AcDbLinetypeTableRecord
  2
DASHDOT
 70
0
  3
Dash dot __ . __ . __ . __ . __ . __ . __ . __
 72
65
 73
4
 40
3.556
 49
2.54
 74
0
 49
-0.508
 74
0
 49
0.0
 74
0
 49
-0.508
 74
0
  0
LTYPE
  5
39
330
2
100
AcDbSymbolTableRecord
100
AcDbLinetypeTableRecord
  2
DASHDOTX2
 70
0
  3
Dash dot (2x) ____  .  ____  .  ____  .  ____
 72
65
 73
4
 40
6.096
 49
5.08
 74
0
 49
-0.508
 74
0
 49
0.0
 74
0
 49
-0.508
 74
0
  0
LTYPE
  5
3A
330
2
100
AcDbSymbolTableRecord
100
AcDbLinetypeTableRecord
  2
DASHDOT2
 70
0
  3
Dash dot (.5x) _ . _ . _ . _ . _ . _ . _ . _
 72
65
 73
4
 40
1.778
 49
1.27
 74
0
 49
-0.254
 74
0
 49
0.0
 74
0
 49
-0.254
 74
0
  0
LTYPE
  5
3B
330
2
100
AcDbSymbolTableRecord
100
AcDbLinetypeTableRecord
  2
DOT
 70
0
  3
Dot .  .  .  .  .  .  .  .  .  .  .  .  .  .  .  .
 72
65
 73
2
 40
0.508
 49
0.0
 74
0
 49
-0.508
 74
0
  0
LTYPE
  5
3C
330
2
100
AcDbSymbolTableRecord
100
AcDbLinetypeTableRecord
  2
DOTX2
 70
0
  3
Dot (2x) .    .    .    .    .    .    .    . 
 72
65
 73
2
 40
1.016
 49
0.0
 74
0
 49
-1.016
 74
0
  0
LTYPE
  5
3D
330
2
100
AcDbSymbolTableRecord
100
AcDbLinetypeTableRecord
  2
DOT2
 70
0
  3
Dot (.5) . . . . . . . . . . . . . . . . . . . 
 72
65
 73
2
 40
0.254
 49
0.0
 74
0
 49
-0.254
 74
0
  0
LTYPE
  5
3E
330
2
100
AcDbSymbolTableRecord
100
AcDbLinetypeTableRecord
  2
DIVIDE
 70
0
  3
Divide __ . . __ . . __ . . __ . . __ . . __
 72
65
 73
6
 40
4.064
 49
2.54
 74
0
 49
-0.508
 74
0
 49
0.0
 74
0
 49
-0.508
 74
0
 49
0.0
 74
0
 49
-0.508
 74
0
  0
LTYPE
  5
3F
330
2
100
AcDbSymbolTableRecord
100
AcDbLinetypeTableRecord
  2
DIVIDEX2
 70
0
  3
Divide (2x) ____  . .  ____  . .  ____  . .  ____
 72
65
 73
6
 40
6.604
 49
5.08
 74
0
 49
-0.508
 74
0
 49
0.0
 74
0
 49
-0.508
 74
0
 49
0.0
 74
0
 49
-0.508
 74
0
  0
LTYPE
  5
40
330
2
100
AcDbSymbolTableRecord
100
AcDbLinetypeTableRecord
  2
DIVIDE2
 70
0
  3
Divide(.5x) _ . _ . _ . _ . _ . _ . _ . _
 72
65
 73
6
 40
2.032
 49
1.27
 74
0
 49
-0.254
 74
0
 49
0.0
 74
0
 49
-0.254
 74
0
 49
0.0
 74
0
 49
-0.254
 74
0
  0
LTYPE
  5
8A
330
2
100
AcDbSymbolTableRecord
100
AcDbLinetypeTableRecord
  2
DK3S_CENTER
 70
0
  3
GOST 2.303-5 ____ _ ____ _ ____
 72
65
 73
4
 40
24.0
 49
20.0
 74
0
 49
-1.5
 74
0
 49
1.0
 74
0
 49
-1.5
 74
0
  0
ENDTAB
  0
TABLE
  2
LAYER
  5
1
330
0
100
AcDbSymbolTable
 70
8
  0
LAYER
  5
27
330
1
100
AcDbSymbolTableRecord
100
AcDbLayerTableRecord
  2
0
 70
0
 62
7
  6
Continuous
370
-3
390
13
347
21
  0
LAYER
  5
28
330
1
100
AcDbSymbolTableRecord
100
AcDbLayerTableRecord
  2
Defpoints
 70
0
 62
7
  6
Continuous
290
0
370
-3
390
13
347
21
  0
LAYER
  5
8B
330
1
100
AcDbSymbolTableRecord
100
AcDbLayerTableRecord
  2
DK3S_CONTOUR
 70
0
 62
7
  6
Continuous
370
60
390
13
347
21
  0
LAYER
  5
8C
330
1
100
AcDbSymbolTableRecord
100
AcDbLayerTableRecord
  2
DK3S_THIN
 70
0
 62
8
  6
Continuous
370
30
390
13
347
21
  0
LAYER
  5
8D
330
1
100
AcDbSymbolTableRecord
100
AcDbLayerTableRecord
  2
DK3S_AXIS
 70
0
 62
1
  6
DK3S_CENTER
370
30
390
13
347
21
  0
LAYER
  5
8E
330
1
100
AcDbSymbolTableRecord
100
AcDbLayerTableRecord
  2
DK3S_DIM
 70
0
 62
4
  6
Continuous
370
25
390
13
347
21
  0
LAYER
  5
8F
330
1
100
AcDbSymbolTableRecord
100
AcDbLayerTableRecord
  2
DK3S_TEXT
 70
0
 62
2
  6
Continuous
370
25
390
13
347
21
  0
LAYER
  5
90
330
1
100
AcDbSymbolTableRecord
100
AcDbLayerTableRecord
  2
DK3S_FRAME
 70
0
 62
7
  6
Continuous
370
60
390
13
347
21
  0
ENDTAB
  0
TABLE
  2
STYLE
  5
5
330
0
100
AcDbSymbolTable
 70
27
  0
STYLE
  5
29
330
5
100
AcDbSymbolTableRecord
100
AcDbTextStyleTableRecord
  2
Standard
 70
0
 40
0.0
 41
1.0
 50
0.0
 71
0
 42
2.5
  3
txt
  4

  0
STYLE
  5
41
330
5
100
AcDbSymbolTableRecord
100
AcDbTextStyleTableRecord
  2
OpenSans-Light
 70
0
 40
0.0
 41
1.0
 50
0.0
 71
0
 42
2.5
  3
OpenSans-Light.ttf
  4

  0
STYLE
  5
42
330
5
100
AcDbSymbolTableRecord
100
AcDbTextStyleTableRecord
  2
OpenSans-Light-Italic
 70
0
 40
0.0
 41
1.0
 50
0.0
 71
0
 42
2.5
  3
OpenSans-LightItalic.ttf
  4

  0
STYLE
  5
43
330
5
100
AcDbSymbolTableRecord
100
AcDbTextStyleTableRecord
  2
OpenSans
 70
0
 40
0.0
 41
1.0
 50
0.0
 71
0
 42
2.5
  3
OpenSans-Regular.ttf
  4

  0
STYLE
  5
44
330
5
100
AcDbSymbolTableRecord
100
AcDbTextStyleTableRecord
  2
OpenSans-Italic
 70
0
 40
0.0
 41
1.0
 50
0.0
 71
0
 42
2.5
  3
OpenSans-Italic.ttf
  4

  0
STYLE
  5
45
330
5
100
AcDbSymbolTableRecord
100
AcDbTextStyleTableRecord
  2
OpenSans-SemiBold
 70
0
 40
0.0
 41
1.0
 50
0.0
 71
0
 42
2.5
  3
OpenSans-SemiBold.ttf
  4

  0
STYLE
  5
46
330
5
100
AcDbSymbolTableRecord
100
AcDbTextStyleTableRecord
  2
OpenSans-SemiBoldItalic
 70
0
 40
0.0
 41
1.0
 50
0.0
 71
0
 42
2.5
  3
OpenSans-SemiBoldItalic.ttf
  4

  0
STYLE
  5
47
330
5
100
AcDbSymbolTableRecord
100
AcDbTextStyleTableRecord
  2
OpenSans-Bold
 70
0
 40
0.0
 41
1.0
 50
0.0
 71
0
 42
2.5
  3
OpenSans-Bold.ttf
  4

  0
STYLE
  5
48
330
5
100
AcDbSymbolTableRecord
100
AcDbTextStyleTableRecord
  2
OpenSans-BoldItalic
 70
0
 40
0.0
 41
1.0
 50
0.0
 71
0
 42
2.5
  3
OpenSans-BoldItalic.ttf
  4

  0
STYLE
  5
49
330
5
100
AcDbSymbolTableRecord
100
AcDbTextStyleTableRecord
  2
OpenSans-ExtraBold
 70
0
 40
0.0
 41
1.0
 50
0.0
 71
0
 42
2.5
  3
OpenSans-ExtraBold.ttf
  4

  0
STYLE
  5
4A
330
5
100
AcDbSymbolTableRecord
100
AcDbTextStyleTableRecord
  2
OpenSans-ExtraBoldItalic
 70
0
 40
0.0
 41
1.0
 50
0.0
 71
0
 42
2.5
  3
OpenSans-ExtraBoldItalic.ttf
  4

  0
STYLE
  5
4B
330
5
100
AcDbSymbolTableRecord
100
AcDbTextStyleTableRecord
  2
OpenSansCondensed-Bold
 70
0
 40
0.0
 41
1.0
 50
0.0
 71
0
 42
2.5
  3
OpenSansCondensed-Bold.ttf
  4

  0
STYLE
  5
4C
330
5
100
AcDbSymbolTableRecord
100
AcDbTextStyleTableRecord
  2
OpenSansCondensed-Light
 70
0
 40
0.0
 41
1.0
 50
0.0
 71
0
 42
2.5
  3
OpenSansCondensed-Light.ttf
  4

  0
STYLE
  5
4D
330
5
100
AcDbSymbolTableRecord
100
AcDbTextStyleTableRecord
  2
OpenSansCondensed-Italic
 70
0
 40
0.0
 41
1.0
 50
0.0
 71
0
 42
2.5
  3
OpenSansCondensed-LightItalic.ttf
  4

  0
STYLE
  5
4E
330
5
100
AcDbSymbolTableRecord
100
AcDbTextStyleTableRecord
  2
LiberationSans
 70
0
 40
0.0
 41
1.0
 50
0.0
 71
0
 42
2.5
  3
LiberationSans-Regular.ttf
  4

  0
STYLE
  5
4F
330
5
100
AcDbSymbolTableRecord
100
AcDbTextStyleTableRecord
  2
LiberationSans-Bold
 70
0
 40
0.0
 41
1.0
 50
0.0
 71
0
 42
2.5
  3
LiberationSans-Bold.ttf
  4

  0
STYLE
  5
50
330
5
100
AcDbSymbolTableRecord
100
AcDbTextStyleTableRecord
  2
LiberationSans-BoldItalic
 70
0
 40
0.0
 41
1.0
 50
0.0
 71
0
 42
2.5
  3
LiberationSans-BoldItalic.ttf
  4

  0
STYLE
  5
51
330
5
100
AcDbSymbolTableRecord
100
AcDbTextStyleTableRecord
  2
LiberationSans-Italic
 70
0
 40
0.0
 41
1.0
 50
0.0
 71
0
 42
2.5
  3
LiberationSans-Italic.ttf
  4

  0
STYLE
  5
52
330
5
100
AcDbSymbolTableRecord
100
AcDbTextStyleTableRecord
  2
LiberationSerif
 70
0
 40
0.0
 41
1.0
 50
0.0
 71
0
 42
2.5
  3
LiberationSerif-Regular.ttf
  4

  0
STYLE
  5
53
330
5
100
AcDbSymbolTableRecord
100
AcDbTextStyleTableRecord
  2
LiberationSerif-Bold
 70
0
 40
0.0
 41
1.0
 50
0.0
 71
0
 42
2.5
  3
LiberationSerif-Bold.ttf
  4

  0
STYLE
  5
54
330
5
100
AcDbSymbolTableRecord
100
AcDbTextStyleTableRecord
  2
LiberationSerif-BoldItalic
 70
0
 40
0.0
 41
1.0
 50
0.0
 71
0
 42
2.5
  3
LiberationSerif-BoldItalic.ttf
  4

  0
STYLE
  5
55
330
5
100
AcDbSymbolTableRecord
100
AcDbTextStyleTableRecord
  2
LiberationSerif-Italic
 70
0
 40
0.0
 41
1.0
 50
0.0
 71
0
 42
2.5
  3
LiberationSerif-Italic.ttf
  4

  0
STYLE
  5
56
330
5
100
AcDbSymbolTableRecord
100
AcDbTextStyleTableRecord
  2
LiberationMono
 70
0
 40
0.0
 41
1.0
 50
0.0
 71
0
 42
2.5
  3
LiberationMono-Regular.ttf
  4

  0
STYLE
  5
57
330
5
100
AcDbSymbolTableRecord
100
AcDbTextStyleTableRecord
  2
LiberationMono-Bold
 70
0
 40
0.0
 41
1.0
 50
0.0
 71
0
 42
2.5
  3
LiberationMono-Bold.ttf
  4

  0
STYLE
  5
58
330
5
100
AcDbSymbolTableRecord
100
AcDbTextStyleTableRecord
  2
LiberationMono-BoldItalic
 70
0
 40
0.0
 41
1.0
 50
0.0
 71
0
 42
2.5
  3
LiberationMono-BoldItalic.ttf
  4

  0
STYLE
  5
59
330
5
100
AcDbSymbolTableRecord
100
AcDbTextStyleTableRecord
  2
LiberationMono-Italic
 70
0
 40
0.0
 41
1.0
 50
0.0
 71
0
 42
2.5
  3
LiberationMono-Italic.ttf
  4

  0
STYLE
  5
91
330
5
100
AcDbSymbolTableRecord
100
AcDbTextStyleTableRecord
  2
DK3S_GOST
 70
0
 40
0.0
 41
1.0
 50
15.0
 71
0
 42
2.5
  3
GOST.shx
  4

  0
ENDTAB
  0
TABLE
  2
VIEW
  5
7
330
0
100
AcDbSymbolTable
 70
0
  0
ENDTAB
  0
TABLE
  2
UCS
  5
6
330
0
100
AcDbSymbolTable
 70
0
  0
ENDTAB
  0
TABLE
  2
APPID
  5
3
330
0
100
AcDbSymbolTable
 70
3
  0
APPID
  5
2A
330
3
100
AcDbSymbolTableRecord
100
AcDbRegAppTableRecord
  2
ACAD
 70
0
  0
APPID
  5
3E3
330
3
100
AcDbSymbolTableRecord
100
AcDbRegAppTableRecord
  2
HATCHBACKGROUNDCOLOR
 70
0
  0
APPID
  5
3E4
330
3
100
AcDbSymbolTableRecord
100
AcDbRegAppTableRecord
  2
EZDXF
 70
0
  0
ENDTAB
  0
TABLE
  2
DIMSTYLE
  5
4
330
0
100
AcDbSymbolTable
 70
13
100
AcDbDimStyleTable
  0
DIMSTYLE
105
2B
330
4
100
AcDbSymbolTableRecord
100
AcDbDimStyleTableRecord
  2
Standard
 70
0
 40
1.0
 41
2.5
 42
0.625
 43
3.75
 44
1.25
 45
0.0
 46
0.0
 47
0.0
 48
0.0
 49
2.5
140
2.5
141
2.5
142
0.0
143
0.03937007874
144
1.0
145
0.0
146
1.0
147
0.625
148
0.0
 69
0
 70
0
 71
0
 72
0
 73
0
 74
0
 75
0
 76
0
 77
1
 78
8
 79
3
170
0
171
3
172
1
173
0
174
0
175
0
176
0
177
0
178
0
179
2
271
2
272
2
273
2
274
3
275
0
276
0
277
2
278
44
279
0
280
0
281
0
282
0
283
0
284
8
285
0
286
0
288
0
289
3
290
0
371
-2
372
-2
  0
DIMSTYLE
105
73
330
4
100
AcDbSymbolTableRecord
100
AcDbDimStyleTableRecord
  2
EZDXF
 70
0
 40
1.0
 41
0.175
 42
0.125
 43
3.75
 44
0.375
 45
0.0
 46
0.0
 47
0.0
 48
0.0
 49
2.5
140
0.25
141
2.5
142
0.0
143
0.03937007874
144
100.0
145
0.0
146
0.5
147
0.1
148
0.0
 69
0
 70
0
 71
0
 72
0
 73
0
 74
0
 75
0
 76
0
 77
1
 78
12
 79
3
170
0
171
3
172
1
173
0
174
0
175
0
176
0
177
0
178
0
179
2
271
2
272
2
273
2
274
3
275
0
276
0
277
2
278
46
279
2
280
0
281
0
282
0
283
0
284
8
285
0
286
0
288
1
289
3
290
0
340
4C
342
74
371
-2
372
-2
  0
DIMSTYLE
105
7C
330
4
100
AcDbSymbolTableRecord
100
AcDbDimStyleTableRecord
  2
EZ_M_100_H25_CM
 70
0
 40
1.0
 41
0.25
 42
0.125
 43
3.75
 44
0.375
 45
0.0
 46
0.0
 47
0.0
 48
0.0
 49
2.5
140
0.25
141
2.5
142
0.125
143
0.03937007874
144
100.0
145
0.0
146
0.5
147
0.1
148
0.0
 69
0
 70
0
 71
0
 72
0
 73
0
 74
0
 75
0
 76
0
 77
1
 78
12
 79
3
170
0
171
3
172
1
173
0
174
0
175
0
176
0
177
0
178
0
179
2
271
2
272
2
273
2
274
3
275
0
276
0
277
2
278
46
279
2
280
0
281
0
282
0
283
0
284
8
285
0
286
0
288
1
289
3
290
0
340
4C
371
-2
372
-2
  0
DIMSTYLE
105
7D
330
4
100
AcDbSymbolTableRecord
100
AcDbDimStyleTableRecord
  2
EZ_M_50_H25_CM
 70
0
 40
1.0
 41
0.125
 42
0.0625
 43
3.75
 44
0.1875
 45
0.0
 46
0.0
 47
0.0
 48
0.0
 49
2.5
140
0.125
141
2.5
142
0.0625
143
0.03937007874
144
100.0
145
0.0
146
0.5
147
0.05
148
0.0
 69
0
 70
0
 71
0
 72
0
 73
0
 74
0
 75
0
 76
0
 77
1
 78
12
 79
3
170
0
171
3
172
1
173
0
174
0
175
0
176
0
177
0
178
0
179
2
271
2
272
2
273
2
274
3
275
0
276
0
277
2
278
46
279
2
280
0
281
0
282
0
283
0
284
8
285
0
286
0
288
1
289
3
290
0
340
4C
371
-2
372
-2
  0
DIMSTYLE
105
7E
330
4
100
AcDbSymbolTableRecord
100
AcDbDimStyleTableRecord
  2
EZ_M_25_H25_CM
 70
0
 40
1.0
 41
0.0625
 42
0.03125
 43
3.75
 44
0.09375
 45
0.0
 46
0.0
 47
0.0
 48
0.0
 49
2.5
140
0.0625
141
2.5
142
0.03125
143
0.03937007874
144
100.0
145
0.0
146
0.5
147
0.025
148
0.0
 69
0
 70
0
 71
0
 72
0
 73
0
 74
0
 75
0
 76
0
 77
1
 78
12
 79
3
170
0
171
3
172
1
173
0
174
0
175
0
176
0
177
0
178
0
179
2
271
2
272
2
273
2
274
3
275
0
276
0
277
2
278
46
279
2
280
0
281
0
282
0
283
0
284
8
285
0
286
0
288
1
289
3
290
0
340
4C
371
-2
372
-2
  0
DIMSTYLE
105
7F
330
4
100
AcDbSymbolTableRecord
100
AcDbDimStyleTableRecord
  2
EZ_M_20_H25_CM
 70
0
 40
1.0
 41
0.05
 42
0.025
 43
3.75
 44
0.07500000000000001
 45
0.0
 46
0.0
 47
0.0
 48
0.0
 49
2.5
140
0.05
141
2.5
142
0.025
143
0.03937007874
144
100.0
145
0.0
146
0.5
147
0.020000000000000004
148
0.0
 69
0
 70
0
 71
0
 72
0
 73
0
 74
0
 75
0
 76
0
 77
1
 78
12
 79
3
170
0
171
3
172
1
173
0
174
0
175
0
176
0
177
0
178
0
179
2
271
2
272
2
273
2
274
3
275
0
276
0
277
2
278
46
279
2
280
0
281
0
282
0
283
0
284
8
285
0
286
0
288
1
289
3
290
0
340
4C
371
-2
372
-2
  0
DIMSTYLE
105
80
330
4
100
AcDbSymbolTableRecord
100
AcDbDimStyleTableRecord
  2
EZ_M_10_H25_CM
 70
0
 40
1.0
 41
0.025
 42
0.0125
 43
3.75
 44
0.037500000000000006
 45
0.0
 46
0.0
 47
0.0
 48
0.0
 49
2.5
140
0.025
141
2.5
142
0.0125
143
0.03937007874
144
100.0
145
0.0
146
0.5
147
0.010000000000000002
148
0.0
 69
0
 70
0
 71
0
 72
0
 73
0
 74
0
 75
0
 76
0
 77
1
 78
12
 79
3
170
0
171
3
172
1
173
0
174
0
175
0
176
0
177
0
178
0
179
2
271
2
272
2
273
2
274
3
275
0
276
0
277
2
278
46
279
2
280
0
281
0
282
0
283
0
284
8
285
0
286
0
288
1
289
3
290
0
340
4C
371
-2
372
-2
  0
DIMSTYLE
105
81
330
4
100
AcDbSymbolTableRecord
100
AcDbDimStyleTableRecord
  2
EZ_M_5_H25_CM
 70
0
 40
1.0
 41
0.0125
 42
0.00625
 43
3.75
 44
0.018750000000000003
 45
0.0
 46
0.0
 47
0.0
 48
0.0
 49
2.5
140
0.0125
141
2.5
142
0.00625
143
0.03937007874
144
100.0
145
0.0
146
0.5
147
0.005000000000000001
148
0.0
 69
0
 70
0
 71
0
 72
0
 73
0
 74
0
 75
0
 76
0
 77
1
 78
12
 79
3
170
0
171
3
172
1
173
0
174
0
175
0
176
0
177
0
178
0
179
2
271
2
272
2
273
2
274
3
275
0
276
0
277
2
278
46
279
2
280
0
281
0
282
0
283
0
284
8
285
0
286
0
288
1
289
3
290
0
340
4C
371
-2
372
-2
  0
DIMSTYLE
105
82
330
4
100
AcDbSymbolTableRecord
100
AcDbDimStyleTableRecord
  2
EZ_M_1_H25_CM
 70
0
 40
1.0
 41
0.0025
 42
0.00125
 43
3.75
 44
0.00375
 45
0.0
 46
0.0
 47
0.0
 48
0.0
 49
2.5
140
0.0025
141
2.5
142
0.00125
143
0.03937007874
144
100.0
145
0.0
146
0.5
147
0.001
148
0.0
 69
0
 70
0
 71
0
 72
0
 73
0
 74
0
 75
0
 76
0
 77
1
 78
12
 79
3
170
0
171
3
172
1
173
0
174
0
175
0
176
0
177
0
178
0
179
2
271
2
272
2
273
2
274
3
275
0
276
0
277
2
278
46
279
2
280
0
281
0
282
0
283
0
284
8
285
0
286
0
288
1
289
3
290
0
340
4C
371
-2
372
-2
  0
DIMSTYLE
105
83
330
4
100
AcDbSymbolTableRecord
100
AcDbDimStyleTableRecord
  2
EZ_RADIUS
 70
0
 40
1.0
 41
0.25
 42
0.125
 43
3.75
 44
0.375
 45
0.0
 46
0.0
 47
0.0
 48
0.0
 49
2.5
140
0.25
141
0.0
142
0.0
143
0.03937007874
144
100.0
145
0.0
146
0.5
147
0.1
148
0.0
 69
0
 70
0
 71
0
 72
0
 73
0
 74
0
 75
0
 76
0
 77
1
 78
12
 79
3
170
0
171
3
172
0
173
0
174
0
175
0
176
0
177
0
178
0
179
2
271
2
272
2
273
2
274
3
275
0
276
0
277
2
278
46
279
1
280
0
281
0
282
0
283
0
284
8
285
0
286
0
288
1
289
3
290
0
340
4C
342
84
371
-2
372
-2
  0
DIMSTYLE
105
88
330
4
100
AcDbSymbolTableRecord
100
AcDbDimStyleTableRecord
  2
EZ_RADIUS_INSIDE
 70
0
 40
1.0
 41
0.25
 42
0.125
 43
3.75
 44
0.375
 45
0.0
 46
0.0
 47
0.0
 48
0.0
 49
2.5
140
0.25
141
0.0
142
0.0
143
0.03937007874
144
100.0
145
0.0
146
0.5
147
0.1
148
0.0
 69
0
 70
0
 71
0
 72
0
 73
0
 74
0
 75
0
 76
0
 77
0
 78
12
 79
3
170
0
171
3
172
0
173
0
174
1
175
0
176
0
177
0
178
0
179
2
271
2
272
2
273
2
274
3
275
0
276
0
277
2
278
46
279
0
280
0
281
0
282
0
283
0
284
8
285
0
286
0
288
1
289
0
290
0
340
4C
342
84
371
-2
372
-2
  0
DIMSTYLE
105
89
330
4
100
AcDbSymbolTableRecord
100
AcDbDimStyleTableRecord
  2
EZ_CURVED
 70
0
 40
1.0
 41
0.25
 42
0.125
 43
3.75
 44
0.375
 45
0.0
 46
0.0
 47
0.0
 48
0.0
 49
2.5
140
0.25
141
2.5
142
0.0
143
0.03937007874
144
100.0
145
0.0
146
0.5
147
0.1
148
0.0
 69
0
 70
0
 71
0
 72
0
 73
0
 74
0
 75
0
 76
0
 77
1
 78
12
 79
2
 90
2
170
0
171
3
172
1
173
0
174
0
175
0
176
0
177
0
178
0
179
2
271
2
272
2
273
2
274
3
275
0
276
0
277
2
278
46
279
2
280
0
281
0
282
0
283
0
284
8
285
0
286
0
288
1
289
3
290
0
340
4C
371
-2
372
-2
  0
DIMSTYLE
105
92
330
4
100
AcDbSymbolTableRecord
100
AcDbDimStyleTableRecord
  2
DK3S
 70
0
 40
2.0
 41
3.0
 42
0.625
 43
7.0
 44
1.25
 45
0.0
 46
0.0
 47
0.0
 48
0.0
 49
2.5
140
3.5
141
2.5
142
0.0
143
0.03937007874
144
1.0
145
0.0
146
1.0
147
0.625
148
0.0
 69
0
 70
0
 71
0
 72
0
 73
0
 74
0
 75
0
 76
0
 77
1
 78
8
 79
3
170
0
171
2
172
0
173
0
174
0
175
0
176
0
177
0
178
0
179
2
271
1
272
2
273
2
274
3
275
0
276
0
277
2
278
44
279
1
280
0
281
0
282
0
283
0
284
8
285
0
286
0
288
0
289
3
290
0
340
91
371
-2
372
-2
  0
ENDTAB
  0
TABLE
  2
BLOCK_RECORD
  5
9
330
0
100
AcDbSymbolTable
 70
31
  0
BLOCK_RECORD
  5
17
330
9
100
AcDbSymbolTableRecord
100
AcDbBlockTableRecord
  2
*Model_Space
340
1A
 70
0
280
1
281
0
  0
BLOCK_RECORD
  5
1B
330
9
100
AcDbSymbolTableRecord
100
AcDbBlockTableRecord
  2
*Paper_Space
340
1E
 70
0
280
1
281
0
  0
BLOCK_RECORD
  5
74
330
9
100
AcDbSymbolTableRecord
100
AcDbBlockTableRecord
  2
_ARCHTICK
340
0
 70
0
280
1
281
0
  0
BLOCK_RECORD
  5
78
330
9
100
AcDbSymbolTableRecord
100
AcDbBlockTableRecord
  2
_CLOSEDFILLED
340
0
 70
0
280
1
281
0
  0
BLOCK_RECORD
  5
84
330
9
100
AcDbSymbolTableRecord
100
AcDbBlockTableRecord
  2
_CLOSEDBLANK
340
0
 70
0
280
1
281
0
  0
BLOCK_RECORD
  5
195
330
9
100
AcDbSymbolTableRecord
100
AcDbBlockTableRecord
  2
*D1
340
0
 70
0
280
1
281
0
  0
BLOCK_RECORD
  5
1A4
330
9
100
AcDbSymbolTableRecord
100
AcDbBlockTableRecord
  2
*D2
340
0
 70
0
280
1
281
0
  0
BLOCK_RECORD
  5
1B3
330
9
100
AcDbSymbolTableRecord
100
AcDbBlockTableRecord
  2
*D3
340
0
 70
0
280
1
281
0
  0
BLOCK_RECORD
  5
1C2
330
9
100
AcDbSymbolTableRecord
100
AcDbBlockTableRecord
  2
*D4
340
0
 70
0
280
1
281
0
  0
BLOCK_RECORD
  5
1D1
330
9
100
AcDbSymbolTableRecord
100
AcDbBlockTableRecord
  2
*D5
340
0
 70
0
280
1
281
0
  0
BLOCK_RECORD
  5
1E0
330
9
100
AcDbSymbolTableRecord
100
AcDbBlockTableRecord
  2
*D6
340
0
 70
0
280
1
281
0
  0
BLOCK_RECORD
  5
1EF
330
9
100
AcDbSymbolTableRecord
100
AcDbBlockTableRecord
  2
*D7
340
0
 70
0
280
1
281
0
  0
BLOCK_RECORD
  5
1FE
330
9
100
AcDbSymbolTableRecord
100
AcDbBlockTableRecord
  2
*D8
340
0
 70
0
280
1
281
0
  0
BLOCK_RECORD
  5
20D
330
9
100
AcDbSymbolTableRecord
100
AcDbBlockTableRecord
  2
*D9
340
0
 70
0
280
1
281
0
  0
BLOCK_RECORD
  5
21C
330
9
100
AcDbSymbolTableRecord
100
AcDbBlockTableRecord
  2
*D10
340
0
 70
0
280
1
281
0
  0
BLOCK_RECORD
  5
22B
330
9
100
AcDbSymbolTableRecord
100
AcDbBlockTableRecord
  2
*D11
340
0
 70
0
280
1
281
0
  0
BLOCK_RECORD
  5
23A
330
9
100
AcDbSymbolTableRecord
100
AcDbBlockTableRecord
  2
*D12
340
0
 70
0
280
1
281
0
  0
BLOCK_RECORD
  5
249
330
9
100
AcDbSymbolTableRecord
100
AcDbBlockTableRecord
  2
*D13
340
0
 70
0
280
1
281
0
  0
BLOCK_RECORD
  5
258
330
9
100
AcDbSymbolTableRecord
100
AcDbBlockTableRecord
  2
*D14
340
0
 70
0
280
1
281
0
  0
BLOCK_RECORD
  5
267
330
9
100
AcDbSymbolTableRecord
100
AcDbBlockTableRecord
  2
*D15
340
0
 70
0
280
1
281
0
  0
BLOCK_RECORD
  5
276
330
9
100
AcDbSymbolTableRecord
100
AcDbBlockTableRecord
  2
*D16
340
0
 70
0
280
1
281
0
  0
BLOCK_RECORD
  5
285
330
9
100
AcDbSymbolTableRecord
100
AcDbBlockTableRecord
  2
*D17
340
0
 70
0
280
1
281
0
  0
BLOCK_RECORD
  5
296
330
9
100
AcDbSymbolTableRecord
100
AcDbBlockTableRecord
  2
*D18
340
0
 70
0
280
1
281
0
  0
BLOCK_RECORD
  5
2A7
330
9
100
AcDbSymbolTableRecord
100
AcDbBlockTableRecord
  2
*D19
340
0
 70
0
280
1
281
0
  0
BLOCK_RECORD
  5
2B6
330
9
100
AcDbSymbolTableRecord
100
AcDbBlockTableRecord
  2
*D20
340
0
 70
0
280
1
281
0
  0
BLOCK_RECORD
  5
2C5
330
9
100
AcDbSymbolTableRecord
100
AcDbBlockTableRecord
  2
*D21
340
0
 70
0
280
1
281
0
  0
BLOCK_RECORD
  5
37A
330
9
100
AcDbSymbolTableRecord
100
AcDbBlockTableRecord
  2
*D22
340
0
 70
0
280
1
281
0
  0
BLOCK_RECORD
  5
38B
330
9
100
AcDbSymbolTableRecord
100
AcDbBlockTableRecord
  2
*D23
340
0
 70
0
280
1
281
0
  0
BLOCK_RECORD
  5
39C
330
9
100
AcDbSymbolTableRecord
100
AcDbBlockTableRecord
  2
*D24
340
0
 70
0
280
1
281
0
  0
BLOCK_RECORD
  5
3AB
330
9
100
AcDbSymbolTableRecord
100
AcDbBlockTableRecord
  2
*D25
340
0
 70
0
280
1
281
0
  0
BLOCK_RECORD
  5
3BC
330
9
100
AcDbSymbolTableRecord
100
AcDbBlockTableRecord
  2
*D26
340
0
 70
0
280
1
281
0
  0
ENDTAB
  0
ENDSEC
  0
SECTION
  2
BLOCKS
  0
BLOCK
  5
18
330
17
100
AcDbEntity
  8
0
100
AcDbBlockBegin
  2
*Model_Space
 70
0
 10
0.0
 20
0.0
 30
0.0
  3
*Model_Space
  1

  0
ENDBLK
  5
19
330
17
100
AcDbEntity
  8
0
100
AcDbBlockEnd
  0
BLOCK
  5
1C
330
1B
100
AcDbEntity
  8
0
100
AcDbBlockBegin
  2
*Paper_Space
 70
0
 10
0.0
 20
0.0
 30
0.0
  3
*Paper_Space
  1

  0
ENDBLK
  5
1D
330
1B
100
AcDbEntity
  8
0
100
AcDbBlockEnd
  0
BLOCK
  5
75
330
74
100
AcDbEntity
  8
0
100
AcDbBlockBegin
  2
_ARCHTICK
 70
0
 10
0.0
 20
0.0
 30
0.0
  3
_ARCHTICK
  1

  0
LWPOLYLINE
  5
77
330
74
100
AcDbEntity
  8
0
  6
BYBLOCK
 62
0
100
AcDbPolyline
 90
2
 70
0
 43
0.15
 10
-0.5
 20
-0.5
 10
0.5
 20
0.5
  0
ENDBLK
  5
76
330
74
100
AcDbEntity
  8
0
100
AcDbBlockEnd
  0
BLOCK
  5
79
330
78
100
AcDbEntity
  8
0
100
AcDbBlockBegin
  2
_CLOSEDFILLED
 70
0
 10
0.0
 20
0.0
 30
0.0
  3
_CLOSEDFILLED
  1

  0
SOLID
  5
7B
330
78
100
AcDbEntity
  8
0
  6
BYBLOCK
 62
0
100
AcDbTrace
 10
-1.0
 20
0.16439898372402537
 30
0.0
 11
0.0
 21
0.0
 31
0.0
 12
-1.0
 22
-0.16439898372402537
 32
0.0
 13
-1.0
 23
-0.16439898372402537
 33
0.0
  0
ENDBLK
  5
7A
330
78
100
AcDbEntity
  8
0
100
AcDbBlockEnd
  0
BLOCK
  5
85
330
84
100
AcDbEntity
  8
0
100
AcDbBlockBegin
  2
_CLOSEDBLANK
 70
0
 10
0.0
 20
0.0
 30
0.0
  3
_CLOSEDBLANK
  1

  0
LWPOLYLINE
  5
87
330
84
100
AcDbEntity
  8
0
  6
BYBLOCK
 62
0
100
AcDbPolyline
 90
3
 70
1
 10
-1.0
 20
0.16439898372402537
 10
0.0
 20
0.0
 10
-1.0
 20
-0.16439898372402537
  0
ENDBLK
  5
86
330
84
100
AcDbEntity
  8
0
100
AcDbBlockEnd
  0
BLOCK
  5
196
330
195
100
AcDbEntity
  8
0
100
AcDbBlockBegin
  2
*D1
 70
1
 10
0.0
 20
0.0
 30
0.0
  3
*D1
  1

  0
LINE
  5
198
330
195
100
AcDbEntity
  8
0
 62
0
100
AcDbLine
 10
96.0
 20
428.75
 30
0.0
 11
96.0
 21
387.5
 31
0.0
  0
LINE
  5
199
330
195
100
AcDbEntity
  8
0
 62
0
100
AcDbLine
 10
121.5
 20
428.75
 30
0.0
 11
121.5
 21
387.5
 31
0.0
  0
INSERT
  5
19A
330
195
100
AcDbEntity
  8
DK3S_DIM
 62
0
100
AcDbBlockReference
  2
_CLOSEDFILLED
 10
96.0
 20
390.0
 30
0.0
 41
6.0
 42
6.0
 50
180.0
  0
INSERT
  5
19C
330
195
100
AcDbEntity
  8
DK3S_DIM
 62
0
100
AcDbBlockReference
  2
_CLOSEDFILLED
 10
121.5
 20
390.0
 30
0.0
 41
6.0
 42
6.0
  0
LINE
  5
19E
330
195
100
AcDbEntity
  8
0
 62
0
100
AcDbLine
 10
102.0
 20
390.0
 30
0.0
 11
115.5
 21
390.0
 31
0.0
  0
MTEXT
  5
19F
330
195
100
AcDbEntity
  8
DK3S_DIM
100
AcDbMText
 10
108.75
 20
397.25
 30
0.0
 40
7.0
 71
5
  1
25,5
  7
DK3S_GOST
  0
POINT
  5
1A0
330
195
100
AcDbEntity
  8
Defpoints
100
AcDbPoint
 10
96.0
 20
390.0
 30
0.0
  0
POINT
  5
1A1
330
195
100
AcDbEntity
  8
Defpoints
100
AcDbPoint
 10
96.0
 20
430.0
 30
0.0
  0
POINT
  5
1A2
330
195
100
AcDbEntity
  8
Defpoints
100
AcDbPoint
 10
121.5
 20
430.0
 30
0.0
  0
ENDBLK
  5
197
330
195
100
AcDbEntity
  8
0
100
AcDbBlockEnd
  0
BLOCK
  5
1A5
330
1A4
100
AcDbEntity
  8
0
100
AcDbBlockBegin
  2
*D2
 70
1
 10
0.0
 20
0.0
 30
0.0
  3
*D2
  1

  0
LINE
  5
1A7
330
1A4
100
AcDbEntity
  8
0
 62
0
100
AcDbLine
 10
121.5
 20
428.75
 30
0.0
 11
121.5
 21
387.5
 31
0.0
  0
LINE
  5
1A8
330
1A4
100
AcDbEntity
  8
0
 62
0
100
AcDbLine
 10
141.5
 20
428.75
 30
0.0
 11
141.5
 21
387.5
 31
0.0
  0
INSERT
  5
1A9
330
1A4
100
AcDbEntity
  8
DK3S_DIM
 62
0
100
AcDbBlockReference
  2
_CLOSEDFILLED
 10
121.5
 20
390.0
 30
0.0
 41
6.0
 42
6.0
 50
180.0
  0
INSERT
  5
1AB
330
1A4
100
AcDbEntity
  8
DK3S_DIM
 62
0
100
AcDbBlockReference
  2
_CLOSEDFILLED
 10
141.5
 20
390.0
 30
0.0
 41
6.0
 42
6.0
  0
LINE
  5
1AD
330
1A4
100
AcDbEntity
  8
0
 62
0
100
AcDbLine
 10
127.5
 20
390.0
 30
0.0
 11
135.5
 21
390.0
 31
0.0
  0
MTEXT
  5
1AE
330
1A4
100
AcDbEntity
  8
DK3S_DIM
100
AcDbMText
 10
131.5
 20
394.75
 30
0.0
 40
7.0
 71
5
  1
20
  7
DK3S_GOST
  0
POINT
  5
1AF
330
1A4
100
AcDbEntity
  8
Defpoints
100
AcDbPoint
 10
121.5
 20
390.0
 30
0.0
  0
POINT
  5
1B0
330
1A4
100
AcDbEntity
  8
Defpoints
100
AcDbPoint
 10
121.5
 20
430.0
 30
0.0
  0
POINT
  5
1B1
330
1A4
100
AcDbEntity
  8
Defpoints
100
AcDbPoint
 10
141.5
 20
430.0
 30
0.0
  0
ENDBLK
  5
1A6
330
1A4
100
AcDbEntity
  8
0
100
AcDbBlockEnd
  0
BLOCK
  5
1B4
330
1B3
100
AcDbEntity
  8
0
100
AcDbBlockBegin
  2
*D3
 70
1
 10
0.0
 20
0.0
 30
0.0
  3
*D3
  1

  0
LINE
  5
1B6
330
1B3
100
AcDbEntity
  8
0
 62
0
100
AcDbLine
 10
141.5
 20
428.75
 30
0.0
 11
141.5
 21
387.5
 31
0.0
  0
LINE
  5
1B7
330
1B3
100
AcDbEntity
  8
0
 62
0
100
AcDbLine
 10
161.5
 20
428.75
 30
0.0
 11
161.5
 21
387.5
 31
0.0
  0
INSERT
  5
1B8
330
1B3
100
AcDbEntity
  8
DK3S_DIM
 62
0
100
AcDbBlockReference
  2
_CLOSEDFILLED
 10
141.5
 20
390.0
 30
0.0
 41
6.0
 42
6.0
 50
180.0
  0
INSERT
  5
1BA
330
1B3
100
AcDbEntity
  8
DK3S_DIM
 62
0
100
AcDbBlockReference
  2
_CLOSEDFILLED
 10
161.5
 20
390.0
 30
0.0
 41
6.0
 42
6.0
  0
LINE
  5
1BC
330
1B3
100
AcDbEntity
  8
0
 62
0
100
AcDbLine
 10
147.5
 20
390.0
 30
0.0
 11
155.5
 21
390.0
 31
0.0
  0
MTEXT
  5
1BD
330
1B3
100
AcDbEntity
  8
DK3S_DIM
100
AcDbMText
 10
151.5
 20
394.75
 30
0.0
 40
7.0
 71
5
  1
20
  7
DK3S_GOST
  0
POINT
  5
1BE
330
1B3
100
AcDbEntity
  8
Defpoints
100
AcDbPoint
 10
141.5
 20
390.0
 30
0.0
  0
POINT
  5
1BF
330
1B3
100
AcDbEntity
  8
Defpoints
100
AcDbPoint
 10
141.5
 20
430.0
 30
0.0
  0
POINT
  5
1C0
330
1B3
100
AcDbEntity
  8
Defpoints
100
AcDbPoint
 10
161.5
 20
430.0
 30
0.0
  0
ENDBLK
  5
1B5
330
1B3
100
AcDbEntity
  8
0
100
AcDbBlockEnd
  0
BLOCK
  5
1C3
330
1C2
100
AcDbEntity
  8
0
100
AcDbBlockBegin
  2
*D4
 70
1
 10
0.0
 20
0.0
 30
0.0
  3
*D4
  1

  0
LINE
  5
1C5
330
1C2
100
AcDbEntity
  8
0
 62
0
100
AcDbLine
 10
111.6
 20
412.75
 30
0.0
 11
111.6
 21
371.5
 31
0.0
  0
LINE
  5
1C6
330
1C2
100
AcDbEntity
  8
0
 62
0
100
AcDbLine
 10
320.8
 20
412.75
 30
0.0
 11
320.8
 21
371.5
 31
0.0
  0
INSERT
  5
1C7
330
1C2
100
AcDbEntity
  8
DK3S_DIM
 62
0
100
AcDbBlockReference
  2
_CLOSEDFILLED
 10
111.6
 20
374.0
 30
0.0
 41
6.0
 42
6.0
 50
180.0
  0
INSERT
  5
1C9
330
1C2
100
AcDbEntity
  8
DK3S_DIM
 62
0
100
AcDbBlockReference
  2
_CLOSEDFILLED
 10
320.8
 20
374.0
 30
0.0
 41
6.0
 42
6.0
  0
LINE
  5
1CB
330
1C2
100
AcDbEntity
  8
0
 62
0
100
AcDbLine
 10
117.6
 20
374.0
 30
0.0
 11
314.8
 21
374.0
 31
0.0
  0
MTEXT
  5
1CC
330
1C2
100
AcDbEntity
  8
DK3S_DIM
100
AcDbMText
 10
216.2
 20
378.75
 30
0.0
 40
7.0
 71
5
  1
209,2
  7
DK3S_GOST
  0
POINT
  5
1CD
330
1C2
100
AcDbEntity
  8
Defpoints
100
AcDbPoint
 10
111.6
 20
374.0
 30
0.0
  0
POINT
  5
1CE
330
1C2
100
AcDbEntity
  8
Defpoints
100
AcDbPoint
 10
111.6
 20
414.0
 30
0.0
  0
POINT
  5
1CF
330
1C2
100
AcDbEntity
  8
Defpoints
100
AcDbPoint
 10
320.8
 20
414.0
 30
0.0
  0
ENDBLK
  5
1C4
330
1C2
100
AcDbEntity
  8
0
100
AcDbBlockEnd
  0
BLOCK
  5
1D2
330
1D1
100
AcDbEntity
  8
0
100
AcDbBlockBegin
  2
*D5
 70
1
 10
0.0
 20
0.0
 30
0.0
  3
*D5
  1

  0
LINE
  5
1D4
330
1D1
100
AcDbEntity
  8
0
 62
0
100
AcDbLine
 10
96.0
 20
428.75
 30
0.0
 11
96.0
 21
357.5
 31
0.0
  0
LINE
  5
1D5
330
1D1
100
AcDbEntity
  8
0
 62
0
100
AcDbLine
 10
361.8
 20
399.25
 30
0.0
 11
361.8
 21
357.5
 31
0.0
  0
INSERT
  5
1D6
330
1D1
100
AcDbEntity
  8
DK3S_DIM
 62
0
100
AcDbBlockReference
  2
_CLOSEDFILLED
 10
96.0
 20
360.0
 30
0.0
 41
6.0
 42
6.0
 50
180.0
  0
INSERT
  5
1D8
330
1D1
100
AcDbEntity
  8
DK3S_DIM
 62
0
100
AcDbBlockReference
  2
_CLOSEDFILLED
 10
361.8
 20
360.0
 30
0.0
 41
6.0
 42
6.0
  0
LINE
  5
1DA
330
1D1
100
AcDbEntity
  8
0
 62
0
100
AcDbLine
 10
102.0
 20
360.0
 30
0.0
 11
355.8
 21
360.0
 31
0.0
  0
MTEXT
  5
1DB
330
1D1
100
AcDbEntity
  8
DK3S_DIM
100
AcDbMText
 10
228.9
 20
364.75
 30
0.0
 40
7.0
 71
5
  1
265,8
  7
DK3S_GOST
  0
POINT
  5
1DC
330
1D1
100
AcDbEntity
  8
Defpoints
100
AcDbPoint
 10
96.0
 20
360.0
 30
0.0
  0
POINT
  5
1DD
330
1D1
100
AcDbEntity
  8
Defpoints
100
AcDbPoint
 10
96.0
 20
430.0
 30
0.0
  0
POINT
  5
1DE
330
1D1
100
AcDbEntity
  8
Defpoints
100
AcDbPoint
 10
361.8
 20
400.5
 30
0.0
  0
ENDBLK
  5
1D3
330
1D1
100
AcDbEntity
  8
0
100
AcDbBlockEnd
  0
BLOCK
  5
1E1
330
1E0
100
AcDbEntity
  8
0
100
AcDbBlockBegin
  2
*D6
 70
1
 10
0.0
 20
0.0
 30
0.0
  3
*D6
  1

  0
LINE
  5
1E3
330
1E0
100
AcDbEntity
  8
0
 62
0
100
AcDbLine
 10
361.8
 20
399.25
 30
0.0
 11
361.8
 21
357.5
 31
0.0
  0
LINE
  5
1E4
330
1E0
100
AcDbEntity
  8
0
 62
0
100
AcDbLine
 10
709.8000000000001
 20
405.95
 30
0.0
 11
709.8000000000001
 21
357.5
 31
0.0
  0
INSERT
  5
1E5
330
1E0
100
AcDbEntity
  8
DK3S_DIM
 62
0
100
AcDbBlockReference
  2
_CLOSEDFILLED
 10
361.8
 20
360.0
 30
0.0
 41
6.0
 42
6.0
 50
180.0
  0
INSERT
  5
1E7
330
1E0
100
AcDbEntity
  8
DK3S_DIM
 62
0
100
AcDbBlockReference
  2
_CLOSEDFILLED
 10
709.8000000000001
 20
360.0
 30
0.0
 41
6.0
 42
6.0
  0
LINE
  5
1E9
330
1E0
100
AcDbEntity
  8
0
 62
0
100
AcDbLine
 10
367.8
 20
360.0
 30
0.0
 11
703.8000000000001
 21
360.0
 31
0.0
  0
MTEXT
  5
1EA
330
1E0
100
AcDbEntity
  8
DK3S_DIM
100
AcDbMText
 10
535.8000000000001
 20
364.75
 30
0.0
 40
7.0
 71
5
  1
348
  7
DK3S_GOST
  0
POINT
  5
1EB
330
1E0
100
AcDbEntity
  8
Defpoints
100
AcDbPoint
 10
361.8
 20
360.0
 30
0.0
  0
POINT
  5
1EC
330
1E0
100
AcDbEntity
  8
Defpoints
100
AcDbPoint
 10
361.8
 20
400.5
 30
0.0
  0
POINT
  5
1ED
330
1E0
100
AcDbEntity
  8
Defpoints
100
AcDbPoint
 10
709.8000000000001
 20
407.2
 30
0.0
  0
ENDBLK
  5
1E2
330
1E0
100
AcDbEntity
  8
0
100
AcDbBlockEnd
  0
BLOCK
  5
1F0
330
1EF
100
AcDbEntity
  8
0
100
AcDbBlockBegin
  2
*D7
 70
1
 10
0.0
 20
0.0
 30
0.0
  3
*D7
  1

  0
LINE
  5
1F2
330
1EF
100
AcDbEntity
  8
0
 62
0
100
AcDbLine
 10
96.0
 20
428.75
 30
0.0
 11
96.0
 21
343.5
 31
0.0
  0
LINE
  5
1F3
330
1EF
100
AcDbEntity
  8
0
 62
0
100
AcDbLine
 10
709.8000000000001
 20
405.95
 30
0.0
 11
709.8000000000001
 21
343.5
 31
0.0
  0
INSERT
  5
1F4
330
1EF
100
AcDbEntity
  8
DK3S_DIM
 62
0
100
AcDbBlockReference
  2
_CLOSEDFILLED
 10
96.0
 20
346.0
 30
0.0
 41
6.0
 42
6.0
 50
180.0
  0
INSERT
  5
1F6
330
1EF
100
AcDbEntity
  8
DK3S_DIM
 62
0
100
AcDbBlockReference
  2
_CLOSEDFILLED
 10
709.8000000000001
 20
346.0
 30
0.0
 41
6.0
 42
6.0
  0
LINE
  5
1F8
330
1EF
100
AcDbEntity
  8
0
 62
0
100
AcDbLine
 10
102.0
 20
346.0
 30
0.0
 11
703.8000000000001
 21
346.0
 31
0.0
  0
MTEXT
  5
1F9
330
1EF
100
AcDbEntity
  8
DK3S_DIM
100
AcDbMText
 10
402.90000000000003
 20
350.75
 30
0.0
 40
7.0
 71
5
  1
*613,8
  7
DK3S_GOST
  0
POINT
  5
1FA
330
1EF
100
AcDbEntity
  8
Defpoints
100
AcDbPoint
 10
96.0
 20
346.0
 30
0.0
  0
POINT
  5
1FB
330
1EF
100
AcDbEntity
  8
Defpoints
100
AcDbPoint
 10
96.0
 20
430.0
 30
0.0
  0
POINT
  5
1FC
330
1EF
100
AcDbEntity
  8
Defpoints
100
AcDbPoint
 10
709.8000000000001
 20
407.2
 30
0.0
  0
ENDBLK
  5
1F1
330
1EF
100
AcDbEntity
  8
0
100
AcDbBlockEnd
  0
BLOCK
  5
1FF
330
1FE
100
AcDbEntity
  8
0
100
AcDbBlockBegin
  2
*D8
 70
1
 10
0.0
 20
0.0
 30
0.0
  3
*D8
  1

  0
LINE
  5
201
330
1FE
100
AcDbEntity
  8
0
 62
0
100
AcDbLine
 10
96.0
 20
445.25
 30
0.0
 11
96.0
 21
474.5
 31
0.0
  0
LINE
  5
202
330
1FE
100
AcDbEntity
  8
0
 62
0
100
AcDbLine
 10
111.6
 20
445.25
 30
0.0
 11
111.6
 21
474.5
 31
0.0
  0
INSERT
  5
203
330
1FE
100
AcDbEntity
  8
DK3S_DIM
 62
0
100
AcDbBlockReference
  2
_CLOSEDFILLED
 10
96.0
 20
472.0
 30
0.0
 41
6.0
 42
6.0
 50
180.0
  0
INSERT
  5
205
330
1FE
100
AcDbEntity
  8
DK3S_DIM
 62
0
100
AcDbBlockReference
  2
_CLOSEDFILLED
 10
111.6
 20
472.0
 30
0.0
 41
6.0
 42
6.0
  0
LINE
  5
207
330
1FE
100
AcDbEntity
  8
0
 62
0
100
AcDbLine
 10
102.0
 20
472.0
 30
0.0
 11
105.6
 21
472.0
 31
0.0
  0
MTEXT
  5
208
330
1FE
100
AcDbEntity
  8
DK3S_DIM
100
AcDbMText
 10
103.8
 20
479.25
 30
0.0
 40
7.0
 71
5
  1
15,6
  7
DK3S_GOST
  0
POINT
  5
209
330
1FE
100
AcDbEntity
  8
Defpoints
100
AcDbPoint
 10
96.0
 20
472.0
 30
0.0
  0
POINT
  5
20A
330
1FE
100
AcDbEntity
  8
Defpoints
100
AcDbPoint
 10
96.0
 20
444.0
 30
0.0
  0
POINT
  5
20B
330
1FE
100
AcDbEntity
  8
Defpoints
100
AcDbPoint
 10
111.6
 20
444.0
 30
0.0
  0
ENDBLK
  5
200
330
1FE
100
AcDbEntity
  8
0
100
AcDbBlockEnd
  0
BLOCK
  5
20E
330
20D
100
AcDbEntity
  8
0
100
AcDbBlockBegin
  2
*D9
 70
1
 10
0.0
 20
0.0
 30
0.0
  3
*D9
  1

  0
LINE
  5
210
330
20D
100
AcDbEntity
  8
0
 62
0
100
AcDbLine
 10
224.75
 20
446.0
 30
0.0
 11
223.5
 21
446.0
 31
0.0
  0
LINE
  5
211
330
20D
100
AcDbEntity
  8
0
 62
0
100
AcDbLine
 10
224.75
 20
414.0
 30
0.0
 11
223.5
 21
414.0
 31
0.0
  0
INSERT
  5
212
330
20D
100
AcDbEntity
  8
DK3S_DIM
 62
0
100
AcDbBlockReference
  2
_CLOSEDFILLED
 10
226.0
 20
446.0
 30
0.0
 41
6.0
 42
6.0
 50
270.0
  0
INSERT
  5
214
330
20D
100
AcDbEntity
  8
DK3S_DIM
 62
0
100
AcDbBlockReference
  2
_CLOSEDFILLED
 10
226.0
 20
414.0
 30
0.0
 41
6.0
 42
6.0
 50
90.0
  0
LINE
  5
216
330
20D
100
AcDbEntity
  8
0
 62
0
100
AcDbLine
 10
226.0
 20
452.0
 30
0.0
 11
226.0
 21
408.0
 31
0.0
  0
MTEXT
  5
217
330
20D
100
AcDbEntity
  8
DK3S_DIM
100
AcDbMText
 10
233.25
 20
430.0
 30
0.0
 40
7.0
 71
5
  1
%%c32
  7
DK3S_GOST
 50
90.0
  0
POINT
  5
218
330
20D
100
AcDbEntity
  8
Defpoints
100
AcDbPoint
 10
226.0
 20
446.0
 30
0.0
  0
POINT
  5
219
330
20D
100
AcDbEntity
  8
Defpoints
100
AcDbPoint
 10
226.0
 20
446.0
 30
0.0
  0
POINT
  5
21A
330
20D
100
AcDbEntity
  8
Defpoints
100
AcDbPoint
 10
226.0
 20
414.0
 30
0.0
  0
ENDBLK
  5
20F
330
20D
100
AcDbEntity
  8
0
100
AcDbBlockEnd
  0
BLOCK
  5
21D
330
21C
100
AcDbEntity
  8
0
100
AcDbBlockBegin
  2
*D10
 70
1
 10
0.0
 20
0.0
 30
0.0
  3
*D10
  1

  0
LINE
  5
21F
330
21C
100
AcDbEntity
  8
0
 62
0
100
AcDbLine
 10
340.75
 20
451.0
 30
0.0
 11
339.5
 21
451.0
 31
0.0
  0
LINE
  5
220
330
21C
100
AcDbEntity
  8
0
 62
0
100
AcDbLine
 10
340.75
 20
409.0
 30
0.0
 11
339.5
 21
409.0
 31
0.0
  0
INSERT
  5
221
330
21C
100
AcDbEntity
  8
DK3S_DIM
 62
0
100
AcDbBlockReference
  2
_CLOSEDFILLED
 10
342.0
 20
451.0
 30
0.0
 41
6.0
 42
6.0
 50
270.0
  0
INSERT
  5
223
330
21C
100
AcDbEntity
  8
DK3S_DIM
 62
0
100
AcDbBlockReference
  2
_CLOSEDFILLED
 10
342.0
 20
409.0
 30
0.0
 41
6.0
 42
6.0
 50
90.0
  0
LINE
  5
225
330
21C
100
AcDbEntity
  8
0
 62
0
100
AcDbLine
 10
342.0
 20
457.0
 30
0.0
 11
342.0
 21
403.0
 31
0.0
  0
MTEXT
  5
226
330
21C
100
AcDbEntity
  8
DK3S_DIM
100
AcDbMText
 10
346.75
 20
430.0
 30
0.0
 40
7.0
 71
5
  1
M42x3
  7
DK3S_GOST
 50
90.0
  0
POINT
  5
227
330
21C
100
AcDbEntity
  8
Defpoints
100
AcDbPoint
 10
342.0
 20
451.0
 30
0.0
  0
POINT
  5
228
330
21C
100
AcDbEntity
  8
Defpoints
100
AcDbPoint
 10
342.0
 20
451.0
 30
0.0
  0
POINT
  5
229
330
21C
100
AcDbEntity
  8
Defpoints
100
AcDbPoint
 10
342.0
 20
409.0
 30
0.0
  0
ENDBLK
  5
21E
330
21C
100
AcDbEntity
  8
0
100
AcDbBlockEnd
  0
BLOCK
  5
22C
330
22B
100
AcDbEntity
  8
0
100
AcDbBlockBegin
  2
*D11
 70
1
 10
0.0
 20
0.0
 30
0.0
  3
*D11
  1

  0
LINE
  5
22E
330
22B
100
AcDbEntity
  8
0
 62
0
100
AcDbLine
 10
357.05
 20
459.5
 30
0.0
 11
355.8
 21
459.5
 31
0.0
  0
LINE
  5
22F
330
22B
100
AcDbEntity
  8
0
 62
0
100
AcDbLine
 10
357.05
 20
400.5
 30
0.0
 11
355.8
 21
400.5
 31
0.0
  0
INSERT
  5
230
330
22B
100
AcDbEntity
  8
DK3S_DIM
 62
0
100
AcDbBlockReference
  2
_CLOSEDFILLED
 10
358.3
 20
459.5
 30
0.0
 41
6.0
 42
6.0
 50
270.0
  0
INSERT
  5
232
330
22B
100
AcDbEntity
  8
DK3S_DIM
 62
0
100
AcDbBlockReference
  2
_CLOSEDFILLED
 10
358.3
 20
400.5
 30
0.0
 41
6.0
 42
6.0
 50
90.0
  0
LINE
  5
234
330
22B
100
AcDbEntity
  8
0
 62
0
100
AcDbLine
 10
358.3
 20
465.5
 30
0.0
 11
358.3
 21
394.5
 31
0.0
  0
MTEXT
  5
235
330
22B
100
AcDbEntity
  8
DK3S_DIM
100
AcDbMText
 10
363.05
 20
430.0
 30
0.0
 40
7.0
 71
5
  1
%%c59
  7
DK3S_GOST
 50
90.0
  0
POINT
  5
236
330
22B
100
AcDbEntity
  8
Defpoints
100
AcDbPoint
 10
358.3
 20
459.5
 30
0.0
  0
POINT
  5
237
330
22B
100
AcDbEntity
  8
Defpoints
100
AcDbPoint
 10
358.3
 20
459.5
 30
0.0
  0
POINT
  5
238
330
22B
100
AcDbEntity
  8
Defpoints
100
AcDbPoint
 10
358.3
 20
400.5
 30
0.0
  0
ENDBLK
  5
22D
330
22B
100
AcDbEntity
  8
0
100
AcDbBlockEnd
  0
BLOCK
  5
23B
330
23A
100
AcDbEntity
  8
0
100
AcDbBlockBegin
  2
*D12
 70
1
 10
0.0
 20
0.0
 30
0.0
  3
*D12
  1

  0
LINE
  5
23D
330
23A
100
AcDbEntity
  8
0
 62
0
100
AcDbLine
 10
369.5
 20
453.0
 30
0.0
 11
368.25
 21
453.0
 31
0.0
  0
LINE
  5
23E
330
23A
100
AcDbEntity
  8
0
 62
0
100
AcDbLine
 10
369.5
 20
407.0
 30
0.0
 11
368.25
 21
407.0
 31
0.0
  0
INSERT
  5
23F
330
23A
100
AcDbEntity
  8
DK3S_DIM
 62
0
100
AcDbBlockReference
  2
_CLOSEDFILLED
 10
370.75
 20
453.0
 30
0.0
 41
6.0
 42
6.0
 50
270.0
  0
INSERT
  5
241
330
23A
100
AcDbEntity
  8
DK3S_DIM
 62
0
100
AcDbBlockReference
  2
_CLOSEDFILLED
 10
370.75
 20
407.0
 30
0.0
 41
6.0
 42
6.0
 50
90.0
  0
LINE
  5
243
330
23A
100
AcDbEntity
  8
0
 62
0
100
AcDbLine
 10
370.75
 20
459.0
 30
0.0
 11
370.75
 21
401.0
 31
0.0
  0
MTEXT
  5
244
330
23A
100
AcDbEntity
  8
DK3S_DIM
100
AcDbMText
 10
375.5
 20
430.0
 30
0.0
 40
7.0
 71
5
  1
S46
  7
DK3S_GOST
 50
90.0
  0
POINT
  5
245
330
23A
100
AcDbEntity
  8
Defpoints
100
AcDbPoint
 10
370.75
 20
453.0
 30
0.0
  0
POINT
  5
246
330
23A
100
AcDbEntity
  8
Defpoints
100
AcDbPoint
 10
370.75
 20
453.0
 30
0.0
  0
POINT
  5
247
330
23A
100
AcDbEntity
  8
Defpoints
100
AcDbPoint
 10
370.75
 20
407.0
 30
0.0
  0
ENDBLK
  5
23C
330
23A
100
AcDbEntity
  8
0
100
AcDbBlockEnd
  0
BLOCK
  5
24A
330
249
100
AcDbEntity
  8
0
100
AcDbBlockBegin
  2
*D13
 70
1
 10
0.0
 20
0.0
 30
0.0
  3
*D13
  1

  0
LINE
  5
24C
330
249
100
AcDbEntity
  8
0
 62
0
100
AcDbLine
 10
395.55
 20
448.0
 30
0.0
 11
394.3
 21
448.0
 31
0.0
  0
LINE
  5
24D
330
249
100
AcDbEntity
  8
0
 62
0
100
AcDbLine
 10
395.55
 20
412.0
 30
0.0
 11
394.3
 21
412.0
 31
0.0
  0
INSERT
  5
24E
330
249
100
AcDbEntity
  8
DK3S_DIM
 62
0
100
AcDbBlockReference
  2
_CLOSEDFILLED
 10
396.8
 20
448.0
 30
0.0
 41
6.0
 42
6.0
 50
270.0
  0
INSERT
  5
250
330
249
100
AcDbEntity
  8
DK3S_DIM
 62
0
100
AcDbBlockReference
  2
_CLOSEDFILLED
 10
396.8
 20
412.0
 30
0.0
 41
6.0
 42
6.0
 50
90.0
  0
LINE
  5
252
330
249
100
AcDbEntity
  8
0
 62
0
100
AcDbLine
 10
396.8
 20
454.0
 30
0.0
 11
396.8
 21
406.0
 31
0.0
  0
MTEXT
  5
253
330
249
100
AcDbEntity
  8
DK3S_DIM
100
AcDbMText
 10
401.55
 20
430.0
 30
0.0
 40
7.0
 71
5
  1
S36
  7
DK3S_GOST
 50
90.0
  0
POINT
  5
254
330
249
100
AcDbEntity
  8
Defpoints
100
AcDbPoint
 10
396.8
 20
448.0
 30
0.0
  0
POINT
  5
255
330
249
100
AcDbEntity
  8
Defpoints
100
AcDbPoint
 10
396.8
 20
448.0
 30
0.0
  0
POINT
  5
256
330
249
100
AcDbEntity
  8
Defpoints
100
AcDbPoint
 10
396.8
 20
412.0
 30
0.0
  0
ENDBLK
  5
24B
330
249
100
AcDbEntity
  8
0
100
AcDbBlockEnd
  0
BLOCK
  5
259
330
258
100
AcDbEntity
  8
0
100
AcDbBlockBegin
  2
*D14
 70
1
 10
0.0
 20
0.0
 30
0.0
  3
*D14
  1

  0
LINE
  5
25B
330
258
100
AcDbEntity
  8
0
 62
0
100
AcDbLine
 10
384.25
 20
446.5
 30
0.0
 11
383.0
 21
446.5
 31
0.0
  0
LINE
  5
25C
330
258
100
AcDbEntity
  8
0
 62
0
100
AcDbLine
 10
384.25
 20
413.5
 30
0.0
 11
383.0
 21
413.5
 31
0.0
  0
INSERT
  5
25D
330
258
100
AcDbEntity
  8
DK3S_DIM
 62
0
100
AcDbBlockReference
  2
_CLOSEDFILLED
 10
385.5
 20
446.5
 30
0.0
 41
6.0
 42
6.0
 50
270.0
  0
INSERT
  5
25F
330
258
100
AcDbEntity
  8
DK3S_DIM
 62
0
100
AcDbBlockReference
  2
_CLOSEDFILLED
 10
385.5
 20
413.5
 30
0.0
 41
6.0
 42
6.0
 50
90.0
  0
LINE
  5
261
330
258
100
AcDbEntity
  8
0
 62
0
100
AcDbLine
 10
385.5
 20
452.5
 30
0.0
 11
385.5
 21
407.5
 31
0.0
  0
MTEXT
  5
262
330
258
100
AcDbEntity
  8
DK3S_DIM
100
AcDbMText
 10
392.75
 20
430.0
 30
0.0
 40
7.0
 71
5
  1
M33x2
  7
DK3S_GOST
 50
90.0
  0
POINT
  5
263
330
258
100
AcDbEntity
  8
Defpoints
100
AcDbPoint
 10
385.5
 20
446.5
 30
0.0
  0
POINT
  5
264
330
258
100
AcDbEntity
  8
Defpoints
100
AcDbPoint
 10
385.5
 20
446.5
 30
0.0
  0
POINT
  5
265
330
258
100
AcDbEntity
  8
Defpoints
100
AcDbPoint
 10
385.5
 20
413.5
 30
0.0
  0
ENDBLK
  5
25A
330
258
100
AcDbEntity
  8
0
100
AcDbBlockEnd
  0
BLOCK
  5
268
330
267
100
AcDbEntity
  8
0
100
AcDbBlockBegin
  2
*D15
 70
1
 10
0.0
 20
0.0
 30
0.0
  3
*D15
  1

  0
LINE
  5
26A
330
267
100
AcDbEntity
  8
0
 62
0
100
AcDbLine
 10
405.35
 20
440.4
 30
0.0
 11
404.1
 21
440.4
 31
0.0
  0
LINE
  5
26B
330
267
100
AcDbEntity
  8
0
 62
0
100
AcDbLine
 10
405.35
 20
419.6
 30
0.0
 11
404.1
 21
419.6
 31
0.0
  0
INSERT
  5
26C
330
267
100
AcDbEntity
  8
DK3S_DIM
 62
0
100
AcDbBlockReference
  2
_CLOSEDFILLED
 10
406.6
 20
440.4
 30
0.0
 41
6.0
 42
6.0
 50
270.0
  0
INSERT
  5
26E
330
267
100
AcDbEntity
  8
DK3S_DIM
 62
0
100
AcDbBlockReference
  2
_CLOSEDFILLED
 10
406.6
 20
419.6
 30
0.0
 41
6.0
 42
6.0
 50
90.0
  0
LINE
  5
270
330
267
100
AcDbEntity
  8
0
 62
0
100
AcDbLine
 10
406.6
 20
446.4
 30
0.0
 11
406.6
 21
413.6
 31
0.0
  0
MTEXT
  5
271
330
267
100
AcDbEntity
  8
DK3S_DIM
100
AcDbMText
 10
413.85
 20
430.0
 30
0.0
 40
7.0
 71
5
  1
%%c20,8
  7
DK3S_GOST
 50
90.0
  0
POINT
  5
272
330
267
100
AcDbEntity
  8
Defpoints
100
AcDbPoint
 10
406.6
 20
440.4
 30
0.0
  0
POINT
  5
273
330
267
100
AcDbEntity
  8
Defpoints
100
AcDbPoint
 10
406.6
 20
440.4
 30
0.0
  0
POINT
  5
274
330
267
100
AcDbEntity
  8
Defpoints
100
AcDbPoint
 10
406.6
 20
419.6
 30
0.0
  0
ENDBLK
  5
269
330
267
100
AcDbEntity
  8
0
100
AcDbBlockEnd
  0
BLOCK
  5
277
330
276
100
AcDbEntity
  8
0
100
AcDbBlockBegin
  2
*D16
 70
1
 10
0.0
 20
0.0
 30
0.0
  3
*D16
  1

  0
LINE
  5
279
330
276
100
AcDbEntity
  8
0
 62
0
100
AcDbLine
 10
320.8
 20
407.75
 30
0.0
 11
320.8
 21
387.5
 31
0.0
  0
LINE
  5
27A
330
276
100
AcDbEntity
  8
0
 62
0
100
AcDbLine
 10
381.8
 20
405.75
 30
0.0
 11
381.8
 21
387.5
 31
0.0
  0
INSERT
  5
27B
330
276
100
AcDbEntity
  8
DK3S_DIM
 62
0
100
AcDbBlockReference
  2
_CLOSEDFILLED
 10
320.8
 20
390.0
 30
0.0
 41
6.0
 42
6.0
 50
180.0
  0
INSERT
  5
27D
330
276
100
AcDbEntity
  8
DK3S_DIM
 62
0
100
AcDbBlockReference
  2
_CLOSEDFILLED
 10
381.8
 20
390.0
 30
0.0
 41
6.0
 42
6.0
  0
LINE
  5
27F
330
276
100
AcDbEntity
  8
0
 62
0
100
AcDbLine
 10
326.8
 20
390.0
 30
0.0
 11
375.8
 21
390.0
 31
0.0
  0
MTEXT
  5
280
330
276
100
AcDbEntity
  8
DK3S_DIM
100
AcDbMText
 10
351.3
 20
394.75
 30
0.0
 40
7.0
 71
5
  1
61
  7
DK3S_GOST
  0
POINT
  5
281
330
276
100
AcDbEntity
  8
Defpoints
100
AcDbPoint
 10
320.8
 20
390.0
 30
0.0
  0
POINT
  5
282
330
276
100
AcDbEntity
  8
Defpoints
100
AcDbPoint
 10
320.8
 20
409.0
 30
0.0
  0
POINT
  5
283
330
276
100
AcDbEntity
  8
Defpoints
100
AcDbPoint
 10
381.8
 20
407.0
 30
0.0
  0
ENDBLK
  5
278
330
276
100
AcDbEntity
  8
0
100
AcDbBlockEnd
  0
BLOCK
  5
286
330
285
100
AcDbEntity
  8
0
100
AcDbBlockBegin
  2
*D17
 70
1
 10
0.0
 20
0.0
 30
0.0
  3
*D17
  1

  0
LINE
  5
288
330
285
100
AcDbEntity
  8
0
 62
0
100
AcDbLine
 10
549.75
 20
433.0
 30
0.0
 11
548.5
 21
433.0
 31
0.0
  0
LINE
  5
289
330
285
100
AcDbEntity
  8
0
 62
0
100
AcDbLine
 10
549.75
 20
427.0
 30
0.0
 11
548.5
 21
427.0
 31
0.0
  0
INSERT
  5
28A
330
285
100
AcDbEntity
  8
DK3S_DIM
 62
0
100
AcDbBlockReference
  2
_CLOSEDFILLED
 10
551.0
 20
433.0
 30
0.0
 41
6.0
 42
6.0
 50
90.0
  0
INSERT
  5
28C
330
285
100
AcDbEntity
  8
DK3S_DIM
 62
0
100
AcDbBlockReference
  2
_CLOSEDFILLED
 10
551.0
 20
427.0
 30
0.0
 41
6.0
 42
6.0
 50
270.0
  0
LINE
  5
28E
330
285
100
AcDbEntity
  8
0
 62
0
100
AcDbLine
 10
551.0
 20
439.0
 30
0.0
 11
551.0
 21
445.0
 31
0.0
  0
LINE
  5
28F
330
285
100
AcDbEntity
  8
0
 62
0
100
AcDbLine
 10
551.0
 20
421.0
 30
0.0
 11
551.0
 21
415.0
 31
0.0
  0
LINE
  5
290
330
285
100
AcDbEntity
  8
0
 62
0
100
AcDbLine
 10
551.0
 20
433.0
 30
0.0
 11
551.0
 21
427.0
 31
0.0
  0
MTEXT
  5
291
330
285
100
AcDbEntity
  8
DK3S_DIM
100
AcDbMText
 10
558.25
 20
430.0
 30
0.0
 40
7.0
 71
5
  1
%%c6
  7
DK3S_GOST
 50
90.0
  0
POINT
  5
292
330
285
100
AcDbEntity
  8
Defpoints
100
AcDbPoint
 10
551.0
 20
433.0
 30
0.0
  0
POINT
  5
293
330
285
100
AcDbEntity
  8
Defpoints
100
AcDbPoint
 10
551.0
 20
433.0
 30
0.0
  0
POINT
  5
294
330
285
100
AcDbEntity
  8
Defpoints
100
AcDbPoint
 10
551.0
 20
427.0
 30
0.0
  0
ENDBLK
  5
287
330
285
100
AcDbEntity
  8
0
100
AcDbBlockEnd
  0
BLOCK
  5
297
330
296
100
AcDbEntity
  8
0
100
AcDbBlockBegin
  2
*D18
 70
1
 10
0.0
 20
0.0
 30
0.0
  3
*D18
  1

  0
LINE
  5
299
330
296
100
AcDbEntity
  8
0
 62
0
100
AcDbLine
 10
534.75
 20
406.9
 30
0.0
 11
533.5
 21
406.9
 31
0.0
  0
LINE
  5
29A
330
296
100
AcDbEntity
  8
0
 62
0
100
AcDbLine
 10
534.75
 20
403.9
 30
0.0
 11
533.5
 21
403.9
 31
0.0
  0
INSERT
  5
29B
330
296
100
AcDbEntity
  8
DK3S_DIM
 62
0
100
AcDbBlockReference
  2
_CLOSEDFILLED
 10
536.0
 20
406.9
 30
0.0
 41
6.0
 42
6.0
 50
90.0
  0
INSERT
  5
29D
330
296
100
AcDbEntity
  8
DK3S_DIM
 62
0
100
AcDbBlockReference
  2
_CLOSEDFILLED
 10
536.0
 20
403.9
 30
0.0
 41
6.0
 42
6.0
 50
270.0
  0
LINE
  5
29F
330
296
100
AcDbEntity
  8
0
 62
0
100
AcDbLine
 10
536.0
 20
412.9
 30
0.0
 11
536.0
 21
418.9
 31
0.0
  0
LINE
  5
2A0
330
296
100
AcDbEntity
  8
0
 62
0
100
AcDbLine
 10
536.0
 20
397.9
 30
0.0
 11
536.0
 21
391.9
 31
0.0
  0
LINE
  5
2A1
330
296
100
AcDbEntity
  8
0
 62
0
100
AcDbLine
 10
536.0
 20
406.9
 30
0.0
 11
536.0
 21
403.9
 31
0.0
  0
MTEXT
  5
2A2
330
296
100
AcDbEntity
  8
DK3S_DIM
100
AcDbMText
 10
543.25
 20
405.4
 30
0.0
 40
7.0
 71
5
  1
%%c3
  7
DK3S_GOST
 50
90.0
  0
POINT
  5
2A3
330
296
100
AcDbEntity
  8
Defpoints
100
AcDbPoint
 10
536.0
 20
406.9
 30
0.0
  0
POINT
  5
2A4
330
296
100
AcDbEntity
  8
Defpoints
100
AcDbPoint
 10
536.0
 20
406.9
 30
0.0
  0
POINT
  5
2A5
330
296
100
AcDbEntity
  8
Defpoints
100
AcDbPoint
 10
536.0
 20
403.9
 30
0.0
  0
ENDBLK
  5
298
330
296
100
AcDbEntity
  8
0
100
AcDbBlockEnd
  0
BLOCK
  5
2A8
330
2A7
100
AcDbEntity
  8
0
100
AcDbBlockBegin
  2
*D19
 70
1
 10
0.0
 20
0.0
 30
0.0
  3
*D19
  1

  0
LINE
  5
2AA
330
2A7
100
AcDbEntity
  8
0
 62
0
100
AcDbLine
 10
659.75
 20
462.8
 30
0.0
 11
658.5
 21
462.8
 31
0.0
  0
LINE
  5
2AB
330
2A7
100
AcDbEntity
  8
0
 62
0
100
AcDbLine
 10
659.75
 20
442.8
 30
0.0
 11
658.5
 21
442.8
 31
0.0
  0
INSERT
  5
2AC
330
2A7
100
AcDbEntity
  8
DK3S_DIM
 62
0
100
AcDbBlockReference
  2
_CLOSEDFILLED
 10
661.0
 20
462.8
 30
0.0
 41
6.0
 42
6.0
 50
270.0
  0
INSERT
  5
2AE
330
2A7
100
AcDbEntity
  8
DK3S_DIM
 62
0
100
AcDbBlockReference
  2
_CLOSEDFILLED
 10
661.0
 20
442.8
 30
0.0
 41
6.0
 42
6.0
 50
90.0
  0
LINE
  5
2B0
330
2A7
100
AcDbEntity
  8
0
 62
0
100
AcDbLine
 10
661.0
 20
468.8
 30
0.0
 11
661.0
 21
436.8
 31
0.0
  0
MTEXT
  5
2B1
330
2A7
100
AcDbEntity
  8
DK3S_DIM
100
AcDbMText
 10
668.25
 20
452.8
 30
0.0
 40
7.0
 71
5
  1
%%c20
  7
DK3S_GOST
 50
90.0
  0
POINT
  5
2B2
330
2A7
100
AcDbEntity
  8
Defpoints
100
AcDbPoint
 10
661.0
 20
462.8
 30
0.0
  0
POINT
  5
2B3
330
2A7
100
AcDbEntity
  8
Defpoints
100
AcDbPoint
 10
661.0
 20
462.8
 30
0.0
  0
POINT
  5
2B4
330
2A7
100
AcDbEntity
  8
Defpoints
100
AcDbPoint
 10
661.0
 20
442.8
 30
0.0
  0
ENDBLK
  5
2A9
330
2A7
100
AcDbEntity
  8
0
100
AcDbBlockEnd
  0
BLOCK
  5
2B7
330
2B6
100
AcDbEntity
  8
0
100
AcDbBlockBegin
  2
*D20
 70
1
 10
0.0
 20
0.0
 30
0.0
  3
*D20
  1

  0
LINE
  5
2B9
330
2B6
100
AcDbEntity
  8
0
 62
0
100
AcDbLine
 10
617.7
 20
464.05
 30
0.0
 11
617.7
 21
477.3
 31
0.0
  0
LINE
  5
2BA
330
2B6
100
AcDbEntity
  8
0
 62
0
100
AcDbLine
 10
678.8000000000001
 20
464.05
 30
0.0
 11
678.8000000000001
 21
477.3
 31
0.0
  0
INSERT
  5
2BB
330
2B6
100
AcDbEntity
  8
DK3S_DIM
 62
0
100
AcDbBlockReference
  2
_CLOSEDFILLED
 10
617.7
 20
474.8
 30
0.0
 41
6.0
 42
6.0
 50
180.0
  0
INSERT
  5
2BD
330
2B6
100
AcDbEntity
  8
DK3S_DIM
 62
0
100
AcDbBlockReference
  2
_CLOSEDFILLED
 10
678.8000000000001
 20
474.8
 30
0.0
 41
6.0
 42
6.0
  0
LINE
  5
2BF
330
2B6
100
AcDbEntity
  8
0
 62
0
100
AcDbLine
 10
623.7
 20
474.8
 30
0.0
 11
672.8000000000001
 21
474.8
 31
0.0
  0
MTEXT
  5
2C0
330
2B6
100
AcDbEntity
  8
DK3S_DIM
100
AcDbMText
 10
648.25
 20
479.55
 30
0.0
 40
7.0
 71
5
  1
61,1
  7
DK3S_GOST
  0
POINT
  5
2C1
330
2B6
100
AcDbEntity
  8
Defpoints
100
AcDbPoint
 10
617.7
 20
474.8
 30
0.0
  0
POINT
  5
2C2
330
2B6
100
AcDbEntity
  8
Defpoints
100
AcDbPoint
 10
617.7
 20
462.8
 30
0.0
  0
POINT
  5
2C3
330
2B6
100
AcDbEntity
  8
Defpoints
100
AcDbPoint
 10
678.8000000000001
 20
462.8
 30
0.0
  0
ENDBLK
  5
2B8
330
2B6
100
AcDbEntity
  8
0
100
AcDbBlockEnd
  0
BLOCK
  5
2C6
330
2C5
100
AcDbEntity
  8
0
100
AcDbBlockBegin
  2
*D21
 70
1
 10
0.0
 20
0.0
 30
0.0
  3
*D21
  1

  0
LINE
  5
2C8
330
2C5
100
AcDbEntity
  8
0
 62
0
100
AcDbLine
 10
715.0500000000001
 20
452.8
 30
0.0
 11
726.3000000000001
 21
452.8
 31
0.0
  0
LINE
  5
2C9
330
2C5
100
AcDbEntity
  8
0
 62
0
100
AcDbLine
 10
715.0500000000001
 20
407.2
 30
0.0
 11
726.3000000000001
 21
407.2
 31
0.0
  0
INSERT
  5
2CA
330
2C5
100
AcDbEntity
  8
DK3S_DIM
 62
0
100
AcDbBlockReference
  2
_CLOSEDFILLED
 10
723.8000000000001
 20
452.8
 30
0.0
 41
6.0
 42
6.0
 50
270.0
  0
INSERT
  5
2CC
330
2C5
100
AcDbEntity
  8
DK3S_DIM
 62
0
100
AcDbBlockReference
  2
_CLOSEDFILLED
 10
723.8000000000001
 20
407.2
 30
0.0
 41
6.0
 42
6.0
 50
90.0
  0
LINE
  5
2CE
330
2C5
100
AcDbEntity
  8
0
 62
0
100
AcDbLine
 10
723.8000000000001
 20
458.8
 30
0.0
 11
723.8000000000001
 21
401.2
 31
0.0
  0
MTEXT
  5
2CF
330
2C5
100
AcDbEntity
  8
DK3S_DIM
100
AcDbMText
 10
728.5500000000001
 20
430.0
 30
0.0
 40
7.0
 71
5
  1
45,6
  7
DK3S_GOST
 50
90.0
  0
POINT
  5
2D0
330
2C5
100
AcDbEntity
  8
Defpoints
100
AcDbPoint
 10
723.8000000000001
 20
452.8
 30
0.0
  0
POINT
  5
2D1
330
2C5
100
AcDbEntity
  8
Defpoints
100
AcDbPoint
 10
713.8000000000001
 20
452.8
 30
0.0
  0
POINT
  5
2D2
330
2C5
100
AcDbEntity
  8
Defpoints
100
AcDbPoint
 10
713.8000000000001
 20
407.2
 30
0.0
  0
ENDBLK
  5
2C7
330
2C5
100
AcDbEntity
  8
0
100
AcDbBlockEnd
  0
BLOCK
  5
37B
330
37A
100
AcDbEntity
  8
0
100
AcDbBlockBegin
  2
*D22
 70
1
 10
0.0
 20
0.0
 30
0.0
  3
*D22
  1

  0
LINE
  5
37D
330
37A
100
AcDbEntity
  8
0
 62
0
100
AcDbLine
 10
263.25
 20
192.8
 30
0.0
 11
276.5
 21
192.8
 31
0.0
  0
LINE
  5
37E
330
37A
100
AcDbEntity
  8
0
 62
0
100
AcDbLine
 10
263.25
 20
187.2
 30
0.0
 11
276.5
 21
187.2
 31
0.0
  0
INSERT
  5
37F
330
37A
100
AcDbEntity
  8
DK3S_DIM
 62
0
100
AcDbBlockReference
  2
_CLOSEDFILLED
 10
274.0
 20
192.8
 30
0.0
 41
6.0
 42
6.0
 50
90.0
  0
INSERT
  5
381
330
37A
100
AcDbEntity
  8
DK3S_DIM
 62
0
100
AcDbBlockReference
  2
_CLOSEDFILLED
 10
274.0
 20
187.2
 30
0.0
 41
6.0
 42
6.0
 50
270.0
  0
LINE
  5
383
330
37A
100
AcDbEntity
  8
0
 62
0
100
AcDbLine
 10
274.0
 20
198.8
 30
0.0
 11
274.0
 21
204.8
 31
0.0
  0
LINE
  5
384
330
37A
100
AcDbEntity
  8
0
 62
0
100
AcDbLine
 10
274.0
 20
181.2
 30
0.0
 11
274.0
 21
175.2
 31
0.0
  0
LINE
  5
385
330
37A
100
AcDbEntity
  8
0
 62
0
100
AcDbLine
 10
274.0
 20
192.8
 30
0.0
 11
274.0
 21
187.2
 31
0.0
  0
MTEXT
  5
386
330
37A
100
AcDbEntity
  8
DK3S_DIM
100
AcDbMText
 10
281.25
 20
190.0
 30
0.0
 40
7.0
 71
5
  1
%%c1,4
  7
DK3S_GOST
 50
90.0
  0
POINT
  5
387
330
37A
100
AcDbEntity
  8
Defpoints
100
AcDbPoint
 10
274.0
 20
192.8
 30
0.0
  0
POINT
  5
388
330
37A
100
AcDbEntity
  8
Defpoints
100
AcDbPoint
 10
262.0
 20
192.8
 30
0.0
  0
POINT
  5
389
330
37A
100
AcDbEntity
  8
Defpoints
100
AcDbPoint
 10
262.0
 20
187.2
 30
0.0
  0
ENDBLK
  5
37C
330
37A
100
AcDbEntity
  8
0
100
AcDbBlockEnd
  0
BLOCK
  5
38C
330
38B
100
AcDbEntity
  8
0
100
AcDbBlockBegin
  2
*D23
 70
1
 10
0.0
 20
0.0
 30
0.0
  3
*D23
  1

  0
LINE
  5
38E
330
38B
100
AcDbEntity
  8
0
 62
0
100
AcDbLine
 10
254.0
 20
184.75
 30
0.0
 11
254.0
 21
161.5
 31
0.0
  0
LINE
  5
38F
330
38B
100
AcDbEntity
  8
0
 62
0
100
AcDbLine
 10
262.0
 20
184.75
 30
0.0
 11
262.0
 21
161.5
 31
0.0
  0
INSERT
  5
390
330
38B
100
AcDbEntity
  8
DK3S_DIM
 62
0
100
AcDbBlockReference
  2
_CLOSEDFILLED
 10
254.0
 20
164.0
 30
0.0
 41
6.0
 42
6.0
  0
INSERT
  5
392
330
38B
100
AcDbEntity
  8
DK3S_DIM
 62
0
100
AcDbBlockReference
  2
_CLOSEDFILLED
 10
262.0
 20
164.0
 30
0.0
 41
6.0
 42
6.0
 50
180.0
  0
LINE
  5
394
330
38B
100
AcDbEntity
  8
0
 62
0
100
AcDbLine
 10
248.0
 20
164.0
 30
0.0
 11
242.0
 21
164.0
 31
0.0
  0
LINE
  5
395
330
38B
100
AcDbEntity
  8
0
 62
0
100
AcDbLine
 10
268.0
 20
164.0
 30
0.0
 11
274.0
 21
164.0
 31
0.0
  0
LINE
  5
396
330
38B
100
AcDbEntity
  8
0
 62
0
100
AcDbLine
 10
254.0
 20
164.0
 30
0.0
 11
262.0
 21
164.0
 31
0.0
  0
MTEXT
  5
397
330
38B
100
AcDbEntity
  8
DK3S_DIM
100
AcDbMText
 10
258.0
 20
168.75
 30
0.0
 40
7.0
 71
5
  1
2
  7
DK3S_GOST
  0
POINT
  5
398
330
38B
100
AcDbEntity
  8
Defpoints
100
AcDbPoint
 10
254.0
 20
164.0
 30
0.0
  0
POINT
  5
399
330
38B
100
AcDbEntity
  8
Defpoints
100
AcDbPoint
 10
254.0
 20
186.0
 30
0.0
  0
POINT
  5
39A
330
38B
100
AcDbEntity
  8
Defpoints
100
AcDbPoint
 10
262.0
 20
186.0
 30
0.0
  0
ENDBLK
  5
38D
330
38B
100
AcDbEntity
  8
0
100
AcDbBlockEnd
  0
BLOCK
  5
39D
330
39C
100
AcDbEntity
  8
0
100
AcDbBlockBegin
  2
*D24
 70
1
 10
0.0
 20
0.0
 30
0.0
  3
*D24
  1

  0
LINE
  5
39F
330
39C
100
AcDbEntity
  8
0
 62
0
100
AcDbLine
 10
134.75
 20
202.0
 30
0.0
 11
133.5
 21
202.0
 31
0.0
  0
LINE
  5
3A0
330
39C
100
AcDbEntity
  8
0
 62
0
100
AcDbLine
 10
134.75
 20
178.0
 30
0.0
 11
133.5
 21
178.0
 31
0.0
  0
INSERT
  5
3A1
330
39C
100
AcDbEntity
  8
DK3S_DIM
 62
0
100
AcDbBlockReference
  2
_CLOSEDFILLED
 10
136.0
 20
202.0
 30
0.0
 41
6.0
 42
6.0
 50
270.0
  0
INSERT
  5
3A3
330
39C
100
AcDbEntity
  8
DK3S_DIM
 62
0
100
AcDbBlockReference
  2
_CLOSEDFILLED
 10
136.0
 20
178.0
 30
0.0
 41
6.0
 42
6.0
 50
90.0
  0
LINE
  5
3A5
330
39C
100
AcDbEntity
  8
0
 62
0
100
AcDbLine
 10
136.0
 20
208.0
 30
0.0
 11
136.0
 21
172.0
 31
0.0
  0
MTEXT
  5
3A6
330
39C
100
AcDbEntity
  8
DK3S_DIM
100
AcDbMText
 10
143.25
 20
190.0
 30
0.0
 40
7.0
 71
5
  1
%%c6
  7
DK3S_GOST
 50
90.0
  0
POINT
  5
3A7
330
39C
100
AcDbEntity
  8
Defpoints
100
AcDbPoint
 10
136.0
 20
202.0
 30
0.0
  0
POINT
  5
3A8
330
39C
100
AcDbEntity
  8
Defpoints
100
AcDbPoint
 10
136.0
 20
202.0
 30
0.0
  0
POINT
  5
3A9
330
39C
100
AcDbEntity
  8
Defpoints
100
AcDbPoint
 10
136.0
 20
178.0
 30
0.0
  0
ENDBLK
  5
39E
330
39C
100
AcDbEntity
  8
0
100
AcDbBlockEnd
  0
BLOCK
  5
3AC
330
3AB
100
AcDbEntity
  8
0
100
AcDbBlockBegin
  2
*D25
 70
1
 10
0.0
 20
0.0
 30
0.0
  3
*D25
  1

  0
LINE
  5
3AE
330
3AB
100
AcDbEntity
  8
0
 62
0
100
AcDbLine
 10
114.75
 20
196.0
 30
0.0
 11
113.5
 21
196.0
 31
0.0
  0
LINE
  5
3AF
330
3AB
100
AcDbEntity
  8
0
 62
0
100
AcDbLine
 10
114.75
 20
184.0
 30
0.0
 11
113.5
 21
184.0
 31
0.0
  0
INSERT
  5
3B0
330
3AB
100
AcDbEntity
  8
DK3S_DIM
 62
0
100
AcDbBlockReference
  2
_CLOSEDFILLED
 10
116.0
 20
196.0
 30
0.0
 41
6.0
 42
6.0
 50
90.0
  0
INSERT
  5
3B2
330
3AB
100
AcDbEntity
  8
DK3S_DIM
 62
0
100
AcDbBlockReference
  2
_CLOSEDFILLED
 10
116.0
 20
184.0
 30
0.0
 41
6.0
 42
6.0
 50
270.0
  0
LINE
  5
3B4
330
3AB
100
AcDbEntity
  8
0
 62
0
100
AcDbLine
 10
116.0
 20
202.0
 30
0.0
 11
116.0
 21
208.0
 31
0.0
  0
LINE
  5
3B5
330
3AB
100
AcDbEntity
  8
0
 62
0
100
AcDbLine
 10
116.0
 20
178.0
 30
0.0
 11
116.0
 21
172.0
 31
0.0
  0
LINE
  5
3B6
330
3AB
100
AcDbEntity
  8
0
 62
0
100
AcDbLine
 10
116.0
 20
196.0
 30
0.0
 11
116.0
 21
184.0
 31
0.0
  0
MTEXT
  5
3B7
330
3AB
100
AcDbEntity
  8
DK3S_DIM
100
AcDbMText
 10
123.25
 20
190.0
 30
0.0
 40
7.0
 71
5
  1
%%c3
  7
DK3S_GOST
 50
90.0
  0
POINT
  5
3B8
330
3AB
100
AcDbEntity
  8
Defpoints
100
AcDbPoint
 10
116.0
 20
196.0
 30
0.0
  0
POINT
  5
3B9
330
3AB
100
AcDbEntity
  8
Defpoints
100
AcDbPoint
 10
116.0
 20
196.0
 30
0.0
  0
POINT
  5
3BA
330
3AB
100
AcDbEntity
  8
Defpoints
100
AcDbPoint
 10
116.0
 20
184.0
 30
0.0
  0
ENDBLK
  5
3AD
330
3AB
100
AcDbEntity
  8
0
100
AcDbBlockEnd
  0
BLOCK
  5
3BD
330
3BC
100
AcDbEntity
  8
0
100
AcDbBlockBegin
  2
*D26
 70
1
 10
0.0
 20
0.0
 30
0.0
  3
*D26
  1

  0
LINE
  5
3BF
330
3BC
100
AcDbEntity
  8
0
 62
0
100
AcDbLine
 10
206.75
 20
204.0
 30
0.0
 11
205.5
 21
204.0
 31
0.0
  0
LINE
  5
3C0
330
3BC
100
AcDbEntity
  8
0
 62
0
100
AcDbLine
 10
206.75
 20
176.0
 30
0.0
 11
205.5
 21
176.0
 31
0.0
  0
INSERT
  5
3C1
330
3BC
100
AcDbEntity
  8
DK3S_DIM
 62
0
100
AcDbBlockReference
  2
_CLOSEDFILLED
 10
208.0
 20
204.0
 30
0.0
 41
6.0
 42
6.0
 50
270.0
  0
INSERT
  5
3C3
330
3BC
100
AcDbEntity
  8
DK3S_DIM
 62
0
100
AcDbBlockReference
  2
_CLOSEDFILLED
 10
208.0
 20
176.0
 30
0.0
 41
6.0
 42
6.0
 50
90.0
  0
LINE
  5
3C5
330
3BC
100
AcDbEntity
  8
0
 62
0
100
AcDbLine
 10
208.0
 20
210.0
 30
0.0
 11
208.0
 21
170.0
 31
0.0
  0
MTEXT
  5
3C6
330
3BC
100
AcDbEntity
  8
DK3S_DIM
100
AcDbMText
 10
215.25
 20
190.0
 30
0.0
 40
7.0
 71
5
  1
S6,35
  7
DK3S_GOST
 50
90.0
  0
POINT
  5
3C7
330
3BC
100
AcDbEntity
  8
Defpoints
100
AcDbPoint
 10
208.0
 20
204.0
 30
0.0
  0
POINT
  5
3C8
330
3BC
100
AcDbEntity
  8
Defpoints
100
AcDbPoint
 10
208.0
 20
204.0
 30
0.0
  0
POINT
  5
3C9
330
3BC
100
AcDbEntity
  8
Defpoints
100
AcDbPoint
 10
208.0
 20
176.0
 30
0.0
  0
ENDBLK
  5
3BE
330
3BC
100
AcDbEntity
  8
0
100
AcDbBlockEnd
  0
ENDSEC
  0
SECTION
  2
ENTITIES
  0
LWPOLYLINE
  5
93
330
17
100
AcDbEntity
  8
DK3S_THIN
100
AcDbPolyline
 90
4
 70
1
 10
0.0
 20
0.0
 10
840.0
 20
0.0
 10
840.0
 20
594.0
 10
0.0
 20
594.0
  0
LWPOLYLINE
  5
94
330
17
100
AcDbEntity
  8
DK3S_FRAME
100
AcDbPolyline
 90
4
 70
1
 10
40.0
 20
10.0
 10
830.0
 20
10.0
 10
830.0
 20
584.0
 10
40.0
 20
584.0
  0
LINE
  5
95
330
17
100
AcDbEntity
  8
DK3S_FRAME
100
AcDbLine
 10
460.0
 20
10.0
 30
0.0
 11
460.0
 21
120.0
 31
0.0
  0
LINE
  5
96
330
17
100
AcDbEntity
  8
DK3S_FRAME
100
AcDbLine
 10
460.0
 20
120.0
 30
0.0
 11
830.0
 21
120.0
 31
0.0
  0
LINE
  5
97
330
17
100
AcDbEntity
  8
DK3S_FRAME
100
AcDbLine
 10
590.0
 20
10.0
 30
0.0
 11
590.0
 21
120.0
 31
0.0
  0
LINE
  5
98
330
17
100
AcDbEntity
  8
DK3S_FRAME
100
AcDbLine
 10
474.0
 20
70.0
 30
0.0
 11
474.0
 21
120.0
 31
0.0
  0
LINE
  5
99
330
17
100
AcDbEntity
  8
DK3S_FRAME
100
AcDbLine
 10
494.0
 20
10.0
 30
0.0
 11
494.0
 21
120.0
 31
0.0
  0
LINE
  5
9A
330
17
100
AcDbEntity
  8
DK3S_FRAME
100
AcDbLine
 10
540.0
 20
10.0
 30
0.0
 11
540.0
 21
120.0
 31
0.0
  0
LINE
  5
9B
330
17
100
AcDbEntity
  8
DK3S_FRAME
100
AcDbLine
 10
570.0
 20
10.0
 30
0.0
 11
570.0
 21
120.0
 31
0.0
  0
LINE
  5
9C
330
17
100
AcDbEntity
  8
DK3S_FRAME
100
AcDbLine
 10
460.0
 20
70.0
 30
0.0
 11
590.0
 21
70.0
 31
0.0
  0
LINE
  5
9D
330
17
100
AcDbEntity
  8
DK3S_THIN
100
AcDbLine
 10
460.0
 20
20.0
 30
0.0
 11
590.0
 21
20.0
 31
0.0
  0
LINE
  5
9E
330
17
100
AcDbEntity
  8
DK3S_THIN
100
AcDbLine
 10
460.0
 20
30.0
 30
0.0
 11
590.0
 21
30.0
 31
0.0
  0
LINE
  5
9F
330
17
100
AcDbEntity
  8
DK3S_THIN
100
AcDbLine
 10
460.0
 20
40.0
 30
0.0
 11
590.0
 21
40.0
 31
0.0
  0
LINE
  5
A0
330
17
100
AcDbEntity
  8
DK3S_THIN
100
AcDbLine
 10
460.0
 20
50.0
 30
0.0
 11
590.0
 21
50.0
 31
0.0
  0
LINE
  5
A1
330
17
100
AcDbEntity
  8
DK3S_THIN
100
AcDbLine
 10
460.0
 20
60.0
 30
0.0
 11
590.0
 21
60.0
 31
0.0
  0
LINE
  5
A2
330
17
100
AcDbEntity
  8
DK3S_THIN
100
AcDbLine
 10
460.0
 20
80.0
 30
0.0
 11
590.0
 21
80.0
 31
0.0
  0
LINE
  5
A3
330
17
100
AcDbEntity
  8
DK3S_THIN
100
AcDbLine
 10
460.0
 20
90.0
 30
0.0
 11
590.0
 21
90.0
 31
0.0
  0
LINE
  5
A4
330
17
100
AcDbEntity
  8
DK3S_THIN
100
AcDbLine
 10
460.0
 20
100.0
 30
0.0
 11
590.0
 21
100.0
 31
0.0
  0
LINE
  5
A5
330
17
100
AcDbEntity
  8
DK3S_THIN
100
AcDbLine
 10
460.0
 20
110.0
 30
0.0
 11
590.0
 21
110.0
 31
0.0
  0
LINE
  5
A6
330
17
100
AcDbEntity
  8
DK3S_FRAME
100
AcDbLine
 10
590.0
 20
90.0
 30
0.0
 11
830.0
 21
90.0
 31
0.0
  0
LINE
  5
A7
330
17
100
AcDbEntity
  8
DK3S_FRAME
100
AcDbLine
 10
590.0
 20
40.0
 30
0.0
 11
730.0
 21
40.0
 31
0.0
  0
LINE
  5
A8
330
17
100
AcDbEntity
  8
DK3S_FRAME
100
AcDbLine
 10
730.0
 20
10.0
 30
0.0
 11
730.0
 21
90.0
 31
0.0
  0
LINE
  5
A9
330
17
100
AcDbEntity
  8
DK3S_FRAME
100
AcDbLine
 10
730.0
 20
80.0
 30
0.0
 11
830.0
 21
80.0
 31
0.0
  0
LINE
  5
AA
330
17
100
AcDbEntity
  8
DK3S_THIN
100
AcDbLine
 10
730.0
 20
70.0
 30
0.0
 11
830.0
 21
70.0
 31
0.0
  0
LINE
  5
AB
330
17
100
AcDbEntity
  8
DK3S_FRAME
100
AcDbLine
 10
730.0
 20
60.0
 30
0.0
 11
830.0
 21
60.0
 31
0.0
  0
LINE
  5
AC
330
17
100
AcDbEntity
  8
DK3S_FRAME
100
AcDbLine
 10
760.0
 20
70.0
 30
0.0
 11
760.0
 21
90.0
 31
0.0
  0
LINE
  5
AD
330
17
100
AcDbEntity
  8
DK3S_FRAME
100
AcDbLine
 10
800.0
 20
70.0
 30
0.0
 11
800.0
 21
90.0
 31
0.0
  0
LINE
  5
AE
330
17
100
AcDbEntity
  8
DK3S_THIN
100
AcDbLine
 10
740.0
 20
70.0
 30
0.0
 11
740.0
 21
80.0
 31
0.0
  0
LINE
  5
AF
330
17
100
AcDbEntity
  8
DK3S_THIN
100
AcDbLine
 10
750.0
 20
70.0
 30
0.0
 11
750.0
 21
80.0
 31
0.0
  0
LINE
  5
B0
330
17
100
AcDbEntity
  8
DK3S_THIN
100
AcDbLine
 10
770.0
 20
60.0
 30
0.0
 11
770.0
 21
70.0
 31
0.0
  0
TEXT
  5
B1
330
17
100
AcDbEntity
  8
DK3S_TEXT
100
AcDbText
 10
467.0
 20
72.0
 30
0.0
 40
6.0
  1
Изм.
  7
DK3S_GOST
 72
1
 11
467.0
 21
72.0
 31
0.0
100
AcDbText
  0
TEXT
  5
B2
330
17
100
AcDbEntity
  8
DK3S_TEXT
100
AcDbText
 10
484.0
 20
72.0
 30
0.0
 40
6.0
  1
Лист
  7
DK3S_GOST
 72
1
 11
484.0
 21
72.0
 31
0.0
100
AcDbText
  0
TEXT
  5
B3
330
17
100
AcDbEntity
  8
DK3S_TEXT
100
AcDbText
 10
517.0
 20
72.0
 30
0.0
 40
6.0
  1
№ докум.
  7
DK3S_GOST
 72
1
 11
517.0
 21
72.0
 31
0.0
100
AcDbText
  0
TEXT
  5
B4
330
17
100
AcDbEntity
  8
DK3S_TEXT
100
AcDbText
 10
555.0
 20
72.0
 30
0.0
 40
6.0
  1
Подп.
  7
DK3S_GOST
 72
1
 11
555.0
 21
72.0
 31
0.0
100
AcDbText
  0
TEXT
  5
B5
330
17
100
AcDbEntity
  8
DK3S_TEXT
100
AcDbText
 10
580.0
 20
72.0
 30
0.0
 40
6.0
  1
Дата
  7
DK3S_GOST
 72
1
 11
580.0
 21
72.0
 31
0.0
100
AcDbText
  0
TEXT
  5
B6
330
17
100
AcDbEntity
  8
DK3S_TEXT
100
AcDbText
 10
462.0
 20
62.0
 30
0.0
 40
6.0
  1
Разраб.
  7
DK3S_GOST
 11
462.0
 21
62.0
 31
0.0
100
AcDbText
  0
TEXT
  5
B7
330
17
100
AcDbEntity
  8
DK3S_TEXT
100
AcDbText
 10
462.0
 20
52.0
 30
0.0
 40
6.0
  1
Пров.
  7
DK3S_GOST
 11
462.0
 21
52.0
 31
0.0
100
AcDbText
  0
TEXT
  5
B8
330
17
100
AcDbEntity
  8
DK3S_TEXT
100
AcDbText
 10
462.0
 20
42.0
 30
0.0
 40
6.0
  1
Т.контр.
  7
DK3S_GOST
 11
462.0
 21
42.0
 31
0.0
100
AcDbText
  0
TEXT
  5
B9
330
17
100
AcDbEntity
  8
DK3S_TEXT
100
AcDbText
 10
462.0
 20
22.0
 30
0.0
 40
6.0
  1
Н.контр.
  7
DK3S_GOST
 11
462.0
 21
22.0
 31
0.0
100
AcDbText
  0
TEXT
  5
BA
330
17
100
AcDbEntity
  8
DK3S_TEXT
100
AcDbText
 10
462.0
 20
12.0
 30
0.0
 40
6.0
  1
Утв.
  7
DK3S_GOST
 11
462.0
 21
12.0
 31
0.0
100
AcDbText
  0
TEXT
  5
BB
330
17
100
AcDbEntity
  8
DK3S_TEXT
100
AcDbText
 10
745.0
 20
82.0
 30
0.0
 40
6.0
  1
Лит.
  7
DK3S_GOST
 72
1
 11
745.0
 21
82.0
 31
0.0
100
AcDbText
  0
TEXT
  5
BC
330
17
100
AcDbEntity
  8
DK3S_TEXT
100
AcDbText
 10
780.0
 20
82.0
 30
0.0
 40
6.0
  1
Масса
  7
DK3S_GOST
 72
1
 11
780.0
 21
82.0
 31
0.0
100
AcDbText
  0
TEXT
  5
BD
330
17
100
AcDbEntity
  8
DK3S_TEXT
100
AcDbText
 10
815.0
 20
82.0
 30
0.0
 40
6.0
  1
Масштаб
  7
DK3S_GOST
 72
1
 11
815.0
 21
82.0
 31
0.0
100
AcDbText
  0
TEXT
  5
BE
330
17
100
AcDbEntity
  8
DK3S_TEXT
100
AcDbText
 10
734.0
 20
62.0
 30
0.0
 40
6.0
  1
Лист
  7
DK3S_GOST
 11
734.0
 21
62.0
 31
0.0
100
AcDbText
  0
TEXT
  5
BF
330
17
100
AcDbEntity
  8
DK3S_TEXT
100
AcDbText
 10
774.0
 20
62.0
 30
0.0
 40
6.0
  1
Листов
  7
DK3S_GOST
 11
774.0
 21
62.0
 31
0.0
100
AcDbText
  0
LINE
  5
C0
330
17
100
AcDbEntity
  8
DK3S_FRAME
100
AcDbLine
 10
16.0
 20
10.0
 30
0.0
 11
16.0
 21
300.0
 31
0.0
  0
LINE
  5
C1
330
17
100
AcDbEntity
  8
DK3S_FRAME
100
AcDbLine
 10
16.0
 20
60.0
 30
0.0
 11
40.0
 21
60.0
 31
0.0
  0
LINE
  5
C2
330
17
100
AcDbEntity
  8
DK3S_FRAME
100
AcDbLine
 10
16.0
 20
130.0
 30
0.0
 11
40.0
 21
130.0
 31
0.0
  0
LINE
  5
C3
330
17
100
AcDbEntity
  8
DK3S_FRAME
100
AcDbLine
 10
16.0
 20
180.0
 30
0.0
 11
40.0
 21
180.0
 31
0.0
  0
LINE
  5
C4
330
17
100
AcDbEntity
  8
DK3S_FRAME
100
AcDbLine
 10
16.0
 20
230.0
 30
0.0
 11
40.0
 21
230.0
 31
0.0
  0
LINE
  5
C5
330
17
100
AcDbEntity
  8
DK3S_FRAME
100
AcDbLine
 10
16.0
 20
300.0
 30
0.0
 11
40.0
 21
300.0
 31
0.0
  0
TEXT
  5
C6
330
17
100
AcDbEntity
  8
DK3S_TEXT
100
AcDbText
 10
28.0
 20
35.0
 30
0.0
 40
5.0
  1
Инв. № подл.
 50
90.0
  7
DK3S_GOST
 72
1
 11
28.0
 21
35.0
 31
0.0
100
AcDbText
 73
2
  0
TEXT
  5
C7
330
17
100
AcDbEntity
  8
DK3S_TEXT
100
AcDbText
 10
28.0
 20
95.0
 30
0.0
 40
5.0
  1
Подп. и дата
 50
90.0
  7
DK3S_GOST
 72
1
 11
28.0
 21
95.0
 31
0.0
100
AcDbText
 73
2
  0
TEXT
  5
C8
330
17
100
AcDbEntity
  8
DK3S_TEXT
100
AcDbText
 10
28.0
 20
155.0
 30
0.0
 40
5.0
  1
Взам. инв. №
 50
90.0
  7
DK3S_GOST
 72
1
 11
28.0
 21
155.0
 31
0.0
100
AcDbText
 73
2
  0
TEXT
  5
C9
330
17
100
AcDbEntity
  8
DK3S_TEXT
100
AcDbText
 10
28.0
 20
205.0
 30
0.0
 40
5.0
  1
Инв. № дубл.
 50
90.0
  7
DK3S_GOST
 72
1
 11
28.0
 21
205.0
 31
0.0
100
AcDbText
 73
2
  0
TEXT
  5
CA
330
17
100
AcDbEntity
  8
DK3S_TEXT
100
AcDbText
 10
28.0
 20
265.0
 30
0.0
 40
5.0
  1
Подп. и дата
 50
90.0
  7
DK3S_GOST
 72
1
 11
28.0
 21
265.0
 31
0.0
100
AcDbText
 73
2
  0
LINE
  5
CB
330
17
100
AcDbEntity
  8
DK3S_FRAME
100
AcDbLine
 10
16.0
 20
344.0
 30
0.0
 11
16.0
 21
584.0
 31
0.0
  0
LINE
  5
CC
330
17
100
AcDbEntity
  8
DK3S_FRAME
100
AcDbLine
 10
16.0
 20
464.0
 30
0.0
 11
40.0
 21
464.0
 31
0.0
  0
LINE
  5
CD
330
17
100
AcDbEntity
  8
DK3S_FRAME
100
AcDbLine
 10
16.0
 20
344.0
 30
0.0
 11
40.0
 21
344.0
 31
0.0
  0
TEXT
  5
CE
330
17
100
AcDbEntity
  8
DK3S_TEXT
100
AcDbText
 10
28.0
 20
524.0
 30
0.0
 40
5.0
  1
Перв. примен.
 50
90.0
  7
DK3S_GOST
 72
1
 11
28.0
 21
524.0
 31
0.0
100
AcDbText
 73
2
  0
TEXT
  5
CF
330
17
100
AcDbEntity
  8
DK3S_TEXT
100
AcDbText
 10
28.0
 20
404.0
 30
0.0
 40
5.0
  1
Справ. №
 50
90.0
  7
DK3S_GOST
 72
1
 11
28.0
 21
404.0
 31
0.0
100
AcDbText
 73
2
  0
LWPOLYLINE
  5
D0
330
17
100
AcDbEntity
  8
DK3S_FRAME
100
AcDbPolyline
 90
4
 70
1
 10
40.0
 20
556.0
 10
180.0
 20
556.0
 10
180.0
 20
584.0
 10
40.0
 20
584.0
  0
TEXT
  5
D1
330
17
100
AcDbEntity
  8
DK3S_TEXT
100
AcDbText
 10
110.0
 20
570.0
 30
0.0
 40
10.0
  1
302123.000 ВО
 50
180.0
  7
DK3S_GOST
 72
1
 11
110.0
 21
570.0
 31
0.0
100
AcDbText
 73
2
  0
TEXT
  5
D2
330
17
100
AcDbEntity
  8
DK3S_TEXT
100
AcDbText
 10
660.0
 20
2.0
 30
0.0
 40
5.0
  1
Копировал
  7
DK3S_GOST
 72
1
 11
660.0
 21
2.0
 31
0.0
100
AcDbText
  0
TEXT
  5
D3
330
17
100
AcDbEntity
  8
DK3S_TEXT
100
AcDbText
 10
790.0
 20
2.0
 30
0.0
 40
5.0
  1
Формат А3
  7
DK3S_GOST
 72
1
 11
790.0
 21
2.0
 31
0.0
100
AcDbText
  0
TEXT
  5
D4
330
17
100
AcDbEntity
  8
DK3S_TEXT
100
AcDbText
 10
710.0
 20
101.0
 30
0.0
 40
10.0
  1
302123.000 ВО
  7
DK3S_GOST
 72
1
 11
710.0
 21
101.0
 31
0.0
100
AcDbText
  0
TEXT
  5
D5
330
17
100
AcDbEntity
  8
DK3S_TEXT
100
AcDbText
 10
660.0
 20
77.0
 30
0.0
 40
8.0
  1
Датчик концентрации
  7
DK3S_GOST
 72
1
 11
660.0
 21
77.0
 31
0.0
100
AcDbText
  0
TEXT
  5
D6
330
17
100
AcDbEntity
  8
DK3S_TEXT
100
AcDbText
 10
660.0
 20
62.0
 30
0.0
 40
8.0
  1
ДК-3С-210АВ
  7
DK3S_GOST
 72
1
 11
660.0
 21
62.0
 31
0.0
100
AcDbText
  0
TEXT
  5
D7
330
17
100
AcDbEntity
  8
DK3S_TEXT
100
AcDbText
 10
660.0
 20
47.0
 30
0.0
 40
8.0
  1
Общий вид
  7
DK3S_GOST
 72
1
 11
660.0
 21
47.0
 31
0.0
100
AcDbText
  0
TEXT
  5
D8
330
17
100
AcDbEntity
  8
DK3S_TEXT
100
AcDbText
 10
815.0
 20
71.0
 30
0.0
 40
10.0
  1
1:2
  7
DK3S_GOST
 72
1
 11
815.0
 21
71.0
 31
0.0
100
AcDbText
  0
TEXT
  5
D9
330
17
100
AcDbEntity
  8
DK3S_TEXT
100
AcDbText
 10
756.0
 20
62.0
 30
0.0
 40
6.0
  1
1
  7
DK3S_GOST
 11
756.0
 21
62.0
 31
0.0
100
AcDbText
  0
TEXT
  5
DA
330
17
100
AcDbEntity
  8
DK3S_TEXT
100
AcDbText
 10
810.0
 20
62.0
 30
0.0
 40
6.0
  1
1
  7
DK3S_GOST
 11
810.0
 21
62.0
 31
0.0
100
AcDbText
  0
TEXT
  5
DB
330
17
100
AcDbEntity
  8
DK3S_TEXT
100
AcDbText
 10
780.0
 20
30.0
 30
0.0
 40
8.0
  1
ООО НТП "Экор", Львов
  7
DK3S_GOST
 72
1
 11
780.0
 21
30.0
 31
0.0
100
AcDbText
  0
TEXT
  5
DC
330
17
100
AcDbEntity
  8
DK3S_TEXT
100
AcDbText
 10
496.0
 20
62.0
 30
0.0
 40
6.0
  1

  7
DK3S_GOST
 11
496.0
 21
62.0
 31
0.0
100
AcDbText
  0
TEXT
  5
DD
330
17
100
AcDbEntity
  8
DK3S_TEXT
100
AcDbText
 10
496.0
 20
52.0
 30
0.0
 40
6.0
  1

  7
DK3S_GOST
 11
496.0
 21
52.0
 31
0.0
100
AcDbText
  0
LINE
  5
DE
330
17
100
AcDbEntity
  8
DK3S_AXIS
100
AcDbLine
 10
90.0
 20
430.0
 30
0.0
 11
616.7
 21
430.0
 31
0.0
  0
LINE
  5
DF
330
17
100
AcDbEntity
  8
DK3S_CONTOUR
100
AcDbLine
 10
111.6
 20
444.0
 30
0.0
 11
100.0
 21
444.0
 31
0.0
  0
ARC
  5
E0
330
17
100
AcDbEntity
  8
DK3S_CONTOUR
100
AcDbCircle
 10
100.0
 20
440.0
 30
0.0
 40
4.0
100
AcDbArc
 50
90.0
 51
180.0
  0
LINE
  5
E1
330
17
100
AcDbEntity
  8
DK3S_CONTOUR
100
AcDbLine
 10
96.0
 20
440.0
 30
0.0
 11
96.0
 21
420.0
 31
0.0
  0
ARC
  5
E2
330
17
100
AcDbEntity
  8
DK3S_CONTOUR
100
AcDbCircle
 10
100.0
 20
420.0
 30
0.0
 40
4.0
100
AcDbArc
 50
180.0
 51
270.0
  0
LINE
  5
E3
330
17
100
AcDbEntity
  8
DK3S_CONTOUR
100
AcDbLine
 10
100.0
 20
416.0
 30
0.0
 11
111.6
 21
416.0
 31
0.0
  0
LINE
  5
E4
330
17
100
AcDbEntity
  8
DK3S_CONTOUR
100
AcDbLine
 10
111.6
 20
442.0
 30
0.0
 11
100.0
 21
442.0
 31
0.0
  0
ARC
  5
E5
330
17
100
AcDbEntity
  8
DK3S_CONTOUR
100
AcDbCircle
 10
100.0
 20
440.0
 30
0.0
 40
2.0
100
AcDbArc
 50
90.0
 51
180.0
  0
LINE
  5
E6
330
17
100
AcDbEntity
  8
DK3S_CONTOUR
100
AcDbLine
 10
98.0
 20
440.0
 30
0.0
 11
98.0
 21
420.0
 31
0.0
  0
ARC
  5
E7
330
17
100
AcDbEntity
  8
DK3S_CONTOUR
100
AcDbCircle
 10
100.0
 20
420.0
 30
0.0
 40
2.0
100
AcDbArc
 50
180.0
 51
270.0
  0
LINE
  5
E8
330
17
100
AcDbEntity
  8
DK3S_CONTOUR
100
AcDbLine
 10
100.0
 20
418.0
 30
0.0
 11
111.6
 21
418.0
 31
0.0
  0
LINE
  5
E9
330
17
100
AcDbEntity
  8
DK3S_CONTOUR
100
AcDbLine
 10
98.0
 20
431.0
 30
0.0
 11
111.6
 21
431.0
 31
0.0
  0
LINE
  5
EA
330
17
100
AcDbEntity
  8
DK3S_CONTOUR
100
AcDbLine
 10
98.0
 20
429.0
 30
0.0
 11
111.6
 21
429.0
 31
0.0
  0
LINE
  5
EB
330
17
100
AcDbEntity
  8
DK3S_CONTOUR
100
AcDbLine
 10
107.9
 20
439.0
 30
0.0
 11
111.6
 21
439.0
 31
0.0
  0
LINE
  5
EC
330
17
100
AcDbEntity
  8
DK3S_CONTOUR
100
AcDbLine
 10
107.9
 20
432.0
 30
0.0
 11
111.6
 21
432.0
 31
0.0
  0
LINE
  5
ED
330
17
100
AcDbEntity
  8
DK3S_CONTOUR
100
AcDbLine
 10
107.9
 20
437.3330871046771
 30
0.0
 11
111.6
 21
437.3330871046771
 31
0.0
  0
LINE
  5
EE
330
17
100
AcDbEntity
  8
DK3S_CONTOUR
100
AcDbLine
 10
107.9
 20
433.6669128953229
 30
0.0
 11
111.6
 21
433.6669128953229
 31
0.0
  0
LINE
  5
EF
330
17
100
AcDbEntity
  8
DK3S_CONTOUR
100
AcDbLine
 10
107.9
 20
432.0
 30
0.0
 11
107.9
 21
439.0
 31
0.0
  0
LINE
  5
F0
330
17
100
AcDbEntity
  8
DK3S_CONTOUR
100
AcDbLine
 10
107.9
 20
439.0
 30
0.0
 11
105.4
 21
436.5
 31
0.0
  0
LINE
  5
F1
330
17
100
AcDbEntity
  8
DK3S_CONTOUR
100
AcDbLine
 10
107.9
 20
432.0
 30
0.0
 11
105.4
 21
434.5
 31
0.0
  0
LINE
  5
F2
330
17
100
AcDbEntity
  8
DK3S_CONTOUR
100
AcDbLine
 10
105.4
 20
434.5
 30
0.0
 11
105.4
 21
436.5
 31
0.0
  0
LINE
  5
F3
330
17
100
AcDbEntity
  8
DK3S_CONTOUR
100
AcDbLine
 10
103.4
 20
436.2
 30
0.0
 11
105.4
 21
436.2
 31
0.0
  0
LINE
  5
F4
330
17
100
AcDbEntity
  8
DK3S_CONTOUR
100
AcDbLine
 10
103.4
 20
434.8
 30
0.0
 11
105.4
 21
434.8
 31
0.0
  0
LINE
  5
F5
330
17
100
AcDbEntity
  8
DK3S_CONTOUR
100
AcDbLine
 10
103.4
 20
434.8
 30
0.0
 11
103.4
 21
436.2
 31
0.0
  0
LINE
  5
F6
330
17
100
AcDbEntity
  8
DK3S_CONTOUR
100
AcDbLine
 10
111.6
 20
414.0
 30
0.0
 11
111.6
 21
446.0
 31
0.0
  0
LINE
  5
F7
330
17
100
AcDbEntity
  8
DK3S_CONTOUR
100
AcDbLine
 10
111.6
 20
446.0
 30
0.0
 11
320.8
 21
446.0
 31
0.0
  0
LINE
  5
F8
330
17
100
AcDbEntity
  8
DK3S_CONTOUR
100
AcDbLine
 10
111.6
 20
414.0
 30
0.0
 11
320.8
 21
414.0
 31
0.0
  0
CIRCLE
  5
F9
330
17
100
AcDbEntity
  8
DK3S_CONTOUR
100
AcDbCircle
 10
121.5
 20
430.0
 30
0.0
 40
3.0
  0
CIRCLE
  5
FA
330
17
100
AcDbEntity
  8
DK3S_CONTOUR
100
AcDbCircle
 10
141.5
 20
430.0
 30
0.0
 40
3.0
  0
CIRCLE
  5
FB
330
17
100
AcDbEntity
  8
DK3S_CONTOUR
100
AcDbCircle
 10
161.5
 20
430.0
 30
0.0
 40
3.0
  0
LWPOLYLINE
  5
FC
330
17
100
AcDbEntity
  8
DK3S_CONTOUR
100
AcDbPolyline
 90
32
 70
1
 10
134.5
 20
439.2381078121488
 10
134.4423558412097
 20
439.530743295173
 10
134.27163859753387
 20
439.8121329606965
 10
133.99440883690764
 20
440.07146316167825
 10
133.62132034355963
 20
440.29876798392866
 10
133.1667106990588
 20
440.48531223060263
 10
132.64805029709527
 20
440.62392711091576
 10
132.0852709660484
 20
440.7092857327537
 10
131.5
 20
440.7381078121488
 10
130.9147290339516
 20
440.7092857327537
 10
130.35194970290473
 20
440.62392711091576
 10
129.8332893009412
 20
440.48531223060263
 10
129.37867965644037
 20
440.29876798392866
 10
129.00559116309236
 20
440.07146316167825
 10
128.72836140246613
 20
439.8121329606965
 10
128.5576441587903
 20
439.530743295173
 10
128.5
 20
439.2381078121488
 10
128.5576441587903
 20
438.94547232912464
 10
128.72836140246613
 20
438.66408266360116
 10
129.00559116309236
 20
438.4047524626194
 10
129.37867965644037
 20
438.177447640369
 10
129.8332893009412
 20
437.990903393695
 10
130.35194970290473
 20
437.8522885133819
 10
130.9147290339516
 20
437.76692989154395
 10
131.5
 20
437.7381078121488
 10
132.0852709660484
 20
437.76692989154395
 10
132.64805029709527
 20
437.8522885133819
 10
133.1667106990588
 20
437.990903393695
 10
133.62132034355963
 20
438.177447640369
 10
133.99440883690764
 20
438.4047524626194
 10
134.27163859753387
 20
438.66408266360116
 10
134.4423558412097
 20
438.94547232912464
  0
LWPOLYLINE
  5
FD
330
17
100
AcDbEntity
  8
DK3S_CONTOUR
100
AcDbPolyline
 90
32
 70
1
 10
134.5
 20
420.7618921878512
 10
134.4423558412097
 20
421.05452767087536
 10
134.27163859753387
 20
421.33591733639884
 10
133.99440883690764
 20
421.5952475373806
 10
133.62132034355963
 20
421.822552359631
 10
133.1667106990588
 20
422.009096606305
 10
132.64805029709527
 20
422.1477114866181
 10
132.0852709660484
 20
422.23307010845605
 10
131.5
 20
422.2618921878512
 10
130.9147290339516
 20
422.23307010845605
 10
130.35194970290473
 20
422.1477114866181
 10
129.8332893009412
 20
422.009096606305
 10
129.37867965644037
 20
421.822552359631
 10
129.00559116309236
 20
421.5952475373806
 10
128.72836140246613
 20
421.33591733639884
 10
128.5576441587903
 20
421.05452767087536
 10
128.5
 20
420.7618921878512
 10
128.5576441587903
 20
420.469256704827
 10
128.72836140246613
 20
420.1878670393035
 10
129.00559116309236
 20
419.92853683832175
 10
129.37867965644037
 20
419.70123201607134
 10
129.8332893009412
 20
419.51468776939737
 10
130.35194970290473
 20
419.37607288908424
 10
130.9147290339516
 20
419.2907142672463
 10
131.5
 20
419.2618921878512
 10
132.0852709660484
 20
419.2907142672463
 10
132.64805029709527
 20
419.37607288908424
 10
133.1667106990588
 20
419.51468776939737
 10
133.62132034355963
 20
419.70123201607134
 10
133.99440883690764
 20
419.92853683832175
 10
134.27163859753387
 20
420.1878670393035
 10
134.4423558412097
 20
420.469256704827
  0
LWPOLYLINE
  5
FE
330
17
100
AcDbEntity
  8
DK3S_CONTOUR
100
AcDbPolyline
 90
32
 70
1
 10
154.5
 20
439.2381078121488
 10
154.4423558412097
 20
439.530743295173
 10
154.27163859753387
 20
439.8121329606965
 10
153.99440883690764
 20
440.07146316167825
 10
153.62132034355963
 20
440.29876798392866
 10
153.1667106990588
 20
440.48531223060263
 10
152.64805029709527
 20
440.62392711091576
 10
152.0852709660484
 20
440.7092857327537
 10
151.5
 20
440.7381078121488
 10
150.9147290339516
 20
440.7092857327537
 10
150.35194970290473
 20
440.62392711091576
 10
149.8332893009412
 20
440.48531223060263
 10
149.37867965644037
 20
440.29876798392866
 10
149.00559116309236
 20
440.07146316167825
 10
148.72836140246613
 20
439.8121329606965
 10
148.5576441587903
 20
439.530743295173
 10
148.5
 20
439.2381078121488
 10
148.5576441587903
 20
438.94547232912464
 10
148.72836140246613
 20
438.66408266360116
 10
149.00559116309236
 20
438.4047524626194
 10
149.37867965644037
 20
438.177447640369
 10
149.8332893009412
 20
437.990903393695
 10
150.35194970290473
 20
437.8522885133819
 10
150.9147290339516
 20
437.76692989154395
 10
151.5
 20
437.7381078121488
 10
152.0852709660484
 20
437.76692989154395
 10
152.64805029709527
 20
437.8522885133819
 10
153.1667106990588
 20
437.990903393695
 10
153.62132034355963
 20
438.177447640369
 10
153.99440883690764
 20
438.4047524626194
 10
154.27163859753387
 20
438.66408266360116
 10
154.4423558412097
 20
438.94547232912464
  0
LWPOLYLINE
  5
FF
330
17
100
AcDbEntity
  8
DK3S_CONTOUR
100
AcDbPolyline
 90
32
 70
1
 10
154.5
 20
420.7618921878512
 10
154.4423558412097
 20
421.05452767087536
 10
154.27163859753387
 20
421.33591733639884
 10
153.99440883690764
 20
421.5952475373806
 10
153.62132034355963
 20
421.822552359631
 10
153.1667106990588
 20
422.009096606305
 10
152.64805029709527
 20
422.1477114866181
 10
152.0852709660484
 20
422.23307010845605
 10
151.5
 20
422.2618921878512
 10
150.9147290339516
 20
422.23307010845605
 10
150.35194970290473
 20
422.1477114866181
 10
149.8332893009412
 20
422.009096606305
 10
149.37867965644037
 20
421.822552359631
 10
149.00559116309236
 20
421.5952475373806
 10
148.72836140246613
 20
421.33591733639884
 10
148.5576441587903
 20
421.05452767087536
 10
148.5
 20
420.7618921878512
 10
148.5576441587903
 20
420.469256704827
 10
148.72836140246613
 20
420.1878670393035
 10
149.00559116309236
 20
419.92853683832175
 10
149.37867965644037
 20
419.70123201607134
 10
149.8332893009412
 20
419.51468776939737
 10
150.35194970290473
 20
419.37607288908424
 10
150.9147290339516
 20
419.2907142672463
 10
151.5
 20
419.2618921878512
 10
152.0852709660484
 20
419.2907142672463
 10
152.64805029709527
 20
419.37607288908424
 10
153.1667106990588
 20
419.51468776939737
 10
153.62132034355963
 20
419.70123201607134
 10
153.99440883690764
 20
419.92853683832175
 10
154.27163859753387
 20
420.1878670393035
 10
154.4423558412097
 20
420.469256704827
  0
LINE
  5
100
330
17
100
AcDbEntity
  8
DK3S_CONTOUR
100
AcDbLine
 10
320.8
 20
414.0
 30
0.0
 11
320.8
 21
410.0
 31
0.0
  0
LINE
  5
101
330
17
100
AcDbEntity
  8
DK3S_CONTOUR
100
AcDbLine
 10
320.8
 20
446.0
 30
0.0
 11
320.8
 21
450.0
 31
0.0
  0
LINE
  5
102
330
17
100
AcDbEntity
  8
DK3S_CONTOUR
100
AcDbLine
 10
320.8
 20
450.0
 30
0.0
 11
321.8
 21
451.0
 31
0.0
  0
LINE
  5
103
330
17
100
AcDbEntity
  8
DK3S_CONTOUR
100
AcDbLine
 10
320.8
 20
410.0
 30
0.0
 11
321.8
 21
409.0
 31
0.0
  0
LINE
  5
104
330
17
100
AcDbEntity
  8
DK3S_CONTOUR
100
AcDbLine
 10
321.8
 20
451.0
 30
0.0
 11
349.8
 21
451.0
 31
0.0
  0
LINE
  5
105
330
17
100
AcDbEntity
  8
DK3S_CONTOUR
100
AcDbLine
 10
321.8
 20
409.0
 30
0.0
 11
349.8
 21
409.0
 31
0.0
  0
LINE
  5
106
330
17
100
AcDbEntity
  8
DK3S_THIN
100
AcDbLine
 10
321.8
 20
449.37625
 30
0.0
 11
349.8
 21
449.37625
 31
0.0
  0
LINE
  5
107
330
17
100
AcDbEntity
  8
DK3S_THIN
100
AcDbLine
 10
321.8
 20
410.62375
 30
0.0
 11
349.8
 21
410.62375
 31
0.0
  0
LINE
  5
108
330
17
100
AcDbEntity
  8
DK3S_CONTOUR
100
AcDbLine
 10
349.8
 20
409.0
 30
0.0
 11
349.8
 21
451.0
 31
0.0
  0
LINE
  5
109
330
17
100
AcDbEntity
  8
DK3S_CONTOUR
100
AcDbLine
 10
349.8
 20
449.5
 30
0.0
 11
354.8
 21
449.5
 31
0.0
  0
LINE
  5
10A
330
17
100
AcDbEntity
  8
DK3S_CONTOUR
100
AcDbLine
 10
349.8
 20
410.5
 30
0.0
 11
354.8
 21
410.5
 31
0.0
  0
LINE
  5
10B
330
17
100
AcDbEntity
  8
DK3S_CONTOUR
100
AcDbLine
 10
354.8
 20
400.5
 30
0.0
 11
354.8
 21
459.5
 31
0.0
  0
LINE
  5
10C
330
17
100
AcDbEntity
  8
DK3S_CONTOUR
100
AcDbLine
 10
354.8
 20
459.5
 30
0.0
 11
361.8
 21
459.5
 31
0.0
  0
LINE
  5
10D
330
17
100
AcDbEntity
  8
DK3S_CONTOUR
100
AcDbLine
 10
354.8
 20
400.5
 30
0.0
 11
361.8
 21
400.5
 31
0.0
  0
LINE
  5
10E
330
17
100
AcDbEntity
  8
DK3S_CONTOUR
100
AcDbLine
 10
361.8
 20
400.5
 30
0.0
 11
361.8
 21
459.5
 31
0.0
  0
LINE
  5
10F
330
17
100
AcDbEntity
  8
DK3S_CONTOUR
100
AcDbLine
 10
361.8
 20
456.5581123827228
 30
0.0
 11
379.7
 21
456.5581123827228
 31
0.0
  0
LINE
  5
110
330
17
100
AcDbEntity
  8
DK3S_CONTOUR
100
AcDbLine
 10
361.8
 20
403.4418876172772
 30
0.0
 11
379.7
 21
403.4418876172772
 31
0.0
  0
LINE
  5
111
330
17
100
AcDbEntity
  8
DK3S_CONTOUR
100
AcDbLine
 10
361.8
 20
443.2790561913614
 30
0.0
 11
379.7
 21
443.2790561913614
 31
0.0
  0
LINE
  5
112
330
17
100
AcDbEntity
  8
DK3S_CONTOUR
100
AcDbLine
 10
361.8
 20
416.7209438086386
 30
0.0
 11
379.7
 21
416.7209438086386
 31
0.0
  0
LINE
  5
113
330
17
100
AcDbEntity
  8
DK3S_CONTOUR
100
AcDbLine
 10
361.8
 20
403.4418876172772
 30
0.0
 11
361.8
 21
456.5581123827228
 31
0.0
  0
LINE
  5
114
330
17
100
AcDbEntity
  8
DK3S_CONTOUR
100
AcDbLine
 10
379.7
 20
403.4418876172772
 30
0.0
 11
379.7
 21
456.5581123827228
 31
0.0
  0
LINE
  5
115
330
17
100
AcDbEntity
  8
DK3S_CONTOUR
100
AcDbLine
 10
379.7
 20
456.5581123827228
 30
0.0
 11
381.8
 21
453.0
 31
0.0
  0
LINE
  5
116
330
17
100
AcDbEntity
  8
DK3S_CONTOUR
100
AcDbLine
 10
379.7
 20
403.4418876172772
 30
0.0
 11
381.8
 21
407.0
 31
0.0
  0
LINE
  5
117
330
17
100
AcDbEntity
  8
DK3S_CONTOUR
100
AcDbLine
 10
381.8
 20
407.0
 30
0.0
 11
381.8
 21
453.0
 31
0.0
  0
LINE
  5
118
330
17
100
AcDbEntity
  8
DK3S_CONTOUR
100
AcDbLine
 10
381.8
 20
446.5
 30
0.0
 11
389.2
 21
446.5
 31
0.0
  0
LINE
  5
119
330
17
100
AcDbEntity
  8
DK3S_CONTOUR
100
AcDbLine
 10
381.8
 20
413.5
 30
0.0
 11
389.2
 21
413.5
 31
0.0
  0
LINE
  5
11A
330
17
100
AcDbEntity
  8
DK3S_THIN
100
AcDbLine
 10
381.8
 20
445.4175
 30
0.0
 11
389.2
 21
445.4175
 31
0.0
  0
LINE
  5
11B
330
17
100
AcDbEntity
  8
DK3S_THIN
100
AcDbLine
 10
381.8
 20
414.5825
 30
0.0
 11
389.2
 21
414.5825
 31
0.0
  0
LINE
  5
11C
330
17
100
AcDbEntity
  8
DK3S_CONTOUR
100
AcDbLine
 10
389.2
 20
413.5
 30
0.0
 11
389.2
 21
446.5
 31
0.0
  0
LINE
  5
11D
330
17
100
AcDbEntity
  8
DK3S_CONTOUR
100
AcDbLine
 10
389.2
 20
445.0
 30
0.0
 11
392.6
 21
445.0
 31
0.0
  0
LINE
  5
11E
330
17
100
AcDbEntity
  8
DK3S_CONTOUR
100
AcDbLine
 10
389.2
 20
415.0
 30
0.0
 11
392.6
 21
415.0
 31
0.0
  0
LINE
  5
11F
330
17
100
AcDbEntity
  8
DK3S_CONTOUR
100
AcDbLine
 10
392.6
 20
450.7846096908265
 30
0.0
 11
401.0
 21
450.7846096908265
 31
0.0
  0
LINE
  5
120
330
17
100
AcDbEntity
  8
DK3S_CONTOUR
100
AcDbLine
 10
392.6
 20
409.2153903091735
 30
0.0
 11
401.0
 21
409.2153903091735
 31
0.0
  0
LINE
  5
121
330
17
100
AcDbEntity
  8
DK3S_CONTOUR
100
AcDbLine
 10
392.6
 20
440.39230484541326
 30
0.0
 11
401.0
 21
440.39230484541326
 31
0.0
  0
LINE
  5
122
330
17
100
AcDbEntity
  8
DK3S_CONTOUR
100
AcDbLine
 10
392.6
 20
419.60769515458674
 30
0.0
 11
401.0
 21
419.60769515458674
 31
0.0
  0
LINE
  5
123
330
17
100
AcDbEntity
  8
DK3S_CONTOUR
100
AcDbLine
 10
392.6
 20
409.2153903091735
 30
0.0
 11
392.6
 21
450.7846096908265
 31
0.0
  0
LINE
  5
124
330
17
100
AcDbEntity
  8
DK3S_CONTOUR
100
AcDbLine
 10
401.0
 20
409.2153903091735
 30
0.0
 11
401.0
 21
450.7846096908265
 31
0.0
  0
LINE
  5
125
330
17
100
AcDbEntity
  8
DK3S_CONTOUR
100
AcDbLine
 10
401.0
 20
450.7846096908265
 30
0.0
 11
402.6
 21
448.0
 31
0.0
  0
LINE
  5
126
330
17
100
AcDbEntity
  8
DK3S_CONTOUR
100
AcDbLine
 10
401.0
 20
409.2153903091735
 30
0.0
 11
402.6
 21
412.0
 31
0.0
  0
LINE
  5
127
330
17
100
AcDbEntity
  8
DK3S_CONTOUR
100
AcDbLine
 10
402.6
 20
412.0
 30
0.0
 11
402.6
 21
448.0
 31
0.0
  0
LINE
  5
128
330
17
100
AcDbEntity
  8
DK3S_CONTOUR
100
AcDbLine
 10
402.6
 20
440.4
 30
0.0
 11
410.6
 21
440.4
 31
0.0
  0
LINE
  5
129
330
17
100
AcDbEntity
  8
DK3S_CONTOUR
100
AcDbLine
 10
402.6
 20
419.6
 30
0.0
 11
410.6
 21
419.6
 31
0.0
  0
LINE
  5
12A
330
17
100
AcDbEntity
  8
DK3S_CONTOUR
100
AcDbLine
 10
410.6
 20
419.6
 30
0.0
 11
410.6
 21
440.4
 31
0.0
  0
LINE
  5
12B
330
17
100
AcDbEntity
  8
DK3S_CONTOUR
100
AcDbLine
 10
410.6
 20
439.4
 30
0.0
 11
411.6
 21
439.4
 31
0.0
  0
LINE
  5
12C
330
17
100
AcDbEntity
  8
DK3S_CONTOUR
100
AcDbLine
 10
410.6
 20
420.6
 30
0.0
 11
411.6
 21
420.6
 31
0.0
  0
LINE
  5
12D
330
17
100
AcDbEntity
  8
DK3S_CONTOUR
100
AcDbLine
 10
411.6
 20
420.6
 30
0.0
 11
411.6
 21
439.4
 31
0.0
  0
LINE
  5
12E
330
17
100
AcDbEntity
  8
DK3S_CONTOUR
100
AcDbLine
 10
411.6
 20
438.0
 30
0.0
 11
421.2
 21
437.7
 31
0.0
  0
LINE
  5
12F
330
17
100
AcDbEntity
  8
DK3S_CONTOUR
100
AcDbLine
 10
411.6
 20
422.0
 30
0.0
 11
421.2
 21
422.3
 31
0.0
  0
LWPOLYLINE
  5
130
330
17
100
AcDbEntity
  8
DK3S_CONTOUR
100
AcDbPolyline
 90
4
 70
1
 10
421.2
 20
422.0
 10
431.1
 20
422.0
 10
431.1
 20
438.0
 10
421.2
 20
438.0
  0
TEXT
  5
131
330
17
100
AcDbEntity
  8
DK3S_TEXT
100
AcDbText
 10
426.15
 20
430.0
 30
0.0
 40
4.0
  1
ЭК
  7
DK3S_GOST
 72
1
 11
426.15
 21
430.0
 31
0.0
100
AcDbText
 73
2
  0
LINE
  5
132
330
17
100
AcDbEntity
  8
DK3S_CONTOUR
100
AcDbLine
 10
431.1
 20
433.0
 30
0.0
 11
463.0
 21
433.0
 31
0.0
  0
LINE
  5
133
330
17
100
AcDbEntity
  8
DK3S_CONTOUR
100
AcDbLine
 10
431.1
 20
427.0
 30
0.0
 11
463.0
 21
427.0
 31
0.0
  0
LINE
  5
134
330
17
100
AcDbEntity
  8
DK3S_CONTOUR
100
AcDbLine
 10
470.6
 20
433.0
 30
0.0
 11
563.2
 21
433.0
 31
0.0
  0
LINE
  5
135
330
17
100
AcDbEntity
  8
DK3S_CONTOUR
100
AcDbLine
 10
470.6
 20
427.0
 30
0.0
 11
563.2
 21
427.0
 31
0.0
  0
LINE
  5
136
330
17
100
AcDbEntity
  8
DK3S_CONTOUR
100
AcDbLine
 10
570.8
 20
433.0
 30
0.0
 11
579.7
 21
433.0
 31
0.0
  0
LINE
  5
137
330
17
100
AcDbEntity
  8
DK3S_CONTOUR
100
AcDbLine
 10
570.8
 20
427.0
 30
0.0
 11
579.7
 21
427.0
 31
0.0
  0
LINE
  5
138
330
17
100
AcDbEntity
  8
DK3S_CONTOUR
100
AcDbLine
 10
431.1
 20
436.2
 30
0.0
 11
463.0
 21
436.2
 31
0.0
  0
LINE
  5
139
330
17
100
AcDbEntity
  8
DK3S_CONTOUR
100
AcDbLine
 10
431.1
 20
423.8
 30
0.0
 11
463.0
 21
423.8
 31
0.0
  0
LINE
  5
13A
330
17
100
AcDbEntity
  8
DK3S_CONTOUR
100
AcDbLine
 10
470.6
 20
436.2
 30
0.0
 11
563.2
 21
436.2
 31
0.0
  0
LINE
  5
13B
330
17
100
AcDbEntity
  8
DK3S_CONTOUR
100
AcDbLine
 10
470.6
 20
423.8
 30
0.0
 11
563.2
 21
423.8
 31
0.0
  0
LINE
  5
13C
330
17
100
AcDbEntity
  8
DK3S_CONTOUR
100
AcDbLine
 10
570.8
 20
436.2
 30
0.0
 11
572.0
 21
436.2
 31
0.0
  0
LINE
  5
13D
330
17
100
AcDbEntity
  8
DK3S_CONTOUR
100
AcDbLine
 10
570.8
 20
423.8
 30
0.0
 11
572.0
 21
423.8
 31
0.0
  0
LWPOLYLINE
  5
13E
330
17
100
AcDbEntity
  8
DK3S_CONTOUR
100
AcDbPolyline
 90
4
 70
1
 10
463.0
 20
423.2
 10
470.6
 20
423.2
 10
470.6
 20
436.8
 10
463.0
 20
436.8
  0
LWPOLYLINE
  5
13F
330
17
100
AcDbEntity
  8
DK3S_CONTOUR
100
AcDbPolyline
 90
4
 70
1
 10
563.2
 20
423.2
 10
570.8
 20
423.2
 10
570.8
 20
436.8
 10
563.2
 20
436.8
  0
LINE
  5
140
330
17
100
AcDbEntity
  8
DK3S_CONTOUR
100
AcDbLine
 10
579.7
 20
426.0
 30
0.0
 11
579.7
 21
434.0
 31
0.0
  0
LINE
  5
141
330
17
100
AcDbEntity
  8
DK3S_CONTOUR
100
AcDbLine
 10
579.7
 20
434.0
 30
0.0
 11
581.7
 21
434.0
 31
0.0
  0
LINE
  5
142
330
17
100
AcDbEntity
  8
DK3S_CONTOUR
100
AcDbLine
 10
579.7
 20
426.0
 30
0.0
 11
581.7
 21
426.0
 31
0.0
  0
LINE
  5
143
330
17
100
AcDbEntity
  8
DK3S_CONTOUR
100
AcDbLine
 10
581.7
 20
426.0
 30
0.0
 11
581.7
 21
434.0
 31
0.0
  0
LINE
  5
144
330
17
100
AcDbEntity
  8
DK3S_CONTOUR
100
AcDbLine
 10
581.7
 20
433.25
 30
0.0
 11
595.7
 21
433.25
 31
0.0
  0
LINE
  5
145
330
17
100
AcDbEntity
  8
DK3S_CONTOUR
100
AcDbLine
 10
581.7
 20
426.75
 30
0.0
 11
595.7
 21
426.75
 31
0.0
  0
LINE
  5
146
330
17
100
AcDbEntity
  8
DK3S_CONTOUR
100
AcDbLine
 10
595.7
 20
426.75
 30
0.0
 11
595.7
 21
433.25
 31
0.0
  0
LINE
  5
147
330
17
100
AcDbEntity
  8
DK3S_CONTOUR
100
AcDbLine
 10
595.7
 20
431.25
 30
0.0
 11
610.7
 21
431.25
 31
0.0
  0
LINE
  5
148
330
17
100
AcDbEntity
  8
DK3S_CONTOUR
100
AcDbLine
 10
595.7
 20
428.75
 30
0.0
 11
610.7
 21
428.75
 31
0.0
  0
LINE
  5
149
330
17
100
AcDbEntity
  8
DK3S_CONTOUR
100
AcDbLine
 10
610.7
 20
431.25
 30
0.0
 11
611.7
 21
430.5
 31
0.0
  0
LINE
  5
14A
330
17
100
AcDbEntity
  8
DK3S_CONTOUR
100
AcDbLine
 10
610.7
 20
428.75
 30
0.0
 11
611.7
 21
429.5
 31
0.0
  0
LINE
  5
14B
330
17
100
AcDbEntity
  8
DK3S_CONTOUR
100
AcDbLine
 10
611.7
 20
429.5
 30
0.0
 11
611.7
 21
430.5
 31
0.0
  0
LINE
  5
14C
330
17
100
AcDbEntity
  8
DK3S_CONTOUR
100
AcDbLine
 10
379.7
 20
406.9
 30
0.0
 11
577.9
 21
406.9
 31
0.0
  0
LINE
  5
14D
330
17
100
AcDbEntity
  8
DK3S_CONTOUR
100
AcDbLine
 10
379.7
 20
403.9
 30
0.0
 11
577.9
 21
403.9
 31
0.0
  0
LINE
  5
14E
330
17
100
AcDbEntity
  8
DK3S_CONTOUR
100
AcDbLine
 10
577.9
 20
401.4
 30
0.0
 11
577.9
 21
409.4
 31
0.0
  0
LINE
  5
14F
330
17
100
AcDbEntity
  8
DK3S_CONTOUR
100
AcDbLine
 10
577.9
 20
409.4
 30
0.0
 11
579.9
 21
409.4
 31
0.0
  0
LINE
  5
150
330
17
100
AcDbEntity
  8
DK3S_CONTOUR
100
AcDbLine
 10
577.9
 20
401.4
 30
0.0
 11
579.9
 21
401.4
 31
0.0
  0
LINE
  5
151
330
17
100
AcDbEntity
  8
DK3S_CONTOUR
100
AcDbLine
 10
579.9
 20
401.4
 30
0.0
 11
579.9
 21
409.4
 31
0.0
  0
LINE
  5
152
330
17
100
AcDbEntity
  8
DK3S_CONTOUR
100
AcDbLine
 10
579.9
 20
408.65
 30
0.0
 11
593.9
 21
408.65
 31
0.0
  0
LINE
  5
153
330
17
100
AcDbEntity
  8
DK3S_CONTOUR
100
AcDbLine
 10
579.9
 20
402.15
 30
0.0
 11
593.9
 21
402.15
 31
0.0
  0
LINE
  5
154
330
17
100
AcDbEntity
  8
DK3S_CONTOUR
100
AcDbLine
 10
593.9
 20
402.15
 30
0.0
 11
593.9
 21
408.65
 31
0.0
  0
LINE
  5
155
330
17
100
AcDbEntity
  8
DK3S_CONTOUR
100
AcDbLine
 10
593.9
 20
406.65
 30
0.0
 11
608.9
 21
406.65
 31
0.0
  0
LINE
  5
156
330
17
100
AcDbEntity
  8
DK3S_CONTOUR
100
AcDbLine
 10
593.9
 20
404.15
 30
0.0
 11
608.9
 21
404.15
 31
0.0
  0
LINE
  5
157
330
17
100
AcDbEntity
  8
DK3S_CONTOUR
100
AcDbLine
 10
608.9
 20
406.65
 30
0.0
 11
609.9
 21
405.9
 31
0.0
  0
LINE
  5
158
330
17
100
AcDbEntity
  8
DK3S_CONTOUR
100
AcDbLine
 10
608.9
 20
404.15
 30
0.0
 11
609.9
 21
404.9
 31
0.0
  0
LINE
  5
159
330
17
100
AcDbEntity
  8
DK3S_CONTOUR
100
AcDbLine
 10
609.9
 20
404.9
 30
0.0
 11
609.9
 21
405.9
 31
0.0
  0
ARC
  5
15A
330
17
100
AcDbEntity
  8
DK3S_CONTOUR
100
AcDbCircle
 10
572.0
 20
467.83804945054953
 30
0.0
 40
31.63804945054951
100
AcDbArc
 50
270.0
 51
313.4297854175017
  0
ARC
  5
15B
330
17
100
AcDbEntity
  8
DK3S_CONTOUR
100
AcDbCircle
 10
572.0
 20
467.83804945054953
 30
0.0
 40
34.83804945054951
100
AcDbArc
 50
270.0
 51
313.4297854175017
  0
ARC
  5
15C
330
17
100
AcDbEntity
  8
DK3S_CONTOUR
100
AcDbCircle
 10
617.7
 20
419.5619505494505
 30
0.0
 40
31.63804945054951
100
AcDbArc
 50
90.0
 51
133.4297854175017
  0
ARC
  5
15D
330
17
100
AcDbEntity
  8
DK3S_CONTOUR
100
AcDbCircle
 10
617.7
 20
419.5619505494505
 30
0.0
 40
34.83804945054951
100
AcDbArc
 50
90.0
 51
133.4297854175017
  0
ARC
  5
15E
330
17
100
AcDbEntity
  8
DK3S_CONTOUR
100
AcDbCircle
 10
572.0
 20
392.16195054945047
 30
0.0
 40
31.63804945054951
100
AcDbArc
 50
46.570214582498295
 51
90.0
  0
ARC
  5
15F
330
17
100
AcDbEntity
  8
DK3S_CONTOUR
100
AcDbCircle
 10
572.0
 20
392.16195054945047
 30
0.0
 40
34.83804945054951
100
AcDbArc
 50
46.570214582498295
 51
90.0
  0
ARC
  5
160
330
17
100
AcDbEntity
  8
DK3S_CONTOUR
100
AcDbCircle
 10
617.7
 20
440.4380494505495
 30
0.0
 40
31.63804945054951
100
AcDbArc
 50
226.5702145824983
 51
270.0
  0
ARC
  5
161
330
17
100
AcDbEntity
  8
DK3S_CONTOUR
100
AcDbCircle
 10
617.7
 20
440.4380494505495
 30
0.0
 40
34.83804945054951
100
AcDbArc
 50
226.5702145824983
 51
270.0
  0
LINE
  5
162
330
17
100
AcDbEntity
  8
DK3S_CONTOUR
100
AcDbLine
 10
617.7
 20
442.8
 30
0.0
 11
617.7
 21
462.8
 31
0.0
  0
LINE
  5
163
330
17
100
AcDbEntity
  8
DK3S_CONTOUR
100
AcDbLine
 10
617.7
 20
462.8
 30
0.0
 11
641.8000000000001
 21
462.8
 31
0.0
  0
LINE
  5
164
330
17
100
AcDbEntity
  8
DK3S_CONTOUR
100
AcDbLine
 10
617.7
 20
442.8
 30
0.0
 11
641.8000000000001
 21
442.8
 31
0.0
  0
LINE
  5
165
330
17
100
AcDbEntity
  8
DK3S_CONTOUR
100
AcDbLine
 10
641.8000000000001
 20
442.8
 30
0.0
 11
641.8000000000001
 21
462.8
 31
0.0
  0
LINE
  5
166
330
17
100
AcDbEntity
  8
DK3S_CONTOUR
100
AcDbLine
 10
641.8000000000001
 20
460.8
 30
0.0
 11
644.8000000000001
 21
460.8
 31
0.0
  0
LINE
  5
167
330
17
100
AcDbEntity
  8
DK3S_CONTOUR
100
AcDbLine
 10
641.8000000000001
 20
444.8
 30
0.0
 11
644.8000000000001
 21
444.8
 31
0.0
  0
LINE
  5
168
330
17
100
AcDbEntity
  8
DK3S_CONTOUR
100
AcDbLine
 10
644.8000000000001
 20
442.8
 30
0.0
 11
644.8000000000001
 21
462.8
 31
0.0
  0
LINE
  5
169
330
17
100
AcDbEntity
  8
DK3S_CONTOUR
100
AcDbLine
 10
644.8000000000001
 20
462.8
 30
0.0
 11
678.8000000000001
 21
462.8
 31
0.0
  0
LINE
  5
16A
330
17
100
AcDbEntity
  8
DK3S_CONTOUR
100
AcDbLine
 10
644.8000000000001
 20
442.8
 30
0.0
 11
678.8000000000001
 21
442.8
 31
0.0
  0
LINE
  5
16B
330
17
100
AcDbEntity
  8
DK3S_CONTOUR
100
AcDbLine
 10
678.8000000000001
 20
442.8
 30
0.0
 11
678.8000000000001
 21
462.8
 31
0.0
  0
LINE
  5
16C
330
17
100
AcDbEntity
  8
DK3S_CONTOUR
100
AcDbLine
 10
678.8000000000001
 20
456.05
 30
0.0
 11
679.8000000000001
 21
456.05
 31
0.0
  0
LINE
  5
16D
330
17
100
AcDbEntity
  8
DK3S_CONTOUR
100
AcDbLine
 10
678.8000000000001
 20
449.55
 30
0.0
 11
679.8000000000001
 21
449.55
 31
0.0
  0
LINE
  5
16E
330
17
100
AcDbEntity
  8
DK3S_CONTOUR
100
AcDbLine
 10
679.8000000000001
 20
448.8
 30
0.0
 11
679.8000000000001
 21
456.8
 31
0.0
  0
LINE
  5
16F
330
17
100
AcDbEntity
  8
DK3S_CONTOUR
100
AcDbLine
 10
679.8000000000001
 20
456.8
 30
0.0
 11
681.8000000000001
 21
456.8
 31
0.0
  0
LINE
  5
170
330
17
100
AcDbEntity
  8
DK3S_CONTOUR
100
AcDbLine
 10
679.8000000000001
 20
448.8
 30
0.0
 11
681.8000000000001
 21
448.8
 31
0.0
  0
LINE
  5
171
330
17
100
AcDbEntity
  8
DK3S_CONTOUR
100
AcDbLine
 10
681.8000000000001
 20
448.8
 30
0.0
 11
681.8000000000001
 21
456.8
 31
0.0
  0
LINE
  5
172
330
17
100
AcDbEntity
  8
DK3S_CONTOUR
100
AcDbLine
 10
681.8000000000001
 20
456.05
 30
0.0
 11
695.8000000000001
 21
456.05
 31
0.0
  0
LINE
  5
173
330
17
100
AcDbEntity
  8
DK3S_CONTOUR
100
AcDbLine
 10
681.8000000000001
 20
449.55
 30
0.0
 11
695.8000000000001
 21
449.55
 31
0.0
  0
LINE
  5
174
330
17
100
AcDbEntity
  8
DK3S_CONTOUR
100
AcDbLine
 10
695.8000000000001
 20
449.55
 30
0.0
 11
695.8000000000001
 21
456.05
 31
0.0
  0
LINE
  5
175
330
17
100
AcDbEntity
  8
DK3S_CONTOUR
100
AcDbLine
 10
695.8000000000001
 20
454.05
 30
0.0
 11
710.8000000000001
 21
454.05
 31
0.0
  0
LINE
  5
176
330
17
100
AcDbEntity
  8
DK3S_CONTOUR
100
AcDbLine
 10
695.8000000000001
 20
451.55
 30
0.0
 11
710.8000000000001
 21
451.55
 31
0.0
  0
LINE
  5
177
330
17
100
AcDbEntity
  8
DK3S_CONTOUR
100
AcDbLine
 10
710.8000000000001
 20
454.05
 30
0.0
 11
711.8000000000001
 21
453.3
 31
0.0
  0
LINE
  5
178
330
17
100
AcDbEntity
  8
DK3S_CONTOUR
100
AcDbLine
 10
710.8000000000001
 20
451.55
 30
0.0
 11
711.8000000000001
 21
452.3
 31
0.0
  0
LINE
  5
179
330
17
100
AcDbEntity
  8
DK3S_CONTOUR
100
AcDbLine
 10
711.8000000000001
 20
452.3
 30
0.0
 11
711.8000000000001
 21
453.3
 31
0.0
  0
LINE
  5
17A
330
17
100
AcDbEntity
  8
DK3S_AXIS
100
AcDbLine
 10
612.7
 20
452.8
 30
0.0
 11
713.8000000000001
 21
452.8
 31
0.0
  0
LINE
  5
17B
330
17
100
AcDbEntity
  8
DK3S_CONTOUR
100
AcDbLine
 10
617.7
 20
397.2
 30
0.0
 11
617.7
 21
417.2
 31
0.0
  0
LINE
  5
17C
330
17
100
AcDbEntity
  8
DK3S_CONTOUR
100
AcDbLine
 10
617.7
 20
417.2
 30
0.0
 11
641.8000000000001
 21
417.2
 31
0.0
  0
LINE
  5
17D
330
17
100
AcDbEntity
  8
DK3S_CONTOUR
100
AcDbLine
 10
617.7
 20
397.2
 30
0.0
 11
641.8000000000001
 21
397.2
 31
0.0
  0
LINE
  5
17E
330
17
100
AcDbEntity
  8
DK3S_CONTOUR
100
AcDbLine
 10
641.8000000000001
 20
397.2
 30
0.0
 11
641.8000000000001
 21
417.2
 31
0.0
  0
LINE
  5
17F
330
17
100
AcDbEntity
  8
DK3S_CONTOUR
100
AcDbLine
 10
641.8000000000001
 20
415.2
 30
0.0
 11
644.8000000000001
 21
415.2
 31
0.0
  0
LINE
  5
180
330
17
100
AcDbEntity
  8
DK3S_CONTOUR
100
AcDbLine
 10
641.8000000000001
 20
399.2
 30
0.0
 11
644.8000000000001
 21
399.2
 31
0.0
  0
LINE
  5
181
330
17
100
AcDbEntity
  8
DK3S_CONTOUR
100
AcDbLine
 10
644.8000000000001
 20
397.2
 30
0.0
 11
644.8000000000001
 21
417.2
 31
0.0
  0
LINE
  5
182
330
17
100
AcDbEntity
  8
DK3S_CONTOUR
100
AcDbLine
 10
644.8000000000001
 20
417.2
 30
0.0
 11
678.8000000000001
 21
417.2
 31
0.0
  0
LINE
  5
183
330
17
100
AcDbEntity
  8
DK3S_CONTOUR
100
AcDbLine
 10
644.8000000000001
 20
397.2
 30
0.0
 11
678.8000000000001
 21
397.2
 31
0.0
  0
LINE
  5
184
330
17
100
AcDbEntity
  8
DK3S_CONTOUR
100
AcDbLine
 10
678.8000000000001
 20
397.2
 30
0.0
 11
678.8000000000001
 21
417.2
 31
0.0
  0
LINE
  5
185
330
17
100
AcDbEntity
  8
DK3S_CONTOUR
100
AcDbLine
 10
678.8000000000001
 20
410.45
 30
0.0
 11
679.8000000000001
 21
410.45
 31
0.0
  0
LINE
  5
186
330
17
100
AcDbEntity
  8
DK3S_CONTOUR
100
AcDbLine
 10
678.8000000000001
 20
403.95
 30
0.0
 11
679.8000000000001
 21
403.95
 31
0.0
  0
LINE
  5
187
330
17
100
AcDbEntity
  8
DK3S_CONTOUR
100
AcDbLine
 10
679.8000000000001
 20
403.2
 30
0.0
 11
679.8000000000001
 21
411.2
 31
0.0
  0
LINE
  5
188
330
17
100
AcDbEntity
  8
DK3S_CONTOUR
100
AcDbLine
 10
679.8000000000001
 20
411.2
 30
0.0
 11
681.8000000000001
 21
411.2
 31
0.0
  0
LINE
  5
189
330
17
100
AcDbEntity
  8
DK3S_CONTOUR
100
AcDbLine
 10
679.8000000000001
 20
403.2
 30
0.0
 11
681.8000000000001
 21
403.2
 31
0.0
  0
LINE
  5
18A
330
17
100
AcDbEntity
  8
DK3S_CONTOUR
100
AcDbLine
 10
681.8000000000001
 20
403.2
 30
0.0
 11
681.8000000000001
 21
411.2
 31
0.0
  0
LINE
  5
18B
330
17
100
AcDbEntity
  8
DK3S_CONTOUR
100
AcDbLine
 10
681.8000000000001
 20
410.45
 30
0.0
 11
695.8000000000001
 21
410.45
 31
0.0
  0
LINE
  5
18C
330
17
100
AcDbEntity
  8
DK3S_CONTOUR
100
AcDbLine
 10
681.8000000000001
 20
403.95
 30
0.0
 11
695.8000000000001
 21
403.95
 31
0.0
  0
LINE
  5
18D
330
17
100
AcDbEntity
  8
DK3S_CONTOUR
100
AcDbLine
 10
695.8000000000001
 20
403.95
 30
0.0
 11
695.8000000000001
 21
410.45
 31
0.0
  0
LINE
  5
18E
330
17
100
AcDbEntity
  8
DK3S_CONTOUR
100
AcDbLine
 10
695.8000000000001
 20
408.45
 30
0.0
 11
710.8000000000001
 21
408.45
 31
0.0
  0
LINE
  5
18F
330
17
100
AcDbEntity
  8
DK3S_CONTOUR
100
AcDbLine
 10
695.8000000000001
 20
405.95
 30
0.0
 11
710.8000000000001
 21
405.95
 31
0.0
  0
LINE
  5
190
330
17
100
AcDbEntity
  8
DK3S_CONTOUR
100
AcDbLine
 10
710.8000000000001
 20
408.45
 30
0.0
 11
711.8000000000001
 21
407.7
 31
0.0
  0
LINE
  5
191
330
17
100
AcDbEntity
  8
DK3S_CONTOUR
100
AcDbLine
 10
710.8000000000001
 20
405.95
 30
0.0
 11
711.8000000000001
 21
406.7
 31
0.0
  0
LINE
  5
192
330
17
100
AcDbEntity
  8
DK3S_CONTOUR
100
AcDbLine
 10
711.8000000000001
 20
406.7
 30
0.0
 11
711.8000000000001
 21
407.7
 31
0.0
  0
LINE
  5
193
330
17
100
AcDbEntity
  8
DK3S_AXIS
100
AcDbLine
 10
612.7
 20
407.2
 30
0.0
 11
713.8000000000001
 21
407.2
 31
0.0
  0
DIMENSION
  5
194
330
17
100
AcDbEntity
  8
DK3S_DIM
100
AcDbDimension
280
0
  2
*D1
  3
DK3S
 10
96.0
 20
390.0
 30
0.0
 11
108.75
 21
397.25
 31
0.0
 70
32
 71
5
  1
<>
100
AcDbAlignedDimension
 13
96.0
 23
430.0
 33
0.0
 14
121.5
 24
430.0
 34
0.0
 50
0.0
100
AcDbRotatedDimension
  0
DIMENSION
  5
1A3
330
17
100
AcDbEntity
  8
DK3S_DIM
100
AcDbDimension
280
0
  2
*D2
  3
DK3S
 10
121.5
 20
390.0
 30
0.0
 11
131.5
 21
394.75
 31
0.0
 70
32
 71
5
  1
<>
100
AcDbAlignedDimension
 13
121.5
 23
430.0
 33
0.0
 14
141.5
 24
430.0
 34
0.0
 50
0.0
100
AcDbRotatedDimension
  0
DIMENSION
  5
1B2
330
17
100
AcDbEntity
  8
DK3S_DIM
100
AcDbDimension
280
0
  2
*D3
  3
DK3S
 10
141.5
 20
390.0
 30
0.0
 11
151.5
 21
394.75
 31
0.0
 70
32
 71
5
  1
<>
100
AcDbAlignedDimension
 13
141.5
 23
430.0
 33
0.0
 14
161.5
 24
430.0
 34
0.0
 50
0.0
100
AcDbRotatedDimension
  0
DIMENSION
  5
1C1
330
17
100
AcDbEntity
  8
DK3S_DIM
100
AcDbDimension
280
0
  2
*D4
  3
DK3S
 10
111.6
 20
374.0
 30
0.0
 11
216.2
 21
378.75
 31
0.0
 70
32
 71
5
  1
<>
100
AcDbAlignedDimension
 13
111.6
 23
414.0
 33
0.0
 14
320.8
 24
414.0
 34
0.0
 50
0.0
100
AcDbRotatedDimension
  0
DIMENSION
  5
1D0
330
17
100
AcDbEntity
  8
DK3S_DIM
100
AcDbDimension
280
0
  2
*D5
  3
DK3S
 10
96.0
 20
360.0
 30
0.0
 11
228.9
 21
364.75
 31
0.0
 70
32
 71
5
  1
<>
100
AcDbAlignedDimension
 13
96.0
 23
430.0
 33
0.0
 14
361.8
 24
400.5
 34
0.0
 50
0.0
100
AcDbRotatedDimension
  0
DIMENSION
  5
1DF
330
17
100
AcDbEntity
  8
DK3S_DIM
100
AcDbDimension
280
0
  2
*D6
  3
DK3S
 10
361.8
 20
360.0
 30
0.0
 11
535.8000000000001
 21
364.75
 31
0.0
 70
32
 71
5
  1
<>
100
AcDbAlignedDimension
 13
361.8
 23
400.5
 33
0.0
 14
709.8000000000001
 24
407.2
 34
0.0
 50
0.0
100
AcDbRotatedDimension
  0
DIMENSION
  5
1EE
330
17
100
AcDbEntity
  8
DK3S_DIM
100
AcDbDimension
280
0
  2
*D7
  3
DK3S
 10
96.0
 20
346.0
 30
0.0
 11
402.90000000000003
 21
350.75
 31
0.0
 70
32
 71
5
  1
*<>
100
AcDbAlignedDimension
 13
96.0
 23
430.0
 33
0.0
 14
709.8000000000001
 24
407.2
 34
0.0
 50
0.0
100
AcDbRotatedDimension
  0
DIMENSION
  5
1FD
330
17
100
AcDbEntity
  8
DK3S_DIM
100
AcDbDimension
280
0
  2
*D8
  3
DK3S
 10
96.0
 20
472.0
 30
0.0
 11
103.8
 21
479.25
 31
0.0
 70
32
 71
5
  1
<>
100
AcDbAlignedDimension
 13
96.0
 23
444.0
 33
0.0
 14
111.6
 24
444.0
 34
0.0
 50
0.0
100
AcDbRotatedDimension
  0
DIMENSION
  5
20C
330
17
100
AcDbEntity
  8
DK3S_DIM
100
AcDbDimension
280
0
  2
*D9
  3
DK3S
 10
226.0
 20
446.0
 30
0.0
 11
233.25
 21
430.0
 31
0.0
 70
32
 71
5
  1
%%c<>
100
AcDbAlignedDimension
 13
226.0
 23
446.0
 33
0.0
 14
226.0
 24
414.0
 34
0.0
 50
90.0
100
AcDbRotatedDimension
  0
DIMENSION
  5
21B
330
17
100
AcDbEntity
  8
DK3S_DIM
100
AcDbDimension
280
0
  2
*D10
  3
DK3S
 10
342.0
 20
451.0
 30
0.0
 11
346.75
 21
430.0
 31
0.0
 70
32
 71
5
  1
M<>x3
100
AcDbAlignedDimension
 13
342.0
 23
451.0
 33
0.0
 14
342.0
 24
409.0
 34
0.0
 50
90.0
100
AcDbRotatedDimension
  0
DIMENSION
  5
22A
330
17
100
AcDbEntity
  8
DK3S_DIM
100
AcDbDimension
280
0
  2
*D11
  3
DK3S
 10
358.3
 20
459.5
 30
0.0
 11
363.05
 21
430.0
 31
0.0
 70
32
 71
5
  1
%%c<>
100
AcDbAlignedDimension
 13
358.3
 23
459.5
 33
0.0
 14
358.3
 24
400.5
 34
0.0
 50
90.0
100
AcDbRotatedDimension
  0
DIMENSION
  5
239
330
17
100
AcDbEntity
  8
DK3S_DIM
100
AcDbDimension
280
0
  2
*D12
  3
DK3S
 10
370.75
 20
453.0
 30
0.0
 11
375.5
 21
430.0
 31
0.0
 70
32
 71
5
  1
S<>
100
AcDbAlignedDimension
 13
370.75
 23
453.0
 33
0.0
 14
370.75
 24
407.0
 34
0.0
 50
90.0
100
AcDbRotatedDimension
  0
DIMENSION
  5
248
330
17
100
AcDbEntity
  8
DK3S_DIM
100
AcDbDimension
280
0
  2
*D13
  3
DK3S
 10
396.8
 20
448.0
 30
0.0
 11
401.55
 21
430.0
 31
0.0
 70
32
 71
5
  1
S<>
100
AcDbAlignedDimension
 13
396.8
 23
448.0
 33
0.0
 14
396.8
 24
412.0
 34
0.0
 50
90.0
100
AcDbRotatedDimension
  0
DIMENSION
  5
257
330
17
100
AcDbEntity
  8
DK3S_DIM
100
AcDbDimension
280
0
  2
*D14
  3
DK3S
 10
385.5
 20
446.5
 30
0.0
 11
392.75
 21
430.0
 31
0.0
 70
32
 71
5
  1
M<>x2
100
AcDbAlignedDimension
 13
385.5
 23
446.5
 33
0.0
 14
385.5
 24
413.5
 34
0.0
 50
90.0
100
AcDbRotatedDimension
  0
DIMENSION
  5
266
330
17
100
AcDbEntity
  8
DK3S_DIM
100
AcDbDimension
280
0
  2
*D15
  3
DK3S
 10
406.6
 20
440.4
 30
0.0
 11
413.85
 21
430.0
 31
0.0
 70
32
 71
5
  1
%%c<>
100
AcDbAlignedDimension
 13
406.6
 23
440.4
 33
0.0
 14
406.6
 24
419.6
 34
0.0
 50
90.0
100
AcDbRotatedDimension
  0
DIMENSION
  5
275
330
17
100
AcDbEntity
  8
DK3S_DIM
100
AcDbDimension
280
0
  2
*D16
  3
DK3S
 10
320.8
 20
390.0
 30
0.0
 11
351.3
 21
394.75
 31
0.0
 70
32
 71
5
  1
<>
100
AcDbAlignedDimension
 13
320.8
 23
409.0
 33
0.0
 14
381.8
 24
407.0
 34
0.0
 50
0.0
100
AcDbRotatedDimension
  0
DIMENSION
  5
284
330
17
100
AcDbEntity
  8
DK3S_DIM
100
AcDbDimension
280
0
  2
*D17
  3
DK3S
 10
551.0
 20
433.0
 30
0.0
 11
558.25
 21
430.0
 31
0.0
 70
32
 71
5
  1
%%c<>
100
AcDbAlignedDimension
 13
551.0
 23
433.0
 33
0.0
 14
551.0
 24
427.0
 34
0.0
 50
90.0
100
AcDbRotatedDimension
  0
DIMENSION
  5
295
330
17
100
AcDbEntity
  8
DK3S_DIM
100
AcDbDimension
280
0
  2
*D18
  3
DK3S
 10
536.0
 20
406.9
 30
0.0
 11
543.25
 21
405.4
 31
0.0
 70
32
 71
5
  1
%%c<>
100
AcDbAlignedDimension
 13
536.0
 23
406.9
 33
0.0
 14
536.0
 24
403.9
 34
0.0
 50
90.0
100
AcDbRotatedDimension
  0
DIMENSION
  5
2A6
330
17
100
AcDbEntity
  8
DK3S_DIM
100
AcDbDimension
280
0
  2
*D19
  3
DK3S
 10
661.0
 20
462.8
 30
0.0
 11
668.25
 21
452.8
 31
0.0
 70
32
 71
5
  1
%%c<>
100
AcDbAlignedDimension
 13
661.0
 23
462.8
 33
0.0
 14
661.0
 24
442.8
 34
0.0
 50
90.0
100
AcDbRotatedDimension
  0
DIMENSION
  5
2B5
330
17
100
AcDbEntity
  8
DK3S_DIM
100
AcDbDimension
280
0
  2
*D20
  3
DK3S
 10
617.7
 20
474.8
 30
0.0
 11
648.25
 21
479.55
 31
0.0
 70
32
 71
5
  1
<>
100
AcDbAlignedDimension
 13
617.7
 23
462.8
 33
0.0
 14
678.8000000000001
 24
462.8
 34
0.0
 50
0.0
100
AcDbRotatedDimension
  0
DIMENSION
  5
2C4
330
17
100
AcDbEntity
  8
DK3S_DIM
100
AcDbDimension
280
0
  2
*D21
  3
DK3S
 10
723.8000000000001
 20
452.8
 30
0.0
 11
728.5500000000001
 21
430.0
 31
0.0
 70
32
 71
5
  1
<>
100
AcDbAlignedDimension
 13
713.8000000000001
 23
452.8
 33
0.0
 14
713.8000000000001
 24
407.2
 34
0.0
 50
90.0
100
AcDbRotatedDimension
  0
LWPOLYLINE
  5
2D3
330
17
100
AcDbEntity
  8
DK3S_THIN
100
AcDbPolyline
 90
2
 70
1
 43
1.0
 10
109.35
 20
439.0
 40
1.0
 41
1.0
 42
1.0
 10
109.85
 20
439.0
 40
1.0
 41
1.0
 42
1.0
  0
LINE
  5
2D4
330
17
100
AcDbEntity
  8
DK3S_THIN
100
AcDbLine
 10
109.6
 20
439.0
 30
0.0
 11
118.0
 21
482.0
 31
0.0
  0
LINE
  5
2D5
330
17
100
AcDbEntity
  8
DK3S_THIN
100
AcDbLine
 10
118.0
 20
482.0
 30
0.0
 11
193.60000000000002
 21
482.0
 31
0.0
  0
TEXT
  5
2D6
330
17
100
AcDbEntity
  8
DK3S_TEXT
100
AcDbText
 10
118.0
 20
483.75
 30
0.0
 40
7.0
  1
Наконечник (см. А)
  7
DK3S_GOST
 11
118.0
 21
483.75
 31
0.0
100
AcDbText
  0
LWPOLYLINE
  5
2D7
330
17
100
AcDbEntity
  8
DK3S_THIN
100
AcDbPolyline
 90
2
 70
1
 43
1.0
 10
345.75
 20
451.0
 40
1.0
 41
1.0
 42
1.0
 10
346.25
 20
451.0
 40
1.0
 41
1.0
 42
1.0
  0
LINE
  5
2D8
330
17
100
AcDbEntity
  8
DK3S_THIN
100
AcDbLine
 10
346.0
 20
451.0
 30
0.0
 11
322.0
 21
482.0
 31
0.0
  0
LINE
  5
2D9
330
17
100
AcDbEntity
  8
DK3S_THIN
100
AcDbLine
 10
322.0
 20
482.0
 30
0.0
 11
397.6
 21
482.0
 31
0.0
  0
TEXT
  5
2DA
330
17
100
AcDbEntity
  8
DK3S_TEXT
100
AcDbText
 10
322.0
 20
483.75
 30
0.0
 40
7.0
  1
Корпус 714.761.000
  7
DK3S_GOST
 11
322.0
 21
483.75
 31
0.0
100
AcDbText
  0
LWPOLYLINE
  5
2DB
330
17
100
AcDbEntity
  8
DK3S_THIN
100
AcDbPolyline
 90
2
 70
1
 43
1.0
 10
466.55
 20
436.8
 40
1.0
 41
1.0
 42
1.0
 10
467.05
 20
436.8
 40
1.0
 41
1.0
 42
1.0
  0
LINE
  5
2DC
330
17
100
AcDbEntity
  8
DK3S_THIN
100
AcDbLine
 10
466.8
 20
436.8
 30
0.0
 11
468.0
 21
482.0
 31
0.0
  0
LINE
  5
2DD
330
17
100
AcDbEntity
  8
DK3S_THIN
100
AcDbLine
 10
468.0
 20
482.0
 30
0.0
 11
489.0
 21
482.0
 31
0.0
  0
TEXT
  5
2DE
330
17
100
AcDbEntity
  8
DK3S_TEXT
100
AcDbText
 10
468.0
 20
483.75
 30
0.0
 40
7.0
  1
Хомут
  7
DK3S_GOST
 11
468.0
 21
483.75
 31
0.0
100
AcDbText
  0
LWPOLYLINE
  5
2DF
330
17
100
AcDbEntity
  8
DK3S_THIN
100
AcDbPolyline
 90
2
 70
1
 43
1.0
 10
587.75
 20
433.25
 40
1.0
 41
1.0
 42
1.0
 10
588.25
 20
433.25
 40
1.0
 41
1.0
 42
1.0
  0
LINE
  5
2E0
330
17
100
AcDbEntity
  8
DK3S_THIN
100
AcDbLine
 10
588.0
 20
433.25
 30
0.0
 11
551.0
 21
482.0
 31
0.0
  0
LINE
  5
2E1
330
17
100
AcDbEntity
  8
DK3S_THIN
100
AcDbLine
 10
551.0
 20
482.0
 30
0.0
 11
668.6
 21
482.0
 31
0.0
  0
TEXT
  5
2E2
330
17
100
AcDbEntity
  8
DK3S_TEXT
100
AcDbText
 10
551.0
 20
483.75
 30
0.0
 40
7.0
  1
Токоотвод рабочего электрода
  7
DK3S_GOST
 11
551.0
 21
483.75
 31
0.0
100
AcDbText
  0
LWPOLYLINE
  5
2E3
330
17
100
AcDbEntity
  8
DK3S_THIN
100
AcDbPolyline
 90
2
 70
1
 43
1.0
 10
245.75
 20
446.0
 40
1.0
 41
1.0
 42
1.0
 10
246.25
 20
446.0
 40
1.0
 41
1.0
 42
1.0
  0
LINE
  5
2E4
330
17
100
AcDbEntity
  8
DK3S_THIN
100
AcDbLine
 10
246.0
 20
446.0
 30
0.0
 11
216.0
 21
498.0
 31
0.0
  0
LINE
  5
2E5
330
17
100
AcDbEntity
  8
DK3S_THIN
100
AcDbLine
 10
216.0
 20
498.0
 30
0.0
 11
279.0
 21
498.0
 31
0.0
  0
TEXT
  5
2E6
330
17
100
AcDbEntity
  8
DK3S_TEXT
100
AcDbText
 10
216.0
 20
499.75
 30
0.0
 40
7.0
  1
Защитная гильза
  7
DK3S_GOST
 11
216.0
 21
499.75
 31
0.0
100
AcDbText
  0
LWPOLYLINE
  5
2E7
330
17
100
AcDbEntity
  8
DK3S_THIN
100
AcDbPolyline
 90
2
 70
1
 43
1.0
 10
396.55
 20
450.7846096908265
 40
1.0
 41
1.0
 42
1.0
 10
397.05
 20
450.7846096908265
 40
1.0
 41
1.0
 42
1.0
  0
LINE
  5
2E8
330
17
100
AcDbEntity
  8
DK3S_THIN
100
AcDbLine
 10
396.8
 20
450.7846096908265
 30
0.0
 11
380.0
 21
498.0
 31
0.0
  0
LINE
  5
2E9
330
17
100
AcDbEntity
  8
DK3S_THIN
100
AcDbLine
 10
380.0
 20
498.0
 30
0.0
 11
438.8
 21
498.0
 31
0.0
  0
TEXT
  5
2EA
330
17
100
AcDbEntity
  8
DK3S_TEXT
100
AcDbText
 10
380.0
 20
499.75
 30
0.0
 40
7.0
  1
Гайка нажимная
  7
DK3S_GOST
 11
380.0
 21
499.75
 31
0.0
100
AcDbText
  0
LWPOLYLINE
  5
2EB
330
17
100
AcDbEntity
  8
DK3S_THIN
100
AcDbPolyline
 90
2
 70
1
 43
1.0
 10
525.75
 20
436.2
 40
1.0
 41
1.0
 42
1.0
 10
526.25
 20
436.2
 40
1.0
 41
1.0
 42
1.0
  0
LINE
  5
2EC
330
17
100
AcDbEntity
  8
DK3S_THIN
100
AcDbLine
 10
526.0
 20
436.2
 30
0.0
 11
496.0
 21
498.0
 31
0.0
  0
LINE
  5
2ED
330
17
100
AcDbEntity
  8
DK3S_THIN
100
AcDbLine
 10
496.0
 20
498.0
 30
0.0
 11
630.4
 21
498.0
 31
0.0
  0
TEXT
  5
2EE
330
17
100
AcDbEntity
  8
DK3S_TEXT
100
AcDbText
 10
496.0
 20
499.75
 30
0.0
 40
7.0
  1
Электролитический мостик (2 шт.)
  7
DK3S_GOST
 11
496.0
 21
499.75
 31
0.0
100
AcDbText
  0
LWPOLYLINE
  5
2EF
330
17
100
AcDbEntity
  8
DK3S_THIN
100
AcDbPolyline
 90
2
 70
1
 43
1.0
 10
700.75
 20
405.95
 40
1.0
 41
1.0
 42
1.0
 10
701.25
 20
405.95
 40
1.0
 41
1.0
 42
1.0
  0
LINE
  5
2F0
330
17
100
AcDbEntity
  8
DK3S_THIN
100
AcDbLine
 10
701.0
 20
405.95
 30
0.0
 11
644.0
 21
384.0
 31
0.0
  0
LINE
  5
2F1
330
17
100
AcDbEntity
  8
DK3S_THIN
100
AcDbLine
 10
644.0
 20
384.0
 30
0.0
 11
765.8
 21
384.0
 31
0.0
  0
TEXT
  5
2F2
330
17
100
AcDbEntity
  8
DK3S_TEXT
100
AcDbText
 10
644.0
 20
385.75
 30
0.0
 40
7.0
  1
Токоотвод электрода сравнения
  7
DK3S_GOST
 11
644.0
 21
385.75
 31
0.0
100
AcDbText
  0
LWPOLYLINE
  5
2F3
330
17
100
AcDbEntity
  8
DK3S_THIN
100
AcDbPolyline
 90
2
 70
1
 43
1.0
 10
103.75
 20
444.0
 40
1.0
 41
1.0
 42
1.0
 10
104.25
 20
444.0
 40
1.0
 41
1.0
 42
1.0
  0
LINE
  5
2F4
330
17
100
AcDbEntity
  8
DK3S_THIN
100
AcDbLine
 10
104.0
 20
444.0
 30
0.0
 11
84.0
 21
514.0
 31
0.0
  0
LINE
  5
2F5
330
17
100
AcDbEntity
  8
DK3S_THIN
100
AcDbLine
 10
84.0
 20
514.0
 30
0.0
 11
142.8
 21
514.0
 31
0.0
  0
TEXT
  5
2F6
330
17
100
AcDbEntity
  8
DK3S_TEXT
100
AcDbText
 10
84.0
 20
515.75
 30
0.0
 40
7.0
  1
Защитная скоба
  7
DK3S_GOST
 11
84.0
 21
515.75
 31
0.0
100
AcDbText
  0
LWPOLYLINE
  5
2F7
330
17
100
AcDbEntity
  8
DK3S_THIN
100
AcDbPolyline
 90
2
 70
1
 43
1.0
 10
358.05
 20
459.5
 40
1.0
 41
1.0
 42
1.0
 10
358.55
 20
459.5
 40
1.0
 41
1.0
 42
1.0
  0
LINE
  5
2F8
330
17
100
AcDbEntity
  8
DK3S_THIN
100
AcDbLine
 10
358.3
 20
459.5
 30
0.0
 11
346.0
 21
514.0
 31
0.0
  0
LINE
  5
2F9
330
17
100
AcDbEntity
  8
DK3S_THIN
100
AcDbLine
 10
346.0
 20
514.0
 30
0.0
 11
404.8
 21
514.0
 31
0.0
  0
TEXT
  5
2FA
330
17
100
AcDbEntity
  8
DK3S_TEXT
100
AcDbText
 10
346.0
 20
515.75
 30
0.0
 40
7.0
  1
Фланец корпуса
  7
DK3S_GOST
 11
346.0
 21
515.75
 31
0.0
100
AcDbText
  0
LWPOLYLINE
  5
2FB
330
17
100
AcDbEntity
  8
DK3S_THIN
100
AcDbPolyline
 90
2
 70
1
 43
1.0
 10
425.75
 20
438.0
 40
1.0
 41
1.0
 42
1.0
 10
426.25
 20
438.0
 40
1.0
 41
1.0
 42
1.0
  0
LINE
  5
2FC
330
17
100
AcDbEntity
  8
DK3S_THIN
100
AcDbLine
 10
426.0
 20
438.0
 30
0.0
 11
432.0
 21
514.0
 31
0.0
  0
LINE
  5
2FD
330
17
100
AcDbEntity
  8
DK3S_THIN
100
AcDbLine
 10
432.0
 20
514.0
 30
0.0
 11
537.0
 21
514.0
 31
0.0
  0
TEXT
  5
2FE
330
17
100
AcDbEntity
  8
DK3S_TEXT
100
AcDbText
 10
432.0
 20
515.75
 30
0.0
 40
7.0
  1
Бирка с заводским номером
  7
DK3S_GOST
 11
432.0
 21
515.75
 31
0.0
100
AcDbText
  0
LWPOLYLINE
  5
2FF
330
17
100
AcDbEntity
  8
DK3S_THIN
100
AcDbPolyline
 90
2
 70
1
 43
1.0
 10
655.75
 20
462.8
 40
1.0
 41
1.0
 42
1.0
 10
656.25
 20
462.8
 40
1.0
 41
1.0
 42
1.0
  0
LINE
  5
300
330
17
100
AcDbEntity
  8
DK3S_THIN
100
AcDbLine
 10
656.0
 20
462.8
 30
0.0
 11
616.0
 21
514.0
 31
0.0
  0
LINE
  5
301
330
17
100
AcDbEntity
  8
DK3S_THIN
100
AcDbLine
 10
616.0
 20
514.0
 30
0.0
 11
725.2
 21
514.0
 31
0.0
  0
TEXT
  5
302
330
17
100
AcDbEntity
  8
DK3S_TEXT
100
AcDbText
 10
616.0
 20
515.75
 30
0.0
 40
7.0
  1
Электрод сравнения (2 шт.)
  7
DK3S_GOST
 11
616.0
 21
515.75
 31
0.0
100
AcDbText
  0
LWPOLYLINE
  5
303
330
17
100
AcDbEntity
  8
DK3S_THIN
100
AcDbPolyline
 90
2
 70
1
 43
1.0
 10
495.75
 20
403.9
 40
1.0
 41
1.0
 42
1.0
 10
496.25
 20
403.9
 40
1.0
 41
1.0
 42
1.0
  0
LINE
  5
304
330
17
100
AcDbEntity
  8
DK3S_THIN
100
AcDbLine
 10
496.0
 20
403.9
 30
0.0
 11
426.0
 21
384.0
 31
0.0
  0
LINE
  5
305
330
17
100
AcDbEntity
  8
DK3S_THIN
100
AcDbLine
 10
426.0
 20
384.0
 30
0.0
 11
577.2
 21
384.0
 31
0.0
  0
TEXT
  5
306
330
17
100
AcDbEntity
  8
DK3S_TEXT
100
AcDbText
 10
426.0
 20
385.75
 30
0.0
 40
7.0
  1
Токоотвод вспомогательного электрода
  7
DK3S_GOST
 11
426.0
 21
385.75
 31
0.0
100
AcDbText
  0
CIRCLE
  5
307
330
17
100
AcDbEntity
  8
DK3S_THIN
100
AcDbCircle
 10
105.0
 20
435.5
 30
0.0
 40
20.0
  0
TEXT
  5
308
330
17
100
AcDbEntity
  8
DK3S_TEXT
100
AcDbText
 10
122.0
 20
449.5
 30
0.0
 40
9.799999999999999
  1
А
  7
DK3S_GOST
 11
122.0
 21
449.5
 31
0.0
100
AcDbText
  0
LINE
  5
309
330
17
100
AcDbEntity
  8
DK3S_AXIS
100
AcDbLine
 10
84.0
 20
190.0
 30
0.0
 11
278.0
 21
190.0
 31
0.0
  0
LINE
  5
30A
330
17
100
AcDbEntity
  8
DK3S_CONTOUR
100
AcDbLine
 10
100.0
 20
202.0
 30
0.0
 11
172.0
 21
202.0
 31
0.0
  0
LINE
  5
30B
330
17
100
AcDbEntity
  8
DK3S_CONTOUR
100
AcDbLine
 10
100.0
 20
178.0
 30
0.0
 11
172.0
 21
178.0
 31
0.0
  0
LINE
  5
30C
330
17
100
AcDbEntity
  8
DK3S_CONTOUR
100
AcDbLine
 10
100.0
 20
200.0
 30
0.0
 11
172.0
 21
200.0
 31
0.0
  0
LINE
  5
30D
330
17
100
AcDbEntity
  8
DK3S_CONTOUR
100
AcDbLine
 10
100.0
 20
180.0
 30
0.0
 11
172.0
 21
180.0
 31
0.0
  0
LINE
  5
30E
330
17
100
AcDbEntity
  8
DK3S_CONTOUR
100
AcDbLine
 10
172.0
 20
200.0
 30
0.0
 11
172.0
 21
202.0
 31
0.0
  0
LINE
  5
30F
330
17
100
AcDbEntity
  8
DK3S_CONTOUR
100
AcDbLine
 10
172.0
 20
178.0
 30
0.0
 11
172.0
 21
180.0
 31
0.0
  0
LINE
  5
310
330
17
100
AcDbEntity
  8
DK3S_THIN
100
AcDbLine
 10
169.87867965644037
 20
200.0
 30
0.0
 11
171.87867965644037
 21
202.0
 31
0.0
  0
LINE
  5
311
330
17
100
AcDbEntity
  8
DK3S_THIN
100
AcDbLine
 10
165.63603896932108
 20
200.0
 30
0.0
 11
167.63603896932108
 21
202.0
 31
0.0
  0
LINE
  5
312
330
17
100
AcDbEntity
  8
DK3S_THIN
100
AcDbLine
 10
161.3933982822018
 20
200.0
 30
0.0
 11
163.3933982822018
 21
202.0
 31
0.0
  0
LINE
  5
313
330
17
100
AcDbEntity
  8
DK3S_THIN
100
AcDbLine
 10
157.1507575950825
 20
200.0
 30
0.0
 11
159.1507575950825
 21
202.0
 31
0.0
  0
LINE
  5
314
330
17
100
AcDbEntity
  8
DK3S_THIN
100
AcDbLine
 10
152.90811690796323
 20
200.0
 30
0.0
 11
154.90811690796323
 21
202.0
 31
0.0
  0
LINE
  5
315
330
17
100
AcDbEntity
  8
DK3S_THIN
100
AcDbLine
 10
148.66547622084394
 20
200.0
 30
0.0
 11
150.66547622084394
 21
202.0
 31
0.0
  0
LINE
  5
316
330
17
100
AcDbEntity
  8
DK3S_THIN
100
AcDbLine
 10
144.42283553372465
 20
200.0
 30
0.0
 11
146.42283553372465
 21
202.0
 31
0.0
  0
LINE
  5
317
330
17
100
AcDbEntity
  8
DK3S_THIN
100
AcDbLine
 10
140.18019484660536
 20
200.0
 30
0.0
 11
142.18019484660536
 21
202.0
 31
0.0
  0
LINE
  5
318
330
17
100
AcDbEntity
  8
DK3S_THIN
100
AcDbLine
 10
135.93755415948607
 20
200.0
 30
0.0
 11
137.93755415948607
 21
202.0
 31
0.0
  0
LINE
  5
319
330
17
100
AcDbEntity
  8
DK3S_THIN
100
AcDbLine
 10
131.6949134723668
 20
200.0
 30
0.0
 11
133.6949134723668
 21
202.0
 31
0.0
  0
LINE
  5
31A
330
17
100
AcDbEntity
  8
DK3S_THIN
100
AcDbLine
 10
127.45227278524749
 20
200.0
 30
0.0
 11
129.4522727852475
 21
202.0
 31
0.0
  0
LINE
  5
31B
330
17
100
AcDbEntity
  8
DK3S_THIN
100
AcDbLine
 10
123.20963209812822
 20
200.0
 30
0.0
 11
125.20963209812822
 21
202.0
 31
0.0
  0
LINE
  5
31C
330
17
100
AcDbEntity
  8
DK3S_THIN
100
AcDbLine
 10
118.9669914110089
 20
200.0
 30
0.0
 11
120.9669914110089
 21
202.0
 31
0.0
  0
LINE
  5
31D
330
17
100
AcDbEntity
  8
DK3S_THIN
100
AcDbLine
 10
114.72435072388964
 20
200.0
 30
0.0
 11
116.72435072388964
 21
202.0
 31
0.0
  0
LINE
  5
31E
330
17
100
AcDbEntity
  8
DK3S_THIN
100
AcDbLine
 10
110.48171003677032
 20
200.0
 30
0.0
 11
112.48171003677032
 21
202.0
 31
0.0
  0
LINE
  5
31F
330
17
100
AcDbEntity
  8
DK3S_THIN
100
AcDbLine
 10
106.23906934965106
 20
200.0
 30
0.0
 11
108.23906934965106
 21
202.0
 31
0.0
  0
LINE
  5
320
330
17
100
AcDbEntity
  8
DK3S_THIN
100
AcDbLine
 10
101.99642866253174
 20
200.0
 30
0.0
 11
103.99642866253174
 21
202.0
 31
0.0
  0
LINE
  5
321
330
17
100
AcDbEntity
  8
DK3S_THIN
100
AcDbLine
 10
169.87867965644037
 20
178.0
 30
0.0
 11
171.87867965644034
 21
179.99999999999997
 31
0.0
  0
LINE
  5
322
330
17
100
AcDbEntity
  8
DK3S_THIN
100
AcDbLine
 10
165.63603896932108
 20
178.0
 30
0.0
 11
167.63603896932108
 21
180.0
 31
0.0
  0
LINE
  5
323
330
17
100
AcDbEntity
  8
DK3S_THIN
100
AcDbLine
 10
161.3933982822018
 20
178.0
 30
0.0
 11
163.3933982822018
 21
180.0
 31
0.0
  0
LINE
  5
324
330
17
100
AcDbEntity
  8
DK3S_THIN
100
AcDbLine
 10
157.1507575950825
 20
178.0
 30
0.0
 11
159.1507575950825
 21
180.0
 31
0.0
  0
LINE
  5
325
330
17
100
AcDbEntity
  8
DK3S_THIN
100
AcDbLine
 10
152.90811690796323
 20
178.0
 30
0.0
 11
154.90811690796323
 21
180.0
 31
0.0
  0
LINE
  5
326
330
17
100
AcDbEntity
  8
DK3S_THIN
100
AcDbLine
 10
148.66547622084394
 20
178.0
 30
0.0
 11
150.66547622084394
 21
180.0
 31
0.0
  0
LINE
  5
327
330
17
100
AcDbEntity
  8
DK3S_THIN
100
AcDbLine
 10
144.42283553372465
 20
178.0
 30
0.0
 11
146.42283553372465
 21
180.0
 31
0.0
  0
LINE
  5
328
330
17
100
AcDbEntity
  8
DK3S_THIN
100
AcDbLine
 10
140.18019484660536
 20
178.0
 30
0.0
 11
142.18019484660536
 21
180.0
 31
0.0
  0
LINE
  5
329
330
17
100
AcDbEntity
  8
DK3S_THIN
100
AcDbLine
 10
135.93755415948607
 20
178.0
 30
0.0
 11
137.93755415948607
 21
180.0
 31
0.0
  0
LINE
  5
32A
330
17
100
AcDbEntity
  8
DK3S_THIN
100
AcDbLine
 10
131.6949134723668
 20
178.0
 30
0.0
 11
133.6949134723668
 21
180.0
 31
0.0
  0
LINE
  5
32B
330
17
100
AcDbEntity
  8
DK3S_THIN
100
AcDbLine
 10
127.45227278524752
 20
178.0
 30
0.0
 11
129.45227278524752
 21
180.0
 31
0.0
  0
LINE
  5
32C
330
17
100
AcDbEntity
  8
DK3S_THIN
100
AcDbLine
 10
123.20963209812822
 20
178.0
 30
0.0
 11
125.20963209812822
 21
180.0
 31
0.0
  0
LINE
  5
32D
330
17
100
AcDbEntity
  8
DK3S_THIN
100
AcDbLine
 10
118.96699141100896
 20
178.0
 30
0.0
 11
120.96699141100896
 21
180.0
 31
0.0
  0
LINE
  5
32E
330
17
100
AcDbEntity
  8
DK3S_THIN
100
AcDbLine
 10
114.72435072388967
 20
178.0
 30
0.0
 11
116.72435072388967
 21
180.0
 31
0.0
  0
LINE
  5
32F
330
17
100
AcDbEntity
  8
DK3S_THIN
100
AcDbLine
 10
110.48171003677038
 20
178.0
 30
0.0
 11
112.48171003677038
 21
180.0
 31
0.0
  0
LINE
  5
330
330
17
100
AcDbEntity
  8
DK3S_THIN
100
AcDbLine
 10
106.23906934965109
 20
178.0
 30
0.0
 11
108.23906934965109
 21
180.0
 31
0.0
  0
LINE
  5
331
330
17
100
AcDbEntity
  8
DK3S_THIN
100
AcDbLine
 10
101.9964286625318
 20
178.0
 30
0.0
 11
103.9964286625318
 21
180.0
 31
0.0
  0
LINE
  5
332
330
17
100
AcDbEntity
  8
DK3S_CONTOUR
100
AcDbLine
 10
100.0
 20
196.0
 30
0.0
 11
228.0
 21
196.0
 31
0.0
  0
LINE
  5
333
330
17
100
AcDbEntity
  8
DK3S_CONTOUR
100
AcDbLine
 10
100.0
 20
184.0
 30
0.0
 11
228.0
 21
184.0
 31
0.0
  0
LINE
  5
334
330
17
100
AcDbEntity
  8
DK3S_CONTOUR
100
AcDbLine
 10
228.0
 20
184.0
 30
0.0
 11
228.0
 21
196.0
 31
0.0
  0
LWPOLYLINE
  5
335
330
17
100
AcDbEntity
  8
DK3S_THIN
100
AcDbPolyline
 90
5
 70
0
 10
100.0
 20
200.0
 10
97.6
 20
196.0
 10
102.4
 20
190.0
 10
97.6
 20
184.0
 10
100.0
 20
180.0
  0
LINE
  5
336
330
17
100
AcDbEntity
  8
DK3S_CONTOUR
100
AcDbLine
 10
172.0
 20
196.0
 30
0.0
 11
172.0
 21
204.0
 31
0.0
  0
LINE
  5
337
330
17
100
AcDbEntity
  8
DK3S_CONTOUR
100
AcDbLine
 10
172.0
 20
176.0
 30
0.0
 11
172.0
 21
184.0
 31
0.0
  0
LINE
  5
338
330
17
100
AcDbEntity
  8
DK3S_CONTOUR
100
AcDbLine
 10
172.0
 20
204.0
 30
0.0
 11
244.0
 21
204.0
 31
0.0
  0
LINE
  5
339
330
17
100
AcDbEntity
  8
DK3S_CONTOUR
100
AcDbLine
 10
172.0
 20
176.0
 30
0.0
 11
244.0
 21
176.0
 31
0.0
  0
LINE
  5
33A
330
17
100
AcDbEntity
  8
DK3S_CONTOUR
100
AcDbLine
 10
244.0
 20
204.0
 30
0.0
 11
254.0
 21
194.0
 31
0.0
  0
LINE
  5
33B
330
17
100
AcDbEntity
  8
DK3S_CONTOUR
100
AcDbLine
 10
244.0
 20
176.0
 30
0.0
 11
254.0
 21
186.0
 31
0.0
  0
LINE
  5
33C
330
17
100
AcDbEntity
  8
DK3S_CONTOUR
100
AcDbLine
 10
254.0
 20
193.2
 30
0.0
 11
254.0
 21
194.0
 31
0.0
  0
LINE
  5
33D
330
17
100
AcDbEntity
  8
DK3S_CONTOUR
100
AcDbLine
 10
254.0
 20
186.0
 30
0.0
 11
254.0
 21
186.8
 31
0.0
  0
LINE
  5
33E
330
17
100
AcDbEntity
  8
DK3S_CONTOUR
100
AcDbLine
 10
172.0
 20
196.0
 30
0.0
 11
232.0
 21
196.0
 31
0.0
  0
LINE
  5
33F
330
17
100
AcDbEntity
  8
DK3S_CONTOUR
100
AcDbLine
 10
172.0
 20
184.0
 30
0.0
 11
232.0
 21
184.0
 31
0.0
  0
LINE
  5
340
330
17
100
AcDbEntity
  8
DK3S_CONTOUR
100
AcDbLine
 10
232.0
 20
193.2
 30
0.0
 11
232.0
 21
196.0
 31
0.0
  0
LINE
  5
341
330
17
100
AcDbEntity
  8
DK3S_CONTOUR
100
AcDbLine
 10
232.0
 20
184.0
 30
0.0
 11
232.0
 21
186.8
 31
0.0
  0
LINE
  5
342
330
17
100
AcDbEntity
  8
DK3S_CONTOUR
100
AcDbLine
 10
232.0
 20
193.2
 30
0.0
 11
254.0
 21
193.2
 31
0.0
  0
LINE
  5
343
330
17
100
AcDbEntity
  8
DK3S_CONTOUR
100
AcDbLine
 10
232.0
 20
186.8
 30
0.0
 11
254.0
 21
186.8
 31
0.0
  0
LINE
  5
344
330
17
100
AcDbEntity
  8
DK3S_THIN
100
AcDbLine
 10
229.87867965644034
 20
196.0
 30
0.0
 11
232.0
 21
198.12132034355966
 31
0.0
  0
LINE
  5
345
330
17
100
AcDbEntity
  8
DK3S_THIN
100
AcDbLine
 10
225.63603896932108
 20
196.0
 30
0.0
 11
232.0
 21
202.36396103067892
 31
0.0
  0
LINE
  5
346
330
17
100
AcDbEntity
  8
DK3S_THIN
100
AcDbLine
 10
221.3933982822018
 20
196.0
 30
0.0
 11
229.3933982822018
 21
204.0
 31
0.0
  0
LINE
  5
347
330
17
100
AcDbEntity
  8
DK3S_THIN
100
AcDbLine
 10
217.1507575950825
 20
196.0
 30
0.0
 11
225.1507575950825
 21
204.0
 31
0.0
  0
LINE
  5
348
330
17
100
AcDbEntity
  8
DK3S_THIN
100
AcDbLine
 10
212.90811690796323
 20
196.0
 30
0.0
 11
220.90811690796323
 21
204.0
 31
0.0
  0
LINE
  5
349
330
17
100
AcDbEntity
  8
DK3S_THIN
100
AcDbLine
 10
208.66547622084394
 20
196.0
 30
0.0
 11
216.66547622084394
 21
204.0
 31
0.0
  0
LINE
  5
34A
330
17
100
AcDbEntity
  8
DK3S_THIN
100
AcDbLine
 10
204.42283553372465
 20
196.0
 30
0.0
 11
212.42283553372465
 21
204.0
 31
0.0
  0
LINE
  5
34B
330
17
100
AcDbEntity
  8
DK3S_THIN
100
AcDbLine
 10
200.18019484660536
 20
196.0
 30
0.0
 11
208.18019484660536
 21
204.0
 31
0.0
  0
LINE
  5
34C
330
17
100
AcDbEntity
  8
DK3S_THIN
100
AcDbLine
 10
195.93755415948607
 20
196.0
 30
0.0
 11
203.93755415948607
 21
204.0
 31
0.0
  0
LINE
  5
34D
330
17
100
AcDbEntity
  8
DK3S_THIN
100
AcDbLine
 10
191.69491347236678
 20
196.0
 30
0.0
 11
199.69491347236678
 21
204.0
 31
0.0
  0
LINE
  5
34E
330
17
100
AcDbEntity
  8
DK3S_THIN
100
AcDbLine
 10
187.45227278524752
 20
196.0
 30
0.0
 11
195.45227278524752
 21
204.0
 31
0.0
  0
LINE
  5
34F
330
17
100
AcDbEntity
  8
DK3S_THIN
100
AcDbLine
 10
183.20963209812822
 20
196.0
 30
0.0
 11
191.20963209812822
 21
204.0
 31
0.0
  0
LINE
  5
350
330
17
100
AcDbEntity
  8
DK3S_THIN
100
AcDbLine
 10
178.96699141100893
 20
196.0
 30
0.0
 11
186.96699141100893
 21
204.0
 31
0.0
  0
LINE
  5
351
330
17
100
AcDbEntity
  8
DK3S_THIN
100
AcDbLine
 10
174.72435072388964
 20
196.0
 30
0.0
 11
182.72435072388964
 21
204.0
 31
0.0
  0
LINE
  5
352
330
17
100
AcDbEntity
  8
DK3S_THIN
100
AcDbLine
 10
172.0
 20
197.51828996322962
 30
0.0
 11
178.48171003677038
 21
204.0
 31
0.0
  0
LINE
  5
353
330
17
100
AcDbEntity
  8
DK3S_THIN
100
AcDbLine
 10
172.0
 20
201.7609306503489
 30
0.0
 11
174.23906934965106
 21
203.99999999999997
 31
0.0
  0
LINE
  5
354
330
17
100
AcDbEntity
  8
DK3S_THIN
100
AcDbLine
 10
241.87867965644034
 20
193.2
 30
0.0
 11
244.0
 21
195.32132034355965
 31
0.0
  0
LINE
  5
355
330
17
100
AcDbEntity
  8
DK3S_THIN
100
AcDbLine
 10
237.63603896932108
 20
193.2
 30
0.0
 11
244.0
 21
199.5639610306789
 31
0.0
  0
LINE
  5
356
330
17
100
AcDbEntity
  8
DK3S_THIN
100
AcDbLine
 10
233.3933982822018
 20
193.2
 30
0.0
 11
244.0
 21
203.8066017177982
 31
0.0
  0
LINE
  5
357
330
17
100
AcDbEntity
  8
DK3S_THIN
100
AcDbLine
 10
232.0
 20
196.0492424049175
 30
0.0
 11
239.9507575950825
 21
204.0
 31
0.0
  0
LINE
  5
358
330
17
100
AcDbEntity
  8
DK3S_THIN
100
AcDbLine
 10
232.0
 20
200.29188309203676
 30
0.0
 11
235.70811690796324
 21
204.0
 31
0.0
  0
LINE
  5
359
330
17
100
AcDbEntity
  8
DK3S_THIN
100
AcDbLine
 10
251.87867965644034
 20
193.2
 30
0.0
 11
253.33933982822018
 21
194.6606601717798
 31
0.0
  0
LINE
  5
35A
330
17
100
AcDbEntity
  8
DK3S_THIN
100
AcDbLine
 10
247.63603896932108
 20
193.2
 30
0.0
 11
251.21801948466054
 21
196.78198051533946
 31
0.0
  0
LINE
  5
35B
330
17
100
AcDbEntity
  8
DK3S_THIN
100
AcDbLine
 10
244.0
 20
193.8066017177982
 30
0.0
 11
249.09669914110088
 21
198.9033008588991
 31
0.0
  0
LINE
  5
35C
330
17
100
AcDbEntity
  8
DK3S_THIN
100
AcDbLine
 10
244.0
 20
198.0492424049175
 30
0.0
 11
246.97537879754125
 21
201.02462120245875
 31
0.0
  0
LINE
  5
35D
330
17
100
AcDbEntity
  8
DK3S_THIN
100
AcDbLine
 10
244.0
 20
202.29188309203676
 30
0.0
 11
244.85405845398162
 21
203.14594154601838
 31
0.0
  0
LINE
  5
35E
330
17
100
AcDbEntity
  8
DK3S_THIN
100
AcDbLine
 10
229.87867965644034
 20
176.0
 30
0.0
 11
232.0
 21
178.12132034355966
 31
0.0
  0
LINE
  5
35F
330
17
100
AcDbEntity
  8
DK3S_THIN
100
AcDbLine
 10
225.63603896932108
 20
176.0
 30
0.0
 11
232.0
 21
182.36396103067892
 31
0.0
  0
LINE
  5
360
330
17
100
AcDbEntity
  8
DK3S_THIN
100
AcDbLine
 10
221.3933982822018
 20
176.0
 30
0.0
 11
229.3933982822018
 21
184.0
 31
0.0
  0
LINE
  5
361
330
17
100
AcDbEntity
  8
DK3S_THIN
100
AcDbLine
 10
217.1507575950825
 20
176.0
 30
0.0
 11
225.1507575950825
 21
184.0
 31
0.0
  0
LINE
  5
362
330
17
100
AcDbEntity
  8
DK3S_THIN
100
AcDbLine
 10
212.90811690796323
 20
176.0
 30
0.0
 11
220.90811690796323
 21
184.0
 31
0.0
  0
LINE
  5
363
330
17
100
AcDbEntity
  8
DK3S_THIN
100
AcDbLine
 10
208.66547622084394
 20
176.0
 30
0.0
 11
216.66547622084394
 21
184.0
 31
0.0
  0
LINE
  5
364
330
17
100
AcDbEntity
  8
DK3S_THIN
100
AcDbLine
 10
204.42283553372465
 20
176.0
 30
0.0
 11
212.42283553372465
 21
184.0
 31
0.0
  0
LINE
  5
365
330
17
100
AcDbEntity
  8
DK3S_THIN
100
AcDbLine
 10
200.18019484660536
 20
176.0
 30
0.0
 11
208.18019484660536
 21
184.0
 31
0.0
  0
LINE
  5
366
330
17
100
AcDbEntity
  8
DK3S_THIN
100
AcDbLine
 10
195.93755415948607
 20
176.0
 30
0.0
 11
203.93755415948607
 21
184.0
 31
0.0
  0
LINE
  5
367
330
17
100
AcDbEntity
  8
DK3S_THIN
100
AcDbLine
 10
191.6949134723668
 20
176.0
 30
0.0
 11
199.6949134723668
 21
184.0
 31
0.0
  0
LINE
  5
368
330
17
100
AcDbEntity
  8
DK3S_THIN
100
AcDbLine
 10
187.45227278524752
 20
176.0
 30
0.0
 11
195.45227278524752
 21
184.0
 31
0.0
  0
LINE
  5
369
330
17
100
AcDbEntity
  8
DK3S_THIN
100
AcDbLine
 10
183.20963209812822
 20
176.0
 30
0.0
 11
191.20963209812822
 21
184.0
 31
0.0
  0
LINE
  5
36A
330
17
100
AcDbEntity
  8
DK3S_THIN
100
AcDbLine
 10
178.96699141100893
 20
176.0
 30
0.0
 11
186.96699141100893
 21
184.0
 31
0.0
  0
LINE
  5
36B
330
17
100
AcDbEntity
  8
DK3S_THIN
100
AcDbLine
 10
174.72435072388964
 20
176.0
 30
0.0
 11
182.72435072388964
 21
184.0
 31
0.0
  0
LINE
  5
36C
330
17
100
AcDbEntity
  8
DK3S_THIN
100
AcDbLine
 10
172.0
 20
177.51828996322962
 30
0.0
 11
178.48171003677038
 21
184.0
 31
0.0
  0
LINE
  5
36D
330
17
100
AcDbEntity
  8
DK3S_THIN
100
AcDbLine
 10
172.0
 20
181.7609306503489
 30
0.0
 11
174.2390693496511
 21
184.0
 31
0.0
  0
LINE
  5
36E
330
17
100
AcDbEntity
  8
DK3S_THIN
100
AcDbLine
 10
241.87867965644034
 20
176.0
 30
0.0
 11
244.0
 21
178.12132034355966
 31
0.0
  0
LINE
  5
36F
330
17
100
AcDbEntity
  8
DK3S_THIN
100
AcDbLine
 10
237.63603896932108
 20
176.0
 30
0.0
 11
244.0
 21
182.36396103067892
 31
0.0
  0
LINE
  5
370
330
17
100
AcDbEntity
  8
DK3S_THIN
100
AcDbLine
 10
233.3933982822018
 20
176.0
 30
0.0
 11
244.0
 21
186.6066017177982
 31
0.0
  0
LINE
  5
371
330
17
100
AcDbEntity
  8
DK3S_THIN
100
AcDbLine
 10
232.0
 20
178.8492424049175
 30
0.0
 11
239.9507575950825
 21
186.8
 31
0.0
  0
LINE
  5
372
330
17
100
AcDbEntity
  8
DK3S_THIN
100
AcDbLine
 10
232.0
 20
183.09188309203677
 30
0.0
 11
235.70811690796324
 21
186.8
 31
0.0
  0
LINE
  5
373
330
17
100
AcDbEntity
  8
DK3S_THIN
100
AcDbLine
 10
244.0
 20
178.12132034355966
 30
0.0
 11
252.67867965644035
 21
186.8
 31
0.0
  0
LINE
  5
374
330
17
100
AcDbEntity
  8
DK3S_THIN
100
AcDbLine
 10
244.0
 20
182.36396103067892
 30
0.0
 11
248.4360389693211
 21
186.8
 31
0.0
  0
LINE
  5
375
330
17
100
AcDbEntity
  8
DK3S_THIN
100
AcDbLine
 10
244.0
 20
186.6066017177982
 30
0.0
 11
244.1933982822018
 21
186.8
 31
0.0
  0
LINE
  5
376
330
17
100
AcDbEntity
  8
DK3S_CONTOUR
100
AcDbLine
 10
228.0
 20
192.8
 30
0.0
 11
262.0
 21
192.8
 31
0.0
  0
LINE
  5
377
330
17
100
AcDbEntity
  8
DK3S_CONTOUR
100
AcDbLine
 10
228.0
 20
187.2
 30
0.0
 11
262.0
 21
187.2
 31
0.0
  0
LINE
  5
378
330
17
100
AcDbEntity
  8
DK3S_CONTOUR
100
AcDbLine
 10
262.0
 20
187.2
 30
0.0
 11
262.0
 21
192.8
 31
0.0
  0
DIMENSION
  5
379
330
17
100
AcDbEntity
  8
DK3S_DIM
100
AcDbDimension
280
0
  2
*D22
  3
DK3S
 10
274.0
 20
192.8
 30
0.0
 11
281.25
 21
190.0
 31
0.0
 70
32
 71
5
  1
%%c1,4
100
AcDbAlignedDimension
 13
262.0
 23
192.8
 33
0.0
 14
262.0
 24
187.2
 34
0.0
 50
90.0
100
AcDbRotatedDimension
  0
DIMENSION
  5
38A
330
17
100
AcDbEntity
  8
DK3S_DIM
100
AcDbDimension
280
0
  2
*D23
  3
DK3S
 10
254.0
 20
164.0
 30
0.0
 11
258.0
 21
168.75
 31
0.0
 70
32
 71
5
  1
2
100
AcDbAlignedDimension
 13
254.0
 23
186.0
 33
0.0
 14
262.0
 24
186.0
 34
0.0
 50
0.0
100
AcDbRotatedDimension
  0
DIMENSION
  5
39B
330
17
100
AcDbEntity
  8
DK3S_DIM
100
AcDbDimension
280
0
  2
*D24
  3
DK3S
 10
136.0
 20
202.0
 30
0.0
 11
143.25
 21
190.0
 31
0.0
 70
32
 71
5
  1
%%c6
100
AcDbAlignedDimension
 13
136.0
 23
202.0
 33
0.0
 14
136.0
 24
178.0
 34
0.0
 50
90.0
100
AcDbRotatedDimension
  0
DIMENSION
  5
3AA
330
17
100
AcDbEntity
  8
DK3S_DIM
100
AcDbDimension
280
0
  2
*D25
  3
DK3S
 10
116.0
 20
196.0
 30
0.0
 11
123.25
 21
190.0
 31
0.0
 70
32
 71
5
  1
%%c3
100
AcDbAlignedDimension
 13
116.0
 23
196.0
 33
0.0
 14
116.0
 24
184.0
 34
0.0
 50
90.0
100
AcDbRotatedDimension
  0
DIMENSION
  5
3BB
330
17
100
AcDbEntity
  8
DK3S_DIM
100
AcDbDimension
280
0
  2
*D26
  3
DK3S
 10
208.0
 20
204.0
 30
0.0
 11
215.25
 21
190.0
 31
0.0
 70
32
 71
5
  1
S6,35
100
AcDbAlignedDimension
 13
208.0
 23
204.0
 33
0.0
 14
208.0
 24
176.0
 34
0.0
 50
90.0
100
AcDbRotatedDimension
  0
LWPOLYLINE
  5
3CA
330
17
100
AcDbEntity
  8
DK3S_THIN
100
AcDbPolyline
 90
2
 70
1
 43
1.0
 10
147.75
 20
202.0
 40
1.0
 41
1.0
 42
1.0
 10
148.25
 20
202.0
 40
1.0
 41
1.0
 42
1.0
  0
LINE
  5
3CB
330
17
100
AcDbEntity
  8
DK3S_THIN
100
AcDbLine
 10
148.0
 20
202.0
 30
0.0
 11
124.0
 21
228.0
 31
0.0
  0
LINE
  5
3CC
330
17
100
AcDbEntity
  8
DK3S_THIN
100
AcDbLine
 10
124.0
 20
228.0
 30
0.0
 11
187.0
 21
228.0
 31
0.0
  0
TEXT
  5
3CD
330
17
100
AcDbEntity
  8
DK3S_TEXT
100
AcDbText
 10
124.0
 20
229.75
 30
0.0
 40
7.0
  1
Защитная трубка
  7
DK3S_GOST
 11
124.0
 21
229.75
 31
0.0
100
AcDbText
  0
LWPOLYLINE
  5
3CE
330
17
100
AcDbEntity
  8
DK3S_THIN
100
AcDbPolyline
 90
2
 70
1
 43
1.0
 10
187.75
 20
176.0
 40
1.0
 41
1.0
 42
1.0
 10
188.25
 20
176.0
 40
1.0
 41
1.0
 42
1.0
  0
LINE
  5
3CF
330
17
100
AcDbEntity
  8
DK3S_THIN
100
AcDbLine
 10
188.0
 20
176.0
 30
0.0
 11
196.0
 21
148.0
 31
0.0
  0
LINE
  5
3D0
330
17
100
AcDbEntity
  8
DK3S_THIN
100
AcDbLine
 10
196.0
 20
148.0
 30
0.0
 11
238.0
 21
148.0
 31
0.0
  0
TEXT
  5
3D1
330
17
100
AcDbEntity
  8
DK3S_TEXT
100
AcDbText
 10
196.0
 20
149.75
 30
0.0
 40
7.0
  1
Наконечник
  7
DK3S_GOST
 11
196.0
 21
149.75
 31
0.0
100
AcDbText
  0
LWPOLYLINE
  5
3D2
330
17
100
AcDbEntity
  8
DK3S_THIN
100
AcDbPolyline
 90
2
 70
1
 43
1.0
 10
257.75
 20
192.8
 40
1.0
 41
1.0
 42
1.0
 10
258.25
 20
192.8
 40
1.0
 41
1.0
 42
1.0
  0
LINE
  5
3D3
330
17
100
AcDbEntity
  8
DK3S_THIN
100
AcDbLine
 10
258.0
 20
192.8
 30
0.0
 11
266.0
 21
228.0
 31
0.0
  0
LINE
  5
3D4
330
17
100
AcDbEntity
  8
DK3S_THIN
100
AcDbLine
 10
266.0
 20
228.0
 30
0.0
 11
333.2
 21
228.0
 31
0.0
  0
TEXT
  5
3D5
330
17
100
AcDbEntity
  8
DK3S_TEXT
100
AcDbText
 10
266.0
 20
229.75
 30
0.0
 40
7.0
  1
Рабочий электрод
  7
DK3S_GOST
 11
266.0
 21
229.75
 31
0.0
100
AcDbText
  0
LWPOLYLINE
  5
3D6
330
17
100
AcDbEntity
  8
DK3S_THIN
100
AcDbPolyline
 90
2
 70
1
 43
1.0
 10
123.75
 20
184.0
 40
1.0
 41
1.0
 42
1.0
 10
124.25
 20
184.0
 40
1.0
 41
1.0
 42
1.0
  0
LINE
  5
3D7
330
17
100
AcDbEntity
  8
DK3S_THIN
100
AcDbLine
 10
124.0
 20
184.0
 30
0.0
 11
92.0
 21
124.0
 31
0.0
  0
LINE
  5
3D8
330
17
100
AcDbEntity
  8
DK3S_THIN
100
AcDbLine
 10
92.0
 20
124.0
 30
0.0
 11
209.60000000000002
 21
124.0
 31
0.0
  0
TEXT
  5
3D9
330
17
100
AcDbEntity
  8
DK3S_TEXT
100
AcDbText
 10
92.0
 20
125.75
 30
0.0
 40
7.0
  1
Токоотвод рабочего электрода
  7
DK3S_GOST
 11
92.0
 21
125.75
 31
0.0
100
AcDbText
  0
TEXT
  5
3DA
330
17
100
AcDbEntity
  8
DK3S_TEXT
100
AcDbText
 10
181.0
 20
260.0
 30
0.0
 40
9.799999999999999
  1
А (2:1)
  7
DK3S_GOST
 72
1
 11
181.0
 21
260.0
 31
0.0
100
AcDbText
  0
LINE
  5
3DB
330
17
100
AcDbEntity
  8
DK3S_THIN
100
AcDbLine
 10
153.0
 20
256.8
 30
0.0
 11
209.0
 21
256.8
 31
0.0
  0
TEXT
  5
3DC
330
17
100
AcDbEntity
  8
DK3S_TEXT
100
AcDbText
 10
464.0
 20
236.0
 30
0.0
 40
7.0
  1
1. * Размеры для справок.
  7
DK3S_GOST
 11
464.0
 21
236.0
 31
0.0
100
AcDbText
  0
TEXT
  5
3DD
330
17
100
AcDbEntity
  8
DK3S_TEXT
100
AcDbText
 10
464.0
 20
224.1
 30
0.0
 40
7.0
  1
2. Рабочий электрод - проволока Ø1,4 мм, выступ 2 мм.
  7
DK3S_GOST
 11
464.0
 21
224.1
 31
0.0
100
AcDbText
  0
TEXT
  5
3DE
330
17
100
AcDbEntity
  8
DK3S_TEXT
100
AcDbText
 10
464.0
 20
212.2
 30
0.0
 40
7.0
  1
3. Наконечник - шестигранник 1/4", резьба токоотвода - шаг 0,5 мм.
  7
DK3S_GOST
 11
464.0
 21
212.2
 31
0.0
100
AcDbText
  0
TEXT
  5
3DF
330
17
100
AcDbEntity
  8
DK3S_TEXT
100
AcDbText
 10
464.0
 20
200.3
 30
0.0
 40
7.0
  1
4. Присоединение - резьба M42x3 в гнездо 713.165.001 входного узла фланца DN50.
  7
DK3S_GOST
 11
464.0
 21
200.3
 31
0.0
100
AcDbText
  0
TEXT
  5
3E0
330
17
100
AcDbEntity
  8
DK3S_TEXT
100
AcDbText
 10
464.0
 20
188.4
 30
0.0
 40
7.0
  1
5. Корпус, гайка нажимная, грундбукса - 08Х18Н10Т ГОСТ 5949-75 (черт. 714.761.000, 714.541.000, 711.171.000).
  7
DK3S_GOST
 11
464.0
 21
188.4
 31
0.0
100
AcDbText
  0
TEXT
  5
3E1
330
17
100
AcDbEntity
  8
DK3S_TEXT
100
AcDbText
 10
464.0
 20
176.5
 30
0.0
 40
7.0
  1
6. Токоотводы: RE1 - синий, RE2 - белый, WE - красный, SE - чёрный.
  7
DK3S_GOST
 11
464.0
 21
176.5
 31
0.0
100
AcDbText
  0
TEXT
  5
3E2
330
17
100
AcDbEntity
  8
DK3S_TEXT
100
AcDbText
 10
464.0
 20
164.6
 30
0.0
 40
7.0
  1
7. Геометрия - по монтажному чертежу техописания K1 (лист 16) и чертежам деталей ЭКОР.
  7
DK3S_GOST
 11
464.0
 21
164.6
 31
0.0
100
AcDbText
  0
ENDSEC
  0
SECTION
  2
OBJECTS
  0
DICTIONARY
  5
A
330
0
100
AcDbDictionary
281
1
  3
ACAD_COLOR
350
B
  3
ACAD_GROUP
350
C
  3
ACAD_LAYOUT
350
D
  3
ACAD_MATERIAL
350
E
  3
ACAD_MLEADERSTYLE
350
F
  3
ACAD_MLINESTYLE
350
10
  3
ACAD_PLOTSETTINGS
350
11
  3
ACAD_PLOTSTYLENAME
350
12
  3
ACAD_SCALELIST
350
14
  3
ACAD_TABLESTYLE
350
15
  3
ACAD_VISUALSTYLE
350
16
  3
EZDXF_META
350
2D
  0
DICTIONARY
  5
B
330
A
100
AcDbDictionary
281
1
  0
DICTIONARY
  5
C
330
A
100
AcDbDictionary
281
1
  0
DICTIONARY
  5
D
330
A
100
AcDbDictionary
281
1
  3
Model
350
1A
  3
Layout1
350
1E
  0
DICTIONARY
  5
E
330
A
100
AcDbDictionary
281
1
  3
ByBlock
350
1F
  3
ByLayer
350
20
  3
Global
350
21
  0
DICTIONARY
  5
F
330
A
100
AcDbDictionary
281
1
  3
Standard
350
2C
  0
DICTIONARY
  5
10
330
A
100
AcDbDictionary
281
1
  3
Standard
350
22
  0
DICTIONARY
  5
11
330
A
100
AcDbDictionary
281
1
  0
ACDBDICTIONARYWDFLT
  5
12
330
A
100
AcDbDictionary
281
1
  3
Normal
350
13
100
AcDbDictionaryWithDefault
340
13
  0
ACDBPLACEHOLDER
  5
13
330
12
  0
DICTIONARY
  5
14
330
A
100
AcDbDictionary
281
1
  0
DICTIONARY
  5
15
330
A
100
AcDbDictionary
281
1
  0
DICTIONARY
  5
16
330
A
100
AcDbDictionary
281
1
  3
2dWireframe
350
5A
  3
Basic
350
5B
  3
Brighten
350
5C
  3
ColorChange
350
5D
  3
Conceptual
350
5E
  3
Dim
350
5F
  3
EdgeColorOff
350
60
  3
Facepattern
350
61
  3
Flat
350
62
  3
FlatWithEdges
350
63
  3
Gouraud
350
64
  3
GouraudWithEdges
350
65
  3
Hidden
350
66
  3
JitterOff
350
67
  3
Linepattern
350
68
  3
Modeling
350
69
  3
OverhangOff
350
6A
  3
Realistic
350
6B
  3
Shaded
350
6C
  3
Shaded with edges
350
6D
  3
Shades of Gray
350
6E
  3
Sketchy
350
6F
  3
Thicken
350
70
  3
Wireframe
350
71
  3
X-Ray
350
72
  0
LAYOUT
  5
1A
330
D
100
AcDbPlotSettings
  1

  4
A3
  6

 40
7.5
 41
20.0
 42
7.5
 43
20.0
 44
420.0
 45
297.0
 46
0.0
 47
0.0
 48
0.0
 49
0.0
140
0.0
141
0.0
142
1.0
143
1.0
 70
1024
 72
1
 73
0
 74
5
  7

 75
16
 76
0
 77
2
 78
300
147
1.0
148
0.0
149
0.0
100
AcDbLayout
  1
Model
 70
1
 71
0
 10
0.0
 20
0.0
 11
420.0
 21
297.0
 12
0.0
 22
0.0
 32
0.0
 14
1e+20
 24
1e+20
 34
1e+20
 15
-1e+20
 25
-1e+20
 35
-1e+20
146
0.0
 13
0.0
 23
0.0
 33
0.0
 16
1.0
 26
0.0
 36
0.0
 17
0.0
 27
1.0
 37
0.0
 76
1
330
17
  0
LAYOUT
  5
1E
330
D
100
AcDbPlotSettings
  1

  4
A3
  6

 40
7.5
 41
20.0
 42
7.5
 43
20.0
 44
420.0
 45
297.0
 46
0.0
 47
0.0
 48
0.0
 49
0.0
140
0.0
141
0.0
142
1.0
143
1.0
 70
0
 72
1
 73
0
 74
5
  7

 75
16
 76
0
 77
2
 78
300
147
1.0
148
0.0
149
0.0
100
AcDbLayout
  1
Layout1
 70
1
 71
1
 10
0.0
 20
0.0
 11
420.0
 21
297.0
 12
0.0
 22
0.0
 32
0.0
 14
1e+20
 24
1e+20
 34
1e+20
 15
-1e+20
 25
-1e+20
 35
-1e+20
146
0.0
 13
0.0
 23
0.0
 33
0.0
 16
1.0
 26
0.0
 36
0.0
 17
0.0
 27
1.0
 37
0.0
 76
1
330
1B
  0
MATERIAL
  5
1F
102
{ACAD_REACTORS
330
E
102
}
330
E
100
AcDbMaterial
  1
ByBlock
  2

 70
0
 40
1.0
 71
1
 41
1.0
 91
-1023410177
 42
1.0
 72
1
  3

 73
1
 74
1
 75
1
 44
0.5
 73
0
 45
1.0
 46
1.0
 77
1
  4

 78
1
 79
1
170
1
 48
1.0
171
1
  6

172
1
173
1
174
1
140
1.0
141
1.0
175
1
  7

176
1
177
1
178
1
143
1.0
179
1
  8

270
1
271
1
272
1
145
1.0
146
1.0
273
1
  9

274
1
275
1
276
1
 42
1.0
 72
1
  3

 73
1
 74
1
 75
1
 94
63
  0
MATERIAL
  5
20
102
{ACAD_REACTORS
330
E
102
}
330
E
100
AcDbMaterial
  1
ByLayer
  2

 70
0
 40
1.0
 71
1
 41
1.0
 91
-1023410177
 42
1.0
 72
1
  3

 73
1
 74
1
 75
1
 44
0.5
 73
0
 45
1.0
 46
1.0
 77
1
  4

 78
1
 79
1
170
1
 48
1.0
171
1
  6

172
1
173
1
174
1
140
1.0
141
1.0
175
1
  7

176
1
177
1
178
1
143
1.0
179
1
  8

270
1
271
1
272
1
145
1.0
146
1.0
273
1
  9

274
1
275
1
276
1
 42
1.0
 72
1
  3

 73
1
 74
1
 75
1
 94
63
  0
MATERIAL
  5
21
102
{ACAD_REACTORS
330
E
102
}
330
E
100
AcDbMaterial
  1
Global
  2

 70
0
 40
1.0
 71
1
 41
1.0
 91
-1023410177
 42
1.0
 72
1
  3

 73
1
 74
1
 75
1
 44
0.5
 73
0
 45
1.0
 46
1.0
 77
1
  4

 78
1
 79
1
170
1
 48
1.0
171
1
  6

172
1
173
1
174
1
140
1.0
141
1.0
175
1
  7

176
1
177
1
178
1
143
1.0
179
1
  8

270
1
271
1
272
1
145
1.0
146
1.0
273
1
  9

274
1
275
1
276
1
 42
1.0
 72
1
  3

 73
1
 74
1
 75
1
 94
63
  0
MLINESTYLE
  5
22
102
{ACAD_REACTORS
330
10
102
}
330
10
100
AcDbMlineStyle
  2
Standard
 70
0
  3

 62
256
 51
90.0
 52
90.0
 71
2
 49
0.5
 62
256
  6
BYLAYER
 49
-0.5
 62
256
  6
BYLAYER
  0
MLEADERSTYLE
  5
2C
102
{ACAD_REACTORS
330
F
102
}
330
F
100
AcDbMLeaderStyle
179
2
170
2
171
1
172
0
 90
2
 40
0.0
 41
0.0
173
1
 91
-1056964608
 92
-2
290
1
 42
2.0
291
1
 43
8.0
  3
Standard
 44
4.0
300

342
29
174
1
175
1
176
0
178
1
 93
-1056964608
 45
4.0
292
0
297
0
 46
4.0
 94
-1056964608
 47
1.0
 49
1.0
140
1.0
294
1
141
0.0
177
0
142
1.0
295
0
296
0
143
3.75
271
0
272
9
273
9
  0
DICTIONARY
  5
2D
330
A
100
AcDbDictionary
280
1
281
1
  3
CREATED_BY_EZDXF
350
2E
  3
WRITTEN_BY_EZDXF
350
3E5
  0
DICTIONARYVAR
  5
2E
330
2D
100
DictionaryVariables
280
0
  1
1.4.4 @ 2026-09-19T09:32:04.081145+00:00
  0
VISUALSTYLE
  5
5A
102
{ACAD_REACTORS
330
16
102
}
330
16
100
AcDbVisualStyle
  2
2dWireframe
 70
4
 90
0
 40
0.6
 62
7
290
0
291
0
  0
VISUALSTYLE
  5
5B
102
{ACAD_REACTORS
330
16
102
}
330
16
100
AcDbVisualStyle
  2
Basic
 70
7
 90
1
 40
0.6
 62
7
290
0
291
1
  0
VISUALSTYLE
  5
5C
102
{ACAD_REACTORS
330
16
102
}
330
16
100
AcDbVisualStyle
  2
Brighten
 70
12
 90
2
 40
0.6
 62
7
290
0
291
1
  0
VISUALSTYLE
  5
5D
102
{ACAD_REACTORS
330
16
102
}
330
16
100
AcDbVisualStyle
  2
ColorChange
 70
16
 90
2
 40
0.6
 62
8
290
0
291
1
  0
VISUALSTYLE
  5
5E
102
{ACAD_REACTORS
330
16
102
}
330
16
100
AcDbVisualStyle
  2
Conceptual
 70
9
 90
3
 40
0.6
 62
7
290
0
291
0
  0
VISUALSTYLE
  5
5F
102
{ACAD_REACTORS
330
16
102
}
330
16
100
AcDbVisualStyle
  2
Dim
 70
11
 90
2
 40
0.6
 62
7
290
0
291
1
  0
VISUALSTYLE
  5
60
102
{ACAD_REACTORS
330
16
102
}
330
16
100
AcDbVisualStyle
  2
EdgeColorOff
 70
22
 90
2
 40
0.6
 62
7
290
0
291
1
  0
VISUALSTYLE
  5
61
102
{ACAD_REACTORS
330
16
102
}
330
16
100
AcDbVisualStyle
  2
Facepattern
 70
15
 90
2
 40
0.6
 62
7
290
0
291
1
  0
VISUALSTYLE
  5
62
102
{ACAD_REACTORS
330
16
102
}
330
16
100
AcDbVisualStyle
  2
Flat
 70
0
 90
2
 40
0.6
 62
7
290
0
291
1
  0
VISUALSTYLE
  5
63
102
{ACAD_REACTORS
330
16
102
}
330
16
100
AcDbVisualStyle
  2
FlatWithEdges
 70
1
 90
2
 40
0.6
 62
7
290
0
291
1
  0
VISUALSTYLE
  5
64
102
{ACAD_REACTORS
330
16
102
}
330
16
100
AcDbVisualStyle
  2
Gouraud
 70
2
 90
2
 40
0.6
 62
7
290
0
291
1
  0
VISUALSTYLE
  5
65
102
{ACAD_REACTORS
330
16
102
}
330
16
100
AcDbVisualStyle
  2
GouraudWithEdges
 70
3
 90
2
 40
0.6
 62
7
290
0
291
1
  0
VISUALSTYLE
  5
66
102
{ACAD_REACTORS
330
16
102
}
330
16
100
AcDbVisualStyle
  2
Hidden
 70
6
 90
1
 40
0.6
 62
7
290
0
291
0
  0
VISUALSTYLE
  5
67
102
{ACAD_REACTORS
330
16
102
}
330
16
100
AcDbVisualStyle
  2
JitterOff
 70
20
 90
2
 40
0.6
 62
7
290
0
291
1
  0
VISUALSTYLE
  5
68
102
{ACAD_REACTORS
330
16
102
}
330
16
100
AcDbVisualStyle
  2
Linepattern
 70
14
 90
2
 40
0.6
 62
7
290
0
291
1
  0
VISUALSTYLE
  5
69
102
{ACAD_REACTORS
330
16
102
}
330
16
100
AcDbVisualStyle
  2
Modeling
 70
10
 90
2
 40
0.6
 62
7
290
0
291
0
  0
VISUALSTYLE
  5
6A
102
{ACAD_REACTORS
330
16
102
}
330
16
100
AcDbVisualStyle
  2
OverhangOff
 70
21
 90
2
 40
0.6
 62
7
290
0
291
1
  0
VISUALSTYLE
  5
6B
102
{ACAD_REACTORS
330
16
102
}
330
16
100
AcDbVisualStyle
  2
Realistic
 70
8
 90
2
 40
0.6
 62
7
290
0
291
0
  0
VISUALSTYLE
  5
6C
102
{ACAD_REACTORS
330
16
102
}
330
16
100
AcDbVisualStyle
  2
Shaded
 70
27
 90
2
 40
0.6
 62
7
290
0
291
0
  0
VISUALSTYLE
  5
6D
102
{ACAD_REACTORS
330
16
102
}
330
16
100
AcDbVisualStyle
  2
Shaded with edges
 70
26
 90
2
 40
0.6
 62
7
290
0
291
0
  0
VISUALSTYLE
  5
6E
102
{ACAD_REACTORS
330
16
102
}
330
16
100
AcDbVisualStyle
  2
Shades of Gray
 70
23
 90
2
 40
0.6
 62
7
290
0
291
0
  0
VISUALSTYLE
  5
6F
102
{ACAD_REACTORS
330
16
102
}
330
16
100
AcDbVisualStyle
  2
Sketchy
 70
24
 90
1
 40
0.6
 62
7
290
0
291
0
  0
VISUALSTYLE
  5
70
102
{ACAD_REACTORS
330
16
102
}
330
16
100
AcDbVisualStyle
  2
Thicken
 70
13
 90
2
 40
0.6
 62
7
290
0
291
1
  0
VISUALSTYLE
  5
71
102
{ACAD_REACTORS
330
16
102
}
330
16
100
AcDbVisualStyle
  2
Wireframe
 70
5
 90
0
 40
0.6
 62
7
290
0
291
0
  0
VISUALSTYLE
  5
72
102
{ACAD_REACTORS
330
16
102
}
330
16
100
AcDbVisualStyle
  2
X-Ray
 70
25
 90
2
 40
0.5
 62
7
290
0
291
0
  0
DICTIONARYVAR
  5
3E5
330
2D
100
DictionaryVariables
280
0
  1
1.4.4 @ 2026-09-19T09:32:04.132730+00:00
  0
ENDSEC
  0
EOF
